<svg id="svg" version="1.1" width="400" height="400" viewBox="0 0 400 400" xmlns="http://www.w3.org/2000/svg" xmlns:xlink="http://www.w3.org/1999/xlink" ><g id="svgg"><path id="path0" d="" stroke="none" fill="#000000" fill-rule="evenodd"></path><path id="path1" d="" stroke="none" fill="#005500" fill-rule="evenodd"></path><path id="path2" d="M218.575 154.100 L 217.400 155.400 218.700 154.225 C 219.415 153.579,220.000 152.994,220.000 152.925 C 220.000 152.616,219.670 152.888,218.575 154.100 M235.200 211.464 C 235.200 211.682,235.695 212.297,236.300 212.830 L 237.400 213.800 236.400 212.600 C 235.850 211.940,235.355 211.325,235.300 211.233 C 235.245 211.142,235.200 211.245,235.200 211.464 M149.861 227.040 C 148.828 228.457,149.200 228.542,150.330 227.147 C 150.842 226.516,151.112 226.006,150.930 226.013 C 150.749 226.019,150.267 226.482,149.861 227.040 " stroke="none" fill="#339900" fill-rule="evenodd"></path><path id="path3" d="M183.999 27.317 C 183.890 27.417,182.720 27.605,181.400 27.734 C 178.553 28.013,175.464 28.386,173.800 28.652 C 173.140 28.757,171.520 29.004,170.200 29.201 C 167.959 29.534,167.044 29.718,162.100 30.826 C 161.055 31.060,159.524 31.349,158.697 31.468 C 157.871 31.587,157.095 31.845,156.974 32.042 C 156.852 32.239,156.234 32.400,155.600 32.400 C 154.966 32.400,154.336 32.580,154.200 32.800 C 154.064 33.020,153.333 33.200,152.576 33.200 C 151.819 33.200,151.200 33.380,151.200 33.600 C 151.200 33.820,150.570 34.000,149.800 34.000 C 149.030 34.000,148.400 34.180,148.400 34.400 C 148.400 34.620,147.961 34.800,147.424 34.800 C 146.887 34.800,146.336 34.980,146.200 35.200 C 146.064 35.420,145.524 35.600,145.000 35.600 C 144.476 35.600,143.936 35.780,143.800 36.000 C 143.664 36.220,143.201 36.400,142.771 36.400 C 142.341 36.400,141.677 36.559,141.295 36.753 C 140.608 37.103,139.249 37.673,137.500 38.346 C 137.005 38.537,136.060 38.921,135.400 39.200 C 134.740 39.479,133.840 39.837,133.400 39.997 C 132.960 40.156,131.818 40.672,130.862 41.143 C 129.906 41.614,128.871 42.000,128.562 42.000 C 128.253 42.000,128.000 42.180,128.000 42.400 C 128.000 42.620,127.640 42.800,127.200 42.800 C 126.760 42.800,126.400 42.980,126.400 43.200 C 126.400 43.420,126.138 43.600,125.817 43.600 C 125.106 43.600,116.999 47.526,115.371 48.659 C 114.727 49.107,113.615 49.727,112.900 50.035 C 112.185 50.343,111.600 50.731,111.600 50.898 C 111.600 51.064,111.364 51.200,111.075 51.200 C 110.787 51.200,110.164 51.560,109.692 52.000 C 109.220 52.440,108.596 52.800,108.305 52.800 C 108.014 52.800,107.517 53.160,107.200 53.600 C 106.883 54.040,106.303 54.400,105.912 54.400 C 105.520 54.400,105.200 54.550,105.200 54.732 C 105.200 54.915,104.705 55.319,104.100 55.630 C 103.495 55.940,102.709 56.511,102.353 56.897 C 101.997 57.284,101.478 57.600,101.200 57.600 C 100.922 57.600,100.403 57.928,100.047 58.328 C 99.691 58.729,98.320 59.789,97.000 60.684 C 95.680 61.579,94.167 62.691,93.639 63.156 C 93.110 63.620,92.570 64.000,92.439 64.000 C 92.307 64.000,91.456 64.675,90.546 65.500 C 89.637 66.325,88.377 67.406,87.746 67.903 C 86.056 69.234,79.017 75.847,76.438 78.525 C 70.811 84.372,69.711 85.553,68.400 87.161 C 67.630 88.106,66.325 89.625,65.500 90.539 C 64.675 91.452,64.000 92.307,64.000 92.439 C 64.000 92.570,63.620 93.110,63.156 93.639 C 62.691 94.167,61.579 95.680,60.684 97.000 C 59.789 98.320,58.729 99.691,58.328 100.047 C 57.928 100.403,57.600 100.922,57.600 101.200 C 57.600 101.478,57.284 101.997,56.897 102.353 C 56.511 102.709,55.940 103.495,55.630 104.100 C 55.319 104.705,54.915 105.200,54.732 105.200 C 54.550 105.200,54.400 105.520,54.400 105.912 C 54.400 106.303,54.040 106.883,53.600 107.200 C 53.160 107.517,52.800 108.014,52.800 108.305 C 52.800 108.596,52.440 109.220,52.000 109.692 C 51.560 110.164,51.200 110.787,51.200 111.075 C 51.200 111.364,51.064 111.600,50.898 111.600 C 50.731 111.600,50.343 112.185,50.035 112.900 C 49.727 113.615,49.134 114.690,48.719 115.288 C 47.610 116.883,43.600 125.130,43.600 125.814 C 43.600 126.136,43.420 126.400,43.200 126.400 C 42.980 126.400,42.800 126.760,42.800 127.200 C 42.800 127.640,42.620 128.000,42.400 128.000 C 42.180 128.000,42.000 128.253,42.000 128.562 C 42.000 128.871,41.614 129.906,41.143 130.862 C 40.672 131.818,40.132 133.005,39.943 133.500 C 39.754 133.995,39.396 134.895,39.146 135.500 C 38.897 136.105,38.537 137.005,38.346 137.500 C 37.673 139.249,37.103 140.608,36.753 141.295 C 36.559 141.677,36.400 142.341,36.400 142.771 C 36.400 143.201,36.220 143.664,36.000 143.800 C 35.780 143.936,35.600 144.476,35.600 145.000 C 35.600 145.524,35.420 146.064,35.200 146.200 C 34.980 146.336,34.800 146.887,34.800 147.424 C 34.800 147.961,34.620 148.400,34.400 148.400 C 34.180 148.400,34.000 149.030,34.000 149.800 C 34.000 150.570,33.820 151.200,33.600 151.200 C 33.380 151.200,33.200 151.819,33.200 152.576 C 33.200 153.333,33.020 154.064,32.800 154.200 C 32.580 154.336,32.400 154.977,32.400 155.624 C 32.400 156.271,32.238 156.800,32.040 156.800 C 31.842 156.800,31.586 157.565,31.469 158.500 C 31.353 159.435,31.065 161.055,30.829 162.100 C 29.758 166.844,29.536 167.949,29.201 170.200 C 29.004 171.520,28.743 173.230,28.619 174.000 C 28.309 175.940,28.077 177.733,27.712 181.000 C 27.318 184.539,27.301 214.853,27.692 218.600 C 28.101 222.518,28.706 226.976,29.213 229.800 C 29.450 231.120,29.803 233.100,29.999 234.200 C 30.194 235.300,30.560 237.010,30.813 238.000 C 31.065 238.990,31.364 240.565,31.476 241.500 C 31.589 242.435,31.842 243.200,32.040 243.200 C 32.238 243.200,32.400 243.592,32.400 244.072 C 32.400 244.992,33.060 247.328,33.649 248.495 C 33.842 248.877,34.000 249.631,34.000 250.171 C 34.000 250.711,34.180 251.264,34.400 251.400 C 34.620 251.536,34.800 252.177,34.800 252.824 C 34.800 253.471,34.980 254.000,35.200 254.000 C 35.420 254.000,35.600 254.540,35.600 255.200 C 35.600 255.860,35.780 256.400,36.000 256.400 C 36.220 256.400,36.400 256.839,36.400 257.376 C 36.400 257.913,36.580 258.464,36.800 258.600 C 37.020 258.736,37.200 259.197,37.200 259.624 C 37.200 260.051,37.380 260.400,37.600 260.400 C 37.820 260.400,38.000 260.762,38.000 261.205 C 38.000 261.648,38.180 262.368,38.400 262.805 C 38.620 263.242,38.980 263.958,39.200 264.395 C 39.420 264.832,39.600 265.552,39.600 265.995 C 39.600 266.438,39.780 266.800,40.000 266.800 C 40.220 266.800,40.400 267.160,40.400 267.600 C 40.400 268.040,40.580 268.400,40.800 268.400 C 41.020 268.400,41.200 268.850,41.200 269.400 C 41.200 269.950,41.380 270.400,41.600 270.400 C 41.820 270.400,42.000 270.760,42.000 271.200 C 42.000 271.640,42.180 272.000,42.400 272.000 C 42.620 272.000,42.800 272.360,42.800 272.800 C 42.800 273.240,42.958 273.600,43.150 273.600 C 43.343 273.600,43.614 274.168,43.752 274.862 C 43.891 275.556,44.171 276.324,44.374 276.568 C 44.576 276.813,45.683 278.900,46.834 281.206 C 47.984 283.513,49.046 285.490,49.194 285.600 C 49.343 285.710,49.719 286.385,50.030 287.100 C 50.341 287.815,50.731 288.400,50.898 288.400 C 51.064 288.400,51.200 288.636,51.200 288.925 C 51.200 289.213,51.560 289.836,52.000 290.308 C 52.440 290.780,52.800 291.444,52.800 291.783 C 52.800 292.122,52.950 292.400,53.132 292.400 C 53.315 292.400,53.720 292.895,54.032 293.500 C 54.345 294.105,54.915 294.949,55.300 295.375 C 55.685 295.802,56.000 296.387,56.000 296.675 C 56.000 296.964,56.150 297.200,56.332 297.200 C 56.515 297.200,56.919 297.695,57.230 298.300 C 57.540 298.905,58.078 299.670,58.425 300.000 C 58.772 300.330,59.157 300.870,59.281 301.200 C 59.485 301.742,65.793 309.920,66.377 310.400 C 66.511 310.510,67.246 311.404,68.010 312.387 C 71.252 316.556,85.480 330.722,88.400 332.689 C 88.950 333.059,89.877 333.866,90.460 334.481 C 91.044 335.097,91.692 335.600,91.901 335.600 C 92.110 335.600,92.842 336.136,93.527 336.790 C 94.212 337.445,96.534 339.194,98.686 340.678 C 100.839 342.161,102.660 343.515,102.733 343.687 C 102.807 343.859,103.088 344.000,103.358 344.000 C 103.628 344.000,104.207 344.315,104.645 344.700 C 105.083 345.085,105.792 345.597,106.220 345.838 C 108.436 347.081,109.026 347.458,109.755 348.100 C 110.193 348.485,110.787 348.800,111.075 348.800 C 111.364 348.800,111.600 348.980,111.600 349.200 C 111.600 349.420,111.960 349.600,112.400 349.600 C 112.840 349.600,113.200 349.780,113.200 350.000 C 113.200 350.220,113.470 350.400,113.800 350.400 C 114.130 350.400,114.401 350.535,114.403 350.700 C 114.405 350.865,114.810 351.202,115.303 351.450 C 115.796 351.697,118.270 352.963,120.800 354.263 C 123.330 355.564,125.490 356.657,125.600 356.692 C 126.211 356.887,130.706 358.871,131.295 359.205 C 131.677 359.422,132.262 359.600,132.595 359.600 C 132.928 359.600,133.200 359.780,133.200 360.000 C 133.200 360.220,133.562 360.400,134.005 360.400 C 134.783 360.400,135.169 360.542,137.095 361.538 C 137.587 361.792,138.352 362.000,138.795 362.000 C 139.238 362.000,139.600 362.180,139.600 362.400 C 139.600 362.620,139.949 362.800,140.376 362.800 C 140.803 362.800,141.264 362.980,141.400 363.200 C 141.536 363.420,142.076 363.600,142.600 363.600 C 143.124 363.600,143.664 363.780,143.800 364.000 C 143.936 364.220,144.476 364.400,145.000 364.400 C 145.524 364.400,146.064 364.580,146.200 364.800 C 146.336 365.020,146.887 365.200,147.424 365.200 C 147.961 365.200,148.400 365.380,148.400 365.600 C 148.400 365.820,149.030 366.000,149.800 366.000 C 150.570 366.000,151.200 366.160,151.200 366.356 C 151.200 366.552,151.785 366.809,152.500 366.928 C 154.670 367.287,156.159 367.643,157.000 368.003 C 157.440 368.191,158.340 368.437,159.000 368.548 C 159.660 368.660,161.010 368.953,162.000 369.200 C 164.883 369.921,168.897 370.660,175.200 371.631 C 181.731 372.637,187.955 372.974,200.200 372.983 C 212.586 372.992,216.715 372.761,225.000 371.595 C 226.540 371.378,228.838 371.089,230.106 370.952 C 231.375 370.815,232.511 370.545,232.630 370.351 C 232.749 370.158,233.546 370.000,234.400 370.000 C 235.254 370.000,236.064 369.820,236.200 369.600 C 236.336 369.380,237.146 369.200,238.000 369.200 C 238.854 369.200,239.664 369.020,239.800 368.800 C 239.936 368.580,240.757 368.400,241.624 368.400 C 242.491 368.400,243.200 368.220,243.200 368.000 C 243.200 367.780,243.819 367.600,244.576 367.600 C 245.333 367.600,246.064 367.420,246.200 367.200 C 246.336 366.980,246.977 366.800,247.624 366.800 C 248.271 366.800,248.800 366.620,248.800 366.400 C 248.800 366.180,249.430 366.000,250.200 366.000 C 250.970 366.000,251.600 365.820,251.600 365.600 C 251.600 365.380,252.140 365.200,252.800 365.200 C 253.460 365.200,254.000 365.020,254.000 364.800 C 254.000 364.580,254.540 364.400,255.200 364.400 C 255.860 364.400,256.400 364.220,256.400 364.000 C 256.400 363.780,256.762 363.600,257.205 363.600 C 257.983 363.600,258.369 363.458,260.295 362.462 C 260.787 362.208,261.552 362.000,261.995 362.000 C 262.438 362.000,262.800 361.820,262.800 361.600 C 262.800 361.380,263.149 361.200,263.576 361.200 C 264.003 361.200,264.464 361.020,264.600 360.800 C 264.736 360.580,265.287 360.400,265.824 360.400 C 266.361 360.400,266.800 360.220,266.800 360.000 C 266.800 359.780,267.072 359.600,267.405 359.600 C 267.738 359.600,268.323 359.437,268.705 359.238 C 270.984 358.052,275.726 356.000,276.188 356.000 C 276.488 356.000,276.793 355.865,276.867 355.700 C 276.940 355.535,278.620 354.590,280.600 353.601 C 282.580 352.612,284.952 351.307,285.872 350.701 C 286.792 350.095,287.659 349.600,287.800 349.600 C 287.941 349.600,288.841 349.060,289.800 348.400 C 290.759 347.740,291.654 347.200,291.789 347.200 C 291.923 347.200,292.420 346.840,292.892 346.400 C 293.364 345.960,293.987 345.600,294.275 345.600 C 294.564 345.600,294.800 345.420,294.800 345.200 C 294.800 344.980,295.070 344.800,295.400 344.800 C 295.730 344.800,296.000 344.620,296.000 344.400 C 296.000 344.180,296.270 344.000,296.600 344.000 C 296.930 344.000,297.200 343.850,297.200 343.668 C 297.200 343.485,297.695 343.080,298.300 342.768 C 298.905 342.456,299.490 342.106,299.600 341.991 C 299.710 341.875,301.285 340.721,303.100 339.426 C 304.915 338.131,306.400 336.920,306.400 336.736 C 306.400 336.551,306.626 336.400,306.902 336.400 C 307.178 336.400,308.123 335.724,309.002 334.897 C 309.881 334.070,311.201 332.967,311.935 332.445 C 315.168 330.146,330.146 315.168,332.445 311.935 C 332.967 311.201,334.070 309.881,334.897 309.002 C 335.724 308.123,336.400 307.178,336.400 306.902 C 336.400 306.626,336.551 306.400,336.736 306.400 C 336.920 306.400,338.131 304.915,339.426 303.100 C 340.721 301.285,341.875 299.710,341.991 299.600 C 342.106 299.490,342.456 298.905,342.768 298.300 C 343.080 297.695,343.485 297.200,343.668 297.200 C 343.850 297.200,344.000 296.930,344.000 296.600 C 344.000 296.270,344.180 296.000,344.400 296.000 C 344.620 296.000,344.800 295.730,344.800 295.400 C 344.800 295.070,344.980 294.800,345.200 294.800 C 345.420 294.800,345.600 294.564,345.600 294.275 C 345.600 293.987,345.960 293.364,346.400 292.892 C 346.840 292.420,347.200 291.923,347.200 291.789 C 347.200 291.654,347.740 290.759,348.400 289.800 C 349.060 288.841,349.600 287.941,349.600 287.800 C 349.600 287.659,350.103 286.792,350.719 285.872 C 351.334 284.952,352.637 282.580,353.615 280.600 C 354.593 278.620,355.529 276.940,355.696 276.867 C 355.863 276.793,356.000 276.512,356.000 276.242 C 356.000 275.971,356.336 275.041,356.747 274.175 C 357.158 273.309,357.804 271.880,358.181 271.000 C 358.558 270.120,359.032 269.087,359.234 268.705 C 359.435 268.323,359.600 267.738,359.600 267.405 C 359.600 267.072,359.780 266.800,360.000 266.800 C 360.220 266.800,360.400 266.361,360.400 265.824 C 360.400 265.287,360.580 264.736,360.800 264.600 C 361.020 264.464,361.200 264.003,361.200 263.576 C 361.200 263.149,361.380 262.800,361.600 262.800 C 361.820 262.800,362.000 262.438,362.000 261.995 C 362.000 261.552,362.208 260.787,362.462 260.295 C 363.456 258.374,363.600 257.984,363.600 257.229 C 363.600 256.799,363.780 256.336,364.000 256.200 C 364.220 256.064,364.400 255.513,364.400 254.976 C 364.400 254.439,364.580 254.000,364.800 254.000 C 365.020 254.000,365.200 253.460,365.200 252.800 C 365.200 252.140,365.380 251.600,365.600 251.600 C 365.820 251.600,366.000 250.970,366.000 250.200 C 366.000 249.430,366.180 248.800,366.400 248.800 C 366.620 248.800,366.800 248.271,366.800 247.624 C 366.800 246.977,366.980 246.336,367.200 246.200 C 367.420 246.064,367.600 245.344,367.600 244.600 C 367.600 243.856,367.780 243.136,368.000 243.000 C 368.220 242.864,368.400 242.144,368.400 241.400 C 368.400 240.656,368.580 239.936,368.800 239.800 C 369.020 239.664,369.200 238.854,369.200 238.000 C 369.200 237.146,369.380 236.336,369.600 236.200 C 369.820 236.064,370.000 235.254,370.000 234.400 C 370.000 233.546,370.158 232.749,370.351 232.630 C 370.545 232.511,370.815 231.375,370.952 230.106 C 371.089 228.838,371.384 226.540,371.608 225.000 C 373.531 211.794,373.542 187.601,371.631 175.200 C 370.660 168.897,369.921 164.883,369.200 162.000 C 368.953 161.010,368.660 159.660,368.548 159.000 C 368.437 158.340,368.191 157.440,368.003 157.000 C 367.643 156.159,367.287 154.670,366.928 152.500 C 366.809 151.785,366.552 151.200,366.356 151.200 C 366.160 151.200,366.000 150.570,366.000 149.800 C 366.000 149.030,365.820 148.400,365.600 148.400 C 365.380 148.400,365.200 147.961,365.200 147.424 C 365.200 146.887,365.020 146.336,364.800 146.200 C 364.580 146.064,364.400 145.524,364.400 145.000 C 364.400 144.476,364.220 143.936,364.000 143.800 C 363.780 143.664,363.600 143.124,363.600 142.600 C 363.600 142.076,363.420 141.536,363.200 141.400 C 362.980 141.264,362.800 140.803,362.800 140.376 C 362.800 139.949,362.620 139.600,362.400 139.600 C 362.180 139.600,362.000 139.238,362.000 138.795 C 362.000 138.352,361.820 137.632,361.600 137.195 C 361.380 136.758,361.020 136.042,360.800 135.605 C 360.580 135.168,360.400 134.448,360.400 134.005 C 360.400 133.562,360.220 133.200,360.000 133.200 C 359.780 133.200,359.600 132.928,359.600 132.595 C 359.600 132.262,359.422 131.677,359.205 131.295 C 358.870 130.704,357.054 126.589,356.732 125.692 C 356.675 125.531,355.564 123.330,354.263 120.800 C 352.963 118.270,351.697 115.796,351.450 115.303 C 351.202 114.810,350.865 114.405,350.700 114.403 C 350.535 114.401,350.400 114.130,350.400 113.800 C 350.400 113.470,350.220 113.200,350.000 113.200 C 349.780 113.200,349.600 112.840,349.600 112.400 C 349.600 111.960,349.420 111.600,349.200 111.600 C 348.980 111.600,348.800 111.364,348.800 111.075 C 348.800 110.787,348.485 110.193,348.100 109.755 C 347.458 109.026,347.081 108.436,345.838 106.220 C 345.597 105.792,345.085 105.083,344.700 104.645 C 344.315 104.207,344.000 103.628,344.000 103.358 C 344.000 103.088,343.859 102.807,343.687 102.733 C 343.515 102.660,342.161 100.839,340.678 98.686 C 339.194 96.534,337.445 94.212,336.790 93.527 C 336.136 92.842,335.600 92.110,335.600 91.901 C 335.600 91.692,335.097 91.044,334.481 90.460 C 333.866 89.877,333.059 88.950,332.689 88.400 C 330.726 85.485,316.519 71.215,312.390 68.010 C 311.406 67.246,310.510 66.511,310.400 66.377 C 309.920 65.793,301.742 59.485,301.200 59.281 C 300.870 59.157,300.330 58.772,300.000 58.425 C 299.670 58.078,298.905 57.540,298.300 57.230 C 297.695 56.919,297.200 56.515,297.200 56.332 C 297.200 56.150,296.964 56.000,296.675 56.000 C 296.387 56.000,295.802 55.685,295.375 55.300 C 294.949 54.915,294.105 54.345,293.500 54.032 C 292.895 53.720,292.400 53.315,292.400 53.132 C 292.400 52.950,292.122 52.800,291.783 52.800 C 291.444 52.800,290.780 52.440,290.308 52.000 C 289.836 51.560,289.213 51.200,288.925 51.200 C 288.636 51.200,288.400 51.054,288.400 50.875 C 288.400 50.696,287.770 50.302,287.000 50.000 C 286.230 49.698,285.600 49.304,285.600 49.125 C 285.600 48.946,285.403 48.800,285.162 48.800 C 284.921 48.800,284.246 48.479,283.662 48.087 C 283.078 47.694,281.430 46.846,280.000 46.203 C 278.570 45.559,277.118 44.802,276.774 44.521 C 276.429 44.240,275.574 43.895,274.874 43.755 C 274.173 43.615,273.600 43.343,273.600 43.150 C 273.600 42.958,273.240 42.800,272.800 42.800 C 272.360 42.800,272.000 42.620,272.000 42.400 C 272.000 42.180,271.640 42.000,271.200 42.000 C 270.760 42.000,270.400 41.820,270.400 41.600 C 270.400 41.380,269.950 41.200,269.400 41.200 C 268.850 41.200,268.400 41.020,268.400 40.800 C 268.400 40.580,268.040 40.400,267.600 40.400 C 267.160 40.400,266.800 40.220,266.800 40.000 C 266.800 39.780,266.438 39.600,265.995 39.600 C 265.552 39.600,264.787 39.392,264.295 39.138 C 262.369 38.142,261.983 38.000,261.205 38.000 C 260.762 38.000,260.400 37.820,260.400 37.600 C 260.400 37.380,260.051 37.200,259.624 37.200 C 259.197 37.200,258.736 37.020,258.600 36.800 C 258.464 36.580,257.913 36.400,257.376 36.400 C 256.839 36.400,256.400 36.220,256.400 36.000 C 256.400 35.780,255.860 35.600,255.200 35.600 C 254.540 35.600,254.000 35.420,254.000 35.200 C 254.000 34.980,253.471 34.800,252.824 34.800 C 252.177 34.800,251.536 34.620,251.400 34.400 C 251.264 34.180,250.711 34.000,250.171 34.000 C 249.631 34.000,248.877 33.842,248.495 33.649 C 247.328 33.060,244.992 32.400,244.072 32.400 C 243.592 32.400,243.200 32.238,243.200 32.040 C 243.200 31.842,242.435 31.589,241.500 31.476 C 240.565 31.364,238.990 31.065,238.000 30.813 C 237.010 30.560,235.300 30.197,234.200 30.005 C 233.100 29.814,230.670 29.389,228.800 29.062 C 226.930 28.734,224.230 28.341,222.800 28.187 C 221.370 28.033,219.840 27.809,219.400 27.690 C 218.416 27.423,184.277 27.064,183.999 27.317 M157.000 130.400 C 157.136 130.620,157.687 130.800,158.224 130.800 C 158.761 130.800,159.200 130.941,159.200 131.114 C 159.200 131.286,159.733 131.743,160.385 132.128 C 161.765 132.943,161.853 133.028,164.958 136.558 C 166.255 138.033,169.225 141.187,171.558 143.568 C 173.891 145.949,176.366 148.595,177.057 149.449 C 177.749 150.302,180.674 153.398,183.557 156.330 C 186.441 159.261,188.800 161.837,188.800 162.053 C 188.800 162.270,188.966 162.344,189.170 162.219 C 189.373 162.093,189.598 162.244,189.670 162.554 C 189.885 163.484,199.271 173.200,199.954 173.200 C 200.589 173.200,206.436 167.359,209.150 164.014 C 209.948 163.031,212.220 160.590,214.200 158.589 C 216.180 156.589,219.420 153.178,221.400 151.010 C 223.380 148.843,226.530 145.493,228.400 143.568 C 230.270 141.642,233.596 138.162,235.791 135.833 C 237.986 133.505,240.011 131.600,240.291 131.600 C 240.571 131.600,240.800 131.420,240.800 131.200 C 240.800 130.980,241.340 130.800,242.000 130.800 C 242.660 130.800,243.200 130.620,243.200 130.400 C 243.200 130.180,243.650 130.000,244.200 130.000 C 244.750 130.000,245.200 130.180,245.200 130.400 C 245.200 130.620,245.630 130.800,246.155 130.800 C 247.115 130.800,248.828 132.304,253.680 137.404 C 254.934 138.722,256.464 140.252,257.080 140.805 C 257.696 141.357,259.010 142.791,260.000 143.991 C 260.990 145.191,262.130 146.539,262.534 146.986 C 264.048 148.665,264.527 150.148,264.509 153.102 C 264.487 156.689,264.378 156.850,256.045 165.537 C 254.640 167.002,251.940 169.901,250.045 171.979 C 248.150 174.057,244.384 178.038,241.675 180.826 C 238.966 183.613,236.450 186.322,236.083 186.847 C 235.716 187.371,234.512 188.717,233.408 189.837 C 227.267 196.067,224.800 198.875,224.800 199.635 C 224.800 200.477,226.378 202.306,232.218 208.229 C 233.988 210.024,236.227 212.438,237.194 213.593 C 238.161 214.748,240.555 217.337,242.515 219.346 C 244.474 221.356,247.455 224.518,249.139 226.373 C 250.822 228.229,253.775 231.329,255.700 233.263 C 257.625 235.196,259.200 236.881,259.200 237.007 C 259.200 237.133,259.605 237.650,260.100 238.157 C 262.364 240.472,263.600 242.025,263.600 242.556 C 263.600 242.874,263.789 243.196,264.021 243.274 C 265.574 243.791,264.313 250.196,262.184 252.600 C 261.600 253.260,260.554 254.497,259.861 255.348 C 257.444 258.316,248.005 267.600,247.405 267.600 C 247.072 267.600,246.800 267.739,246.800 267.909 C 246.800 268.079,245.990 268.406,245.000 268.636 C 244.010 268.865,243.200 268.906,243.200 268.727 C 243.200 268.547,242.660 268.400,242.000 268.400 C 241.340 268.400,240.800 268.220,240.800 268.000 C 240.800 267.780,240.571 267.600,240.290 267.600 C 240.010 267.600,238.345 266.066,236.590 264.190 C 234.836 262.315,231.600 258.930,229.400 256.668 C 227.200 254.407,224.140 251.138,222.600 249.404 C 221.060 247.671,218.000 244.414,215.800 242.168 C 213.600 239.921,210.900 237.047,209.800 235.780 C 206.508 231.991,200.480 226.000,199.959 226.000 C 199.455 226.000,192.653 232.846,188.800 237.230 C 187.590 238.607,185.610 240.757,184.400 242.007 C 179.424 247.148,176.400 250.394,176.400 250.595 C 176.400 250.712,174.195 253.045,171.500 255.780 C 168.805 258.515,165.249 262.158,163.598 263.876 C 159.768 267.862,159.055 268.400,157.595 268.400 C 156.938 268.400,156.400 268.586,156.400 268.814 C 156.400 269.100,156.160 269.100,155.626 268.814 C 155.201 268.586,154.391 268.400,153.826 268.400 C 153.262 268.400,152.800 268.262,152.800 268.094 C 152.800 267.926,152.080 267.344,151.200 266.800 C 150.320 266.256,149.600 265.685,149.600 265.531 C 149.600 265.376,147.755 263.370,145.500 261.071 C 138.303 253.734,135.600 250.298,135.600 248.485 C 135.600 248.086,135.389 247.549,135.131 247.291 C 134.772 246.932,134.772 246.580,135.131 245.792 C 135.389 245.226,135.600 244.366,135.600 243.881 C 135.601 243.397,136.006 242.515,136.500 241.922 C 136.995 241.329,137.790 240.339,138.267 239.722 C 138.743 239.105,141.146 236.530,143.606 234.000 C 146.066 231.470,148.628 228.710,149.299 227.867 C 149.970 227.024,152.743 224.104,155.460 221.379 C 158.177 218.654,160.400 216.348,160.400 216.254 C 160.400 215.929,162.612 213.484,166.400 209.622 C 172.370 203.536,175.200 200.298,175.200 199.556 C 175.200 198.872,172.428 195.746,166.000 189.183 C 164.130 187.274,161.430 184.410,160.000 182.819 C 158.570 181.228,156.050 178.546,154.400 176.859 C 152.750 175.172,150.747 172.984,149.949 171.996 C 149.152 171.008,146.902 168.575,144.949 166.588 C 137.254 158.757,136.367 157.586,135.184 153.688 C 134.787 152.381,134.775 151.865,135.132 151.508 C 135.389 151.251,135.600 150.536,135.600 149.920 C 135.600 149.304,135.735 148.799,135.900 148.797 C 136.065 148.796,136.650 148.122,137.200 147.299 C 138.416 145.482,138.641 145.227,143.517 140.181 C 145.653 137.971,148.120 135.361,149.000 134.381 C 149.880 133.401,151.095 132.345,151.700 132.032 C 152.305 131.720,152.800 131.315,152.800 131.132 C 152.800 130.950,153.329 130.800,153.976 130.800 C 154.623 130.800,155.264 130.620,155.400 130.400 C 155.536 130.180,155.896 130.000,156.200 130.000 C 156.504 130.000,156.864 130.180,157.000 130.400 " stroke="none" fill="#67c100" fill-rule="evenodd"></path><path id="path4" d="" stroke="none" fill="#00ff00" fill-rule="evenodd"></path></g></svg>