<svg id="svg" version="1.1" width="400" height="848.6486486486486" viewBox="0 0 400 848.6486486486486" xmlns="http://www.w3.org/2000/svg" xmlns:xlink="http://www.w3.org/1999/xlink" ><g id="svgg"><path id="path0" d="M257.800 12.291 C 255.380 12.357,247.751 12.665,240.846 12.975 L 228.292 13.540 227.238 14.694 C 225.406 16.699,218.180 18.397,211.448 18.403 C 206.154 18.409,203.584 18.783,203.265 19.595 C 202.181 22.359,201.315 22.696,191.353 24.225 C 190.660 24.331,189.469 25.035,188.673 25.808 C 187.885 26.574,186.961 27.200,186.620 27.200 C 186.279 27.200,186.000 27.375,186.000 27.589 C 186.000 28.162,182.234 29.117,178.796 29.415 L 175.793 29.676 175.196 31.527 L 174.600 33.379 170.788 34.389 C 167.193 35.342,164.000 37.438,164.000 38.844 C 164.000 39.258,161.647 40.000,160.336 40.000 C 159.349 40.000,159.063 40.281,158.249 42.052 C 157.408 43.883,157.096 44.174,155.363 44.752 C 153.935 45.228,153.098 45.839,152.210 47.053 C 151.544 47.963,150.460 49.007,149.800 49.374 C 149.140 49.740,148.105 50.311,147.500 50.642 C 146.895 50.973,146.400 51.424,146.400 51.644 C 146.400 52.067,141.585 56.780,141.140 56.793 C 140.670 56.806,138.047 59.622,137.811 60.366 C 137.684 60.767,137.224 61.416,136.790 61.809 C 136.355 62.202,136.000 62.840,136.000 63.226 C 136.000 63.951,133.868 66.000,133.113 66.000 C 132.422 66.000,131.626 67.318,131.613 68.484 C 131.598 69.721,130.055 71.367,128.141 72.186 C 127.081 72.640,126.814 73.043,126.449 74.745 C 126.103 76.359,125.587 77.202,123.887 78.929 C 121.622 81.230,120.800 83.098,120.800 85.942 C 120.800 87.539,117.795 92.400,116.808 92.400 C 116.623 92.400,116.267 93.705,116.017 95.300 C 114.931 102.219,114.112 104.625,112.655 105.179 C 111.102 105.769,110.905 106.455,110.226 113.600 C 109.378 122.541,109.030 124.026,107.037 127.196 L 105.400 129.800 105.200 204.400 C 104.981 285.924,105.137 280.626,102.902 282.482 C 102.402 282.897,93.375 283.040,57.639 283.200 L 13.000 283.400 13.000 353.680 C 13.000 407.275,13.112 424.073,13.474 424.434 C 13.832 424.792,24.724 424.918,58.274 424.954 C 107.968 425.006,105.632 424.870,108.143 427.858 L 109.200 429.115 109.200 638.758 L 109.200 848.400 193.997 848.400 L 278.793 848.400 278.897 637.300 L 279.000 426.200 279.882 424.550 C 280.368 423.643,281.318 422.435,281.994 421.866 L 283.224 420.832 335.702 420.809 C 390.051 420.785,392.238 420.740,392.587 419.642 C 392.818 418.912,393.342 413.044,394.180 401.800 C 394.703 394.781,395.363 391.087,396.311 389.881 C 396.519 389.617,396.808 388.905,396.952 388.300 C 397.177 387.361,397.419 387.200,398.608 387.200 L 400.000 387.200 400.000 335.200 L 400.000 283.200 341.100 283.198 C 280.712 283.195,278.466 283.140,276.500 281.593 C 274.118 279.719,274.235 282.416,274.367 232.169 C 274.495 183.849,274.515 183.298,276.262 181.444 C 276.700 180.980,277.174 180.285,277.316 179.900 C 277.459 179.515,277.838 179.200,278.159 179.200 C 278.573 179.200,278.816 178.533,278.996 176.900 C 279.136 175.635,279.337 174.130,279.444 173.556 C 279.669 172.352,281.434 170.544,282.589 170.336 C 283.105 170.242,283.615 169.552,284.067 168.337 C 284.446 167.316,285.173 166.057,285.682 165.540 C 286.191 165.023,287.056 164.030,287.604 163.332 C 288.768 161.851,292.065 160.003,293.560 159.994 C 294.946 159.986,295.424 159.616,295.746 158.300 C 295.894 157.695,296.192 157.200,296.408 157.200 C 296.623 157.200,296.800 156.952,296.800 156.649 C 296.800 155.771,298.640 155.308,304.000 154.835 C 308.249 154.460,309.082 154.274,309.549 153.597 C 309.851 153.159,310.248 152.800,310.431 152.800 C 310.614 152.800,311.391 152.375,312.158 151.855 C 314.169 150.490,320.430 149.894,331.572 150.009 C 336.537 150.060,353.965 150.079,370.300 150.051 L 400.000 150.000 400.000 81.000 L 400.000 12.000 331.100 12.085 C 293.205 12.132,260.220 12.224,257.800 12.291 " stroke="none" fill="#ffffff" fill-rule="evenodd"></path><path id="path1" d="M0.000 424.200 L 0.000 848.400 50.802 848.400 L 101.605 848.400 101.502 639.220 C 101.423 477.911,101.291 429.931,100.923 429.563 C 100.559 429.199,90.240 429.106,57.183 429.170 C 8.096 429.265,10.971 429.438,8.148 426.213 L 6.386 424.200 6.628 421.200 C 6.760 419.550,7.046 417.618,7.263 416.907 C 7.819 415.085,7.747 411.686,7.114 409.800 C 6.658 408.443,6.665 407.823,7.162 405.711 C 7.660 403.598,7.669 402.740,7.227 400.017 C 6.941 398.253,6.818 395.863,6.953 394.705 C 7.473 390.275,7.346 288.327,6.819 286.000 L 6.320 283.800 8.260 281.760 C 9.327 280.637,10.593 279.512,11.074 279.260 C 11.716 278.922,23.128 278.800,54.101 278.800 C 90.408 278.800,96.535 278.717,98.275 278.200 L 100.296 277.600 100.737 275.300 C 101.048 273.678,101.175 252.544,101.167 203.600 C 101.154 118.856,101.284 115.438,104.593 113.930 C 105.625 113.460,105.950 112.219,107.148 104.154 C 107.886 99.187,109.002 96.400,110.253 96.400 C 111.024 96.400,112.000 94.018,112.000 92.139 C 112.000 88.624,114.163 84.000,115.808 84.000 C 116.082 84.000,116.403 83.685,116.520 83.300 C 116.637 82.915,117.108 81.613,117.566 80.406 C 118.025 79.199,118.400 77.838,118.400 77.382 C 118.400 76.159,119.334 75.093,120.855 74.582 C 121.722 74.291,122.297 73.788,122.472 73.165 C 123.490 69.553,123.791 68.729,124.180 68.480 C 124.422 68.326,124.934 67.705,125.319 67.100 C 125.704 66.495,126.239 65.995,126.509 65.989 C 127.057 65.977,128.458 63.851,129.605 61.289 C 130.021 60.360,130.626 59.600,130.950 59.600 C 131.894 59.600,133.888 57.699,134.185 56.517 C 134.523 55.171,136.529 53.200,137.561 53.200 C 138.492 53.200,140.400 51.034,140.400 49.976 C 140.400 49.464,141.049 48.885,142.375 48.213 C 143.780 47.500,144.758 46.596,145.771 45.071 C 146.884 43.394,147.537 42.826,148.782 42.453 C 149.874 42.125,150.898 41.353,152.049 39.988 C 152.971 38.895,153.908 38.000,154.131 38.000 C 154.354 38.000,154.866 37.702,155.268 37.338 C 155.670 36.974,156.855 36.461,157.900 36.198 C 159.027 35.913,159.963 35.404,160.200 34.944 C 161.281 32.851,162.393 31.925,164.086 31.709 C 166.444 31.408,167.923 30.604,169.800 28.604 C 171.089 27.231,171.827 26.810,173.600 26.440 C 176.575 25.818,179.163 24.729,179.399 24.000 C 179.941 22.325,182.346 21.157,186.040 20.775 C 192.202 20.137,193.728 19.623,194.422 17.948 C 195.064 16.396,196.626 15.784,200.806 15.444 C 206.875 14.951,211.065 13.999,211.606 12.989 C 212.928 10.519,217.029 9.622,227.057 9.610 C 235.735 9.599,240.699 8.942,242.200 7.606 C 245.286 4.858,246.709 4.813,329.700 4.806 L 400.000 4.800 400.000 2.400 L 400.000 0.000 200.000 0.000 L 0.000 0.000 0.000 424.200 M327.800 157.597 C 306.700 158.017,303.479 158.383,302.351 160.491 C 301.319 162.420,299.880 163.220,296.400 163.803 C 293.848 164.230,293.783 164.271,292.891 166.076 C 292.150 167.574,291.733 167.961,290.646 168.165 C 288.999 168.474,288.207 169.324,287.630 171.400 C 287.073 173.407,286.014 174.687,284.766 174.864 C 283.679 175.017,283.742 174.787,282.411 183.526 C 281.638 188.603,281.599 190.738,281.583 229.126 C 281.573 251.277,281.410 270.205,281.220 271.189 C 280.902 272.837,280.982 273.139,282.237 275.030 L 283.600 277.083 285.700 276.886 C 286.855 276.778,288.117 276.574,288.504 276.434 C 288.891 276.294,290.691 276.287,292.504 276.419 C 294.317 276.550,319.245 276.693,347.900 276.736 L 400.000 276.815 400.000 217.207 L 400.000 157.600 373.459 157.600 C 358.861 157.600,345.856 157.535,344.559 157.455 C 343.261 157.376,335.720 157.440,327.800 157.597 M395.400 427.352 L 393.800 428.200 341.200 428.200 C 312.270 428.200,287.520 428.062,286.200 427.892 C 283.975 427.607,283.756 427.651,283.200 428.492 C 282.668 429.297,282.612 453.231,282.704 638.900 L 282.808 848.400 341.404 848.400 L 400.000 848.400 400.000 637.400 L 400.000 426.400 398.500 426.452 C 397.675 426.481,396.280 426.886,395.400 427.352 " stroke="none" fill="#3c5a9a" fill-rule="evenodd"></path><path id="path2" d="M251.309 5.244 C 245.546 5.574,244.044 5.964,242.200 7.606 C 240.699 8.942,235.735 9.599,227.057 9.610 C 217.029 9.622,212.928 10.519,211.606 12.989 C 211.065 13.999,206.875 14.951,200.806 15.444 C 196.626 15.784,195.064 16.396,194.422 17.948 C 193.728 19.623,192.202 20.137,186.040 20.775 C 182.346 21.157,179.941 22.325,179.399 24.000 C 179.163 24.729,176.575 25.818,173.600 26.440 C 171.827 26.810,171.089 27.231,169.800 28.604 C 167.923 30.604,166.444 31.408,164.086 31.709 C 162.393 31.925,161.281 32.851,160.200 34.944 C 159.963 35.404,159.027 35.913,157.900 36.198 C 156.855 36.461,155.670 36.974,155.268 37.338 C 154.866 37.702,154.354 38.000,154.131 38.000 C 153.908 38.000,152.971 38.895,152.049 39.988 C 150.898 41.353,149.874 42.125,148.782 42.453 C 147.537 42.826,146.884 43.394,145.771 45.071 C 144.758 46.596,143.780 47.500,142.375 48.213 C 141.049 48.885,140.400 49.464,140.400 49.976 C 140.400 51.034,138.492 53.200,137.561 53.200 C 136.529 53.200,134.523 55.171,134.185 56.517 C 133.888 57.699,131.894 59.600,130.950 59.600 C 130.626 59.600,130.021 60.360,129.605 61.289 C 128.458 63.851,127.057 65.977,126.509 65.989 C 126.239 65.995,125.704 66.495,125.319 67.100 C 124.934 67.705,124.422 68.326,124.180 68.480 C 123.791 68.729,123.490 69.553,122.472 73.165 C 122.297 73.788,121.722 74.291,120.855 74.582 C 119.334 75.093,118.400 76.159,118.400 77.382 C 118.400 77.838,118.025 79.199,117.566 80.406 C 117.108 81.613,116.637 82.915,116.520 83.300 C 116.403 83.685,116.082 84.000,115.808 84.000 C 114.163 84.000,112.000 88.624,112.000 92.139 C 112.000 94.018,111.024 96.400,110.253 96.400 C 109.002 96.400,107.886 99.187,107.148 104.154 C 105.950 112.219,105.625 113.460,104.593 113.930 C 101.284 115.438,101.154 118.856,101.167 203.600 C 101.175 252.544,101.048 273.678,100.737 275.300 L 100.296 277.600 98.275 278.200 C 96.535 278.717,90.408 278.800,54.101 278.800 C 23.128 278.800,11.716 278.922,11.074 279.260 C 10.593 279.512,9.327 280.637,8.260 281.760 L 6.320 283.800 6.819 286.000 C 7.346 288.327,7.473 390.275,6.953 394.705 C 6.818 395.863,6.941 398.253,7.227 400.017 C 7.669 402.740,7.660 403.598,7.162 405.711 C 6.665 407.823,6.658 408.443,7.114 409.800 C 7.747 411.686,7.819 415.085,7.263 416.907 C 7.046 417.618,6.760 419.550,6.628 421.200 L 6.386 424.200 8.148 426.213 C 10.971 429.438,8.096 429.265,57.183 429.170 C 90.240 429.106,100.559 429.199,100.923 429.563 C 101.291 429.931,101.423 477.911,101.502 639.220 L 101.605 848.400 102.554 848.400 L 103.504 848.400 103.781 821.100 C 103.934 806.085,104.000 711.990,103.929 612.000 C 103.792 419.141,103.889 428.400,102.010 428.400 C 101.590 428.400,101.136 428.220,101.000 428.000 C 100.838 427.737,85.740 427.600,57.007 427.600 L 13.262 427.600 11.531 426.280 L 9.800 424.959 9.697 354.161 L 9.595 283.362 11.019 281.981 L 12.444 280.600 56.399 280.495 L 100.353 280.390 101.276 279.095 L 102.200 277.800 102.468 206.800 C 102.715 141.187,102.978 124.305,103.784 122.200 C 103.953 121.760,104.680 120.140,105.400 118.600 C 107.019 115.135,107.426 113.602,107.985 108.856 C 108.228 106.796,108.690 104.479,109.013 103.707 C 109.336 102.934,109.607 102.009,109.616 101.651 C 109.625 101.293,110.165 100.377,110.816 99.615 C 111.467 98.853,112.000 97.944,112.000 97.595 C 112.000 97.246,112.166 96.789,112.369 96.580 C 112.840 96.095,114.000 91.606,114.000 90.269 C 114.000 89.648,114.783 88.278,116.013 86.745 C 117.120 85.365,118.130 83.779,118.257 83.218 C 119.127 79.382,120.209 77.246,122.079 75.672 C 122.719 75.134,123.776 73.636,124.429 72.343 C 125.081 71.050,126.170 69.499,126.849 68.896 C 127.527 68.293,128.422 67.135,128.837 66.323 C 130.029 63.993,131.478 62.002,133.308 60.181 C 135.482 58.018,135.886 57.488,136.064 56.564 C 136.144 56.147,136.698 55.572,137.294 55.286 C 138.551 54.684,140.574 52.778,141.988 50.863 C 142.532 50.128,143.611 49.202,144.388 48.806 C 145.165 48.409,146.393 47.346,147.118 46.443 C 147.843 45.540,149.004 44.508,149.699 44.149 C 150.393 43.790,151.208 43.250,151.509 42.948 C 151.810 42.647,152.277 42.400,152.545 42.400 C 152.814 42.400,153.822 41.596,154.786 40.614 C 155.751 39.631,157.456 38.394,158.575 37.864 C 159.695 37.334,161.329 36.171,162.206 35.281 C 163.714 33.749,168.025 31.600,169.590 31.600 C 169.949 31.600,170.863 30.954,171.622 30.165 C 173.230 28.491,175.215 27.404,177.236 27.093 C 178.682 26.870,182.444 24.821,183.647 23.603 C 184.003 23.242,185.893 22.629,187.847 22.239 C 189.801 21.849,191.850 21.381,192.400 21.198 C 192.950 21.015,193.881 20.760,194.469 20.633 C 195.057 20.505,196.047 19.981,196.669 19.469 C 198.829 17.691,201.332 16.805,205.235 16.435 C 207.306 16.239,210.080 15.689,211.400 15.214 C 212.720 14.739,214.250 14.248,214.800 14.123 C 215.350 13.998,216.070 13.686,216.400 13.431 C 217.808 12.339,219.413 12.028,226.800 11.410 C 235.901 10.649,242.607 9.830,248.200 8.798 C 256.255 7.311,263.298 7.174,329.200 7.222 C 364.290 7.248,394.575 7.254,396.500 7.235 L 400.000 7.200 400.000 6.000 L 400.000 4.800 328.500 4.859 C 289.175 4.891,254.439 5.065,251.309 5.244 M321.800 155.211 C 319.160 155.372,315.650 155.779,314.000 156.117 C 312.350 156.454,309.388 156.860,307.417 157.019 C 305.446 157.178,303.376 157.516,302.817 157.770 C 301.014 158.588,298.877 160.023,298.674 160.551 C 298.566 160.833,297.359 161.472,295.993 161.970 C 294.241 162.609,292.963 163.435,291.655 164.773 C 290.635 165.817,289.230 167.061,288.534 167.538 C 287.838 168.015,286.861 169.259,286.363 170.303 C 285.865 171.346,285.240 172.332,284.974 172.494 C 282.926 173.743,281.600 175.736,281.600 177.567 C 281.600 178.605,281.233 180.792,280.785 182.427 C 280.336 184.062,279.538 187.451,279.010 189.958 L 278.051 194.516 277.982 234.158 C 277.913 273.586,277.956 275.169,279.166 277.332 C 280.618 279.927,277.537 279.811,341.900 279.695 L 400.000 279.589 400.000 278.195 L 400.000 276.800 373.300 276.747 C 303.663 276.609,290.172 276.555,289.800 276.416 C 289.580 276.333,288.770 276.376,288.000 276.511 C 283.580 277.287,283.767 277.334,282.258 275.060 C 280.981 273.137,280.901 272.840,281.220 271.189 C 281.410 270.205,281.573 251.277,281.583 229.126 C 281.599 190.738,281.638 188.603,282.411 183.526 C 283.742 174.787,283.679 175.017,284.766 174.864 C 286.014 174.687,287.073 173.407,287.630 171.400 C 288.207 169.324,288.999 168.474,290.646 168.165 C 291.733 167.961,292.150 167.574,292.891 166.076 C 293.783 164.271,293.848 164.230,296.400 163.803 C 299.915 163.215,301.067 162.564,302.463 160.378 C 304.083 157.842,309.898 157.557,359.521 157.582 L 400.000 157.603 400.000 156.402 L 400.000 155.200 364.100 155.195 C 344.355 155.192,327.840 155.128,327.400 155.054 C 326.960 154.979,324.440 155.050,321.800 155.211 M397.007 417.500 C 396.581 422.097,395.365 424.462,392.720 425.838 C 391.531 426.456,291.101 426.644,286.222 426.037 C 281.840 425.491,281.058 427.104,281.351 436.080 C 281.461 439.446,281.562 533.595,281.575 645.300 C 281.597 826.221,281.666 848.400,282.204 848.400 C 282.743 848.400,282.807 825.535,282.795 638.780 C 282.784 457.206,282.859 429.051,283.357 428.341 C 283.907 427.555,284.082 427.540,287.466 427.985 C 290.034 428.322,305.042 428.415,342.400 428.324 L 393.800 428.200 395.626 427.300 C 396.631 426.805,398.026 426.400,398.726 426.400 L 400.000 426.400 400.000 420.400 L 400.000 414.400 398.647 414.400 L 397.294 414.400 397.007 417.500 " stroke="none" fill="#7588ac" fill-rule="evenodd"></path><path id="path3" d="M257.400 7.671 C 254.760 7.858,250.620 8.366,248.200 8.800 C 242.075 9.898,235.905 10.651,226.800 11.411 C 219.414 12.028,217.808 12.339,216.400 13.431 C 216.070 13.686,215.350 13.998,214.800 14.123 C 214.250 14.248,212.720 14.739,211.400 15.214 C 210.080 15.689,207.306 16.239,205.235 16.435 C 201.332 16.805,198.829 17.691,196.669 19.469 C 196.047 19.981,195.057 20.505,194.469 20.633 C 193.881 20.760,192.950 21.015,192.400 21.198 C 191.850 21.381,189.801 21.849,187.847 22.239 C 185.893 22.629,184.003 23.242,183.647 23.603 C 182.444 24.821,178.682 26.870,177.236 27.093 C 175.215 27.404,173.230 28.491,171.622 30.165 C 170.863 30.954,169.949 31.600,169.590 31.600 C 168.025 31.600,163.714 33.749,162.206 35.281 C 161.329 36.171,159.695 37.334,158.575 37.864 C 157.456 38.394,155.751 39.631,154.786 40.614 C 153.822 41.596,152.814 42.400,152.545 42.400 C 152.277 42.400,151.810 42.647,151.509 42.948 C 151.208 43.250,150.393 43.790,149.699 44.149 C 149.004 44.508,147.843 45.540,147.118 46.443 C 146.393 47.346,145.165 48.409,144.388 48.806 C 143.611 49.202,142.532 50.128,141.988 50.863 C 140.574 52.778,138.551 54.684,137.294 55.286 C 136.698 55.572,136.144 56.147,136.064 56.564 C 135.886 57.488,135.482 58.018,133.308 60.181 C 131.478 62.002,130.029 63.993,128.837 66.323 C 128.422 67.135,127.527 68.293,126.849 68.896 C 126.170 69.499,125.081 71.050,124.429 72.343 C 123.776 73.636,122.719 75.134,122.079 75.672 C 120.209 77.246,119.127 79.382,118.257 83.218 C 118.130 83.779,117.120 85.365,116.013 86.745 C 114.783 88.278,114.000 89.648,114.000 90.269 C 114.000 91.606,112.840 96.095,112.369 96.580 C 112.166 96.789,112.000 97.246,112.000 97.595 C 112.000 97.944,111.467 98.853,110.816 99.615 C 110.165 100.377,109.625 101.293,109.616 101.651 C 109.607 102.009,109.336 102.934,109.013 103.707 C 108.690 104.479,108.228 106.796,107.985 108.856 C 107.426 113.602,107.019 115.135,105.400 118.600 C 104.680 120.140,103.953 121.760,103.784 122.200 C 102.978 124.305,102.715 141.187,102.468 206.800 L 102.200 277.800 101.276 279.095 L 100.353 280.390 56.399 280.495 L 12.444 280.600 11.019 281.981 L 9.595 283.362 9.697 354.161 L 9.800 424.959 11.531 426.280 L 13.262 427.600 57.007 427.600 C 85.740 427.600,100.838 427.737,101.000 428.000 C 101.136 428.220,101.590 428.400,102.010 428.400 C 103.894 428.400,103.800 417.378,103.800 639.300 L 103.800 848.400 104.700 848.400 L 105.600 848.400 105.633 640.100 C 105.651 525.535,105.747 431.302,105.847 430.694 C 105.982 429.873,105.763 429.342,104.996 428.631 C 102.444 426.267,105.288 426.400,57.421 426.400 L 13.564 426.400 12.629 425.465 C 11.216 424.052,11.225 424.584,11.316 351.265 L 11.400 283.531 12.522 282.565 L 13.645 281.600 57.122 281.598 L 100.600 281.596 101.773 280.657 C 103.565 279.224,103.556 279.572,103.593 208.400 C 103.633 130.080,103.849 123.630,106.536 120.746 C 107.487 119.725,109.068 112.860,109.454 108.068 C 109.658 105.542,109.942 104.429,110.628 103.468 C 112.190 101.281,114.000 97.670,114.000 96.742 C 114.000 94.238,116.185 88.000,117.062 88.000 C 117.772 88.000,119.773 83.919,120.395 81.200 C 121.014 78.492,121.594 77.200,122.189 77.200 C 122.889 77.200,125.200 74.648,125.200 73.875 C 125.200 72.908,126.831 70.523,127.877 69.961 C 128.760 69.486,131.600 65.267,131.600 64.431 C 131.600 64.184,132.528 63.097,133.663 62.015 C 134.797 60.933,136.192 59.183,136.763 58.127 C 137.451 56.851,138.270 55.983,139.200 55.543 C 140.837 54.767,142.262 53.320,142.460 52.232 C 142.537 51.808,143.406 51.038,144.397 50.514 C 146.388 49.461,148.283 47.796,148.591 46.830 C 148.702 46.483,149.649 45.752,150.696 45.204 C 153.616 43.677,155.959 42.023,156.419 41.165 C 156.912 40.244,159.505 38.540,160.974 38.171 C 161.559 38.024,162.561 37.149,163.261 36.175 C 164.473 34.487,166.030 33.600,167.781 33.600 C 169.147 33.600,172.617 31.689,173.187 30.624 C 173.767 29.541,174.281 29.302,179.327 27.764 C 181.267 27.173,183.067 26.482,183.327 26.230 C 185.631 23.995,186.901 23.466,191.567 22.805 C 193.150 22.580,195.190 22.037,196.098 21.598 C 197.007 21.159,197.890 20.800,198.061 20.800 C 198.232 20.800,198.890 20.294,199.522 19.677 C 200.729 18.496,202.529 18.060,212.142 16.618 C 214.728 16.230,216.654 15.696,217.742 15.064 C 220.610 13.398,226.229 12.344,234.200 11.979 C 238.160 11.798,243.290 11.378,245.600 11.047 C 254.872 9.719,261.880 9.600,331.032 9.600 L 400.000 9.600 400.000 8.460 L 400.000 7.320 331.100 7.326 C 293.205 7.329,260.040 7.484,257.400 7.671 M321.800 152.753 C 319.794 152.902,317.636 153.306,316.926 153.666 C 315.209 154.537,312.600 155.088,307.732 155.605 C 302.931 156.116,299.382 157.261,298.288 158.652 C 297.271 159.944,294.644 161.600,293.611 161.600 C 292.626 161.600,290.837 163.083,290.373 164.284 C 290.186 164.770,289.325 165.528,288.460 165.969 C 287.289 166.567,286.537 167.409,285.518 169.268 C 284.764 170.640,283.659 172.042,283.060 172.382 C 281.506 173.265,280.818 174.809,279.768 179.773 C 279.259 182.179,278.505 184.609,278.094 185.173 C 276.322 187.605,276.200 190.793,276.200 234.800 C 276.200 280.782,276.074 278.582,278.800 280.180 C 280.192 280.996,280.522 281.001,340.100 281.109 L 400.000 281.218 400.000 280.403 L 400.000 279.587 341.500 279.594 C 277.618 279.602,280.486 279.706,279.166 277.337 C 277.956 275.164,277.913 273.585,277.982 234.158 L 278.051 194.516 279.010 189.958 C 279.538 187.451,280.336 184.062,280.785 182.427 C 281.233 180.792,281.600 178.605,281.600 177.567 C 281.600 175.736,282.926 173.743,284.974 172.494 C 285.240 172.332,285.865 171.346,286.363 170.303 C 286.861 169.259,287.838 168.015,288.534 167.538 C 289.230 167.061,290.635 165.817,291.655 164.773 C 292.963 163.435,294.241 162.609,295.993 161.970 C 297.359 161.472,298.566 160.833,298.674 160.551 C 298.877 160.023,301.014 158.588,302.817 157.770 C 303.376 157.516,305.446 157.179,307.417 157.021 C 309.388 156.863,312.800 156.386,315.000 155.961 C 318.791 155.230,321.114 155.190,359.500 155.200 L 400.000 155.210 400.000 154.005 L 400.000 152.800 364.700 152.797 C 345.285 152.795,328.500 152.724,327.400 152.640 C 326.300 152.556,323.780 152.607,321.800 152.753 M396.995 406.700 C 396.855 407.745,396.480 409.409,396.161 410.398 C 395.842 411.387,395.394 413.882,395.164 415.943 C 394.716 419.963,394.338 421.319,393.407 422.250 C 393.083 422.574,392.646 423.146,392.437 423.520 C 392.082 424.154,388.396 424.206,337.737 424.292 C 307.861 424.343,283.188 424.473,282.907 424.580 C 282.627 424.688,281.858 425.626,281.199 426.666 L 280.000 428.557 280.000 638.478 L 280.000 848.400 280.809 848.400 L 281.618 848.400 281.600 638.900 C 281.590 523.675,281.586 429.083,281.591 428.696 C 281.615 426.868,283.632 425.700,286.200 426.027 C 291.020 426.641,391.520 426.463,392.720 425.838 C 395.365 424.462,396.581 422.097,397.007 417.500 L 397.294 414.400 398.647 414.400 L 400.000 414.400 400.000 409.600 L 400.000 404.800 398.625 404.800 C 397.286 404.800,397.242 404.851,396.995 406.700 " stroke="none" fill="#a5b2cd" fill-rule="evenodd"></path><path id="path4" d="M255.000 10.052 C 252.360 10.238,248.220 10.673,245.800 11.019 C 243.380 11.365,238.160 11.796,234.200 11.978 C 226.229 12.345,220.609 13.398,217.742 15.064 C 216.654 15.696,214.728 16.230,212.142 16.618 C 202.529 18.060,200.729 18.496,199.522 19.677 C 198.890 20.294,198.232 20.800,198.061 20.800 C 197.890 20.800,197.007 21.159,196.098 21.598 C 195.190 22.037,193.150 22.580,191.567 22.805 C 186.901 23.466,185.631 23.995,183.327 26.230 C 183.067 26.482,181.267 27.173,179.327 27.764 C 174.281 29.302,173.767 29.541,173.187 30.624 C 172.617 31.689,169.147 33.600,167.781 33.600 C 166.030 33.600,164.473 34.487,163.261 36.175 C 162.561 37.149,161.559 38.024,160.974 38.171 C 159.505 38.540,156.912 40.244,156.419 41.165 C 155.959 42.023,153.616 43.677,150.696 45.204 C 149.649 45.752,148.702 46.483,148.591 46.830 C 148.283 47.796,146.388 49.461,144.397 50.514 C 143.406 51.038,142.537 51.808,142.460 52.232 C 142.262 53.320,140.837 54.767,139.200 55.543 C 138.270 55.983,137.451 56.851,136.763 58.127 C 136.192 59.183,134.797 60.933,133.663 62.015 C 132.528 63.097,131.600 64.184,131.600 64.431 C 131.600 65.267,128.760 69.486,127.877 69.961 C 126.812 70.533,125.200 72.915,125.200 73.916 C 125.200 74.680,122.858 77.200,122.149 77.200 C 121.592 77.200,121.002 78.547,120.395 81.200 C 119.773 83.919,117.772 88.000,117.062 88.000 C 116.185 88.000,114.000 94.238,114.000 96.742 C 114.000 97.670,112.190 101.281,110.628 103.468 C 109.942 104.429,109.658 105.542,109.454 108.068 C 109.068 112.860,107.487 119.725,106.536 120.746 C 103.849 123.630,103.633 130.080,103.593 208.400 C 103.556 279.572,103.565 279.224,101.773 280.657 L 100.600 281.596 57.122 281.598 L 13.645 281.600 12.522 282.565 L 11.400 283.531 11.316 351.265 C 11.225 424.584,11.216 424.052,12.629 425.465 L 13.564 426.400 57.421 426.400 C 104.471 426.400,102.092 426.304,104.704 428.314 L 105.609 429.010 105.602 638.705 L 105.596 848.400 107.398 848.400 L 109.200 848.400 109.200 638.758 L 109.200 429.115 108.143 427.858 C 105.632 424.870,107.968 425.006,58.274 424.954 C 24.724 424.918,13.832 424.792,13.474 424.434 C 13.112 424.073,13.000 407.275,13.000 353.680 L 13.000 283.400 57.639 283.200 C 93.375 283.040,102.402 282.897,102.902 282.482 C 105.137 280.626,104.981 285.924,105.200 204.400 L 105.400 129.800 107.037 127.196 C 109.030 124.026,109.378 122.541,110.226 113.600 C 110.905 106.455,111.102 105.769,112.655 105.179 C 114.112 104.625,114.931 102.219,116.017 95.300 C 116.267 93.705,116.623 92.400,116.808 92.400 C 117.795 92.400,120.800 87.539,120.800 85.942 C 120.800 83.098,121.622 81.230,123.887 78.929 C 125.587 77.202,126.103 76.359,126.449 74.745 C 126.814 73.043,127.081 72.640,128.141 72.186 C 130.055 71.367,131.598 69.721,131.613 68.484 C 131.626 67.318,132.422 66.000,133.113 66.000 C 133.868 66.000,136.000 63.951,136.000 63.226 C 136.000 62.840,136.355 62.202,136.790 61.809 C 137.224 61.416,137.684 60.767,137.811 60.366 C 138.047 59.622,140.670 56.806,141.140 56.793 C 141.585 56.780,146.400 52.067,146.400 51.644 C 146.400 51.424,146.895 50.973,147.500 50.642 C 148.105 50.311,149.140 49.740,149.800 49.374 C 150.460 49.007,151.544 47.963,152.210 47.053 C 153.098 45.839,153.935 45.228,155.363 44.752 C 157.096 44.174,157.408 43.883,158.249 42.052 C 159.063 40.281,159.349 40.000,160.336 40.000 C 161.647 40.000,164.000 39.258,164.000 38.844 C 164.000 37.438,167.193 35.342,170.788 34.389 L 174.600 33.379 175.196 31.527 L 175.793 29.676 178.796 29.415 C 182.234 29.117,186.000 28.162,186.000 27.589 C 186.000 27.375,186.279 27.200,186.620 27.200 C 186.961 27.200,187.885 26.574,188.673 25.808 C 189.469 25.035,190.660 24.331,191.353 24.225 C 201.315 22.696,202.181 22.359,203.265 19.595 C 203.584 18.783,206.154 18.409,211.448 18.403 C 218.183 18.397,225.406 16.699,227.240 14.692 L 228.295 13.536 240.048 12.913 C 249.566 12.409,265.887 12.258,325.900 12.120 L 400.000 11.949 400.000 10.774 L 400.000 9.600 329.900 9.657 C 291.345 9.688,257.640 9.866,255.000 10.052 M316.727 150.560 C 314.274 150.877,312.899 151.272,312.043 151.905 C 311.377 152.397,310.667 152.800,310.465 152.800 C 310.263 152.800,309.851 153.159,309.549 153.597 C 309.082 154.274,308.249 154.460,304.000 154.835 C 298.640 155.308,296.800 155.771,296.800 156.649 C 296.800 156.952,296.623 157.200,296.408 157.200 C 296.192 157.200,295.894 157.695,295.746 158.300 C 295.424 159.616,294.946 159.986,293.560 159.994 C 292.065 160.003,288.768 161.851,287.604 163.332 C 287.056 164.030,286.191 165.023,285.682 165.540 C 285.173 166.057,284.446 167.316,284.067 168.337 C 283.615 169.552,283.105 170.242,282.589 170.336 C 281.434 170.544,279.669 172.352,279.444 173.556 C 279.337 174.130,279.136 175.635,278.996 176.900 C 278.816 178.533,278.573 179.200,278.159 179.200 C 277.838 179.200,277.459 179.515,277.316 179.900 C 277.174 180.285,276.700 180.980,276.262 181.444 C 274.515 183.298,274.495 183.849,274.367 232.169 C 274.235 282.416,274.118 279.719,276.500 281.593 C 278.466 283.140,280.712 283.195,341.100 283.198 L 400.000 283.200 400.000 282.209 L 400.000 281.218 340.100 281.109 C 280.522 281.001,280.192 280.996,278.800 280.180 C 276.074 278.582,276.200 280.782,276.200 234.800 C 276.200 190.793,276.322 187.605,278.094 185.173 C 278.505 184.609,279.259 182.179,279.768 179.773 C 280.818 174.809,281.506 173.265,283.060 172.382 C 283.659 172.042,284.764 170.640,285.518 169.268 C 286.537 167.409,287.289 166.567,288.460 165.969 C 289.325 165.528,290.186 164.770,290.373 164.284 C 290.837 163.083,292.626 161.600,293.611 161.600 C 294.644 161.600,297.271 159.944,298.288 158.652 C 299.382 157.261,302.931 156.116,307.732 155.605 C 312.043 155.147,315.538 154.487,316.200 154.007 C 317.841 152.815,319.821 152.759,359.700 152.790 L 400.000 152.822 400.000 151.407 L 400.000 149.992 360.100 150.051 C 333.229 150.091,319.066 150.257,316.727 150.560 M396.952 388.300 C 396.808 388.905,396.519 389.617,396.311 389.881 C 395.363 391.087,394.703 394.781,394.180 401.800 C 393.342 413.044,392.818 418.912,392.587 419.642 C 392.238 420.740,390.051 420.785,335.702 420.809 L 283.224 420.832 281.994 421.866 C 281.318 422.435,280.368 423.643,279.882 424.550 L 279.000 426.200 278.897 637.300 C 278.805 825.244,278.859 848.400,279.397 848.400 C 279.934 848.400,280.000 825.326,280.000 638.478 L 280.000 428.557 281.199 426.666 C 281.858 425.626,282.627 424.688,282.907 424.580 C 283.188 424.473,307.861 424.343,337.737 424.292 C 388.396 424.206,392.082 424.154,392.437 423.520 C 392.646 423.146,393.083 422.574,393.407 422.250 C 394.338 421.319,394.716 419.963,395.164 415.943 C 395.394 413.882,395.842 411.387,396.161 410.398 C 396.480 409.409,396.855 407.745,396.995 406.700 C 397.242 404.851,397.286 404.800,398.625 404.800 L 400.000 404.800 400.000 396.000 L 400.000 387.200 398.608 387.200 C 397.419 387.200,397.177 387.361,396.952 388.300 " stroke="none" fill="#c9d2e6" fill-rule="evenodd"></path></g></svg>