<svg id="svg" version="1.1" width="400" height="400" viewBox="0 0 400 400" xmlns="http://www.w3.org/2000/svg" xmlns:xlink="http://www.w3.org/1999/xlink" ><g id="svgg"><path id="path0" d="M338.104 77.539 C 376.613 121.752,391.408 174.202,381.791 232.422 C 369.275 308.198,306.168 370.637,230.438 382.173 C 218.117 384.050,216.126 384.180,199.805 384.177 C 151.466 384.169,113.582 369.864,77.344 337.934 C 73.379 334.441,73.425 334.500,78.711 339.677 C 108.808 369.159,145.277 386.838,184.570 390.995 C 194.527 392.048,197.215 392.187,207.535 392.183 C 259.121 392.161,302.447 374.226,338.672 337.897 C 380.239 296.210,398.259 241.981,390.595 181.641 C 385.665 142.827,368.633 108.410,339.656 78.711 C 334.743 73.675,334.730 73.665,338.104 77.539 " stroke="none" fill="#000000" fill-rule="evenodd"></path><path id="path1" d="M184.180 16.069 C 126.666 19.826,73.223 53.053,41.131 105.006 C 9.232 156.648,6.806 230.071,35.205 284.375 C 63.975 339.387,116.815 375.929,178.516 383.481 C 185.736 384.365,212.874 384.486,219.727 383.665 C 275.552 376.975,320.244 350.211,352.598 304.097 C 395.587 242.823,395.302 155.478,351.913 94.866 C 311.778 38.798,253.723 11.526,184.180 16.069 M318.359 112.051 C 340.198 122.038,338.811 120.644,335.103 128.865 C 333.785 131.788,332.294 135.102,331.789 136.228 L 330.871 138.277 328.815 137.348 C 327.683 136.837,321.924 134.224,316.016 131.542 C 297.690 123.223,290.959 120.238,290.836 120.376 C 290.498 120.753,288.335 125.320,288.220 125.899 C 288.114 126.429,289.497 127.221,294.727 129.623 C 298.379 131.300,304.398 134.067,308.102 135.770 C 311.806 137.474,314.838 138.981,314.840 139.120 C 314.842 139.259,301.464 168.703,285.111 204.550 C 268.758 240.397,255.134 270.296,254.834 270.993 L 254.289 272.259 255.563 271.482 C 259.119 269.314,264.641 271.001,266.498 274.823 L 267.352 276.580 267.921 275.497 C 268.557 274.289,272.628 265.421,281.241 246.484 C 292.750 221.181,299.662 206.088,300.013 205.492 C 300.233 205.120,300.338 227.704,300.284 263.477 L 300.195 322.070 299.302 323.507 C 298.777 324.351,297.718 325.279,296.737 325.754 L 295.066 326.563 199.974 326.554 C 92.794 326.544,102.772 326.843,100.744 323.581 L 99.805 322.070 99.704 212.986 L 99.604 103.902 200.290 104.002 L 300.977 104.102 318.359 112.051 M234.479 282.715 C 236.450 289.604,236.917 291.016,237.222 291.016 C 237.421 291.016,239.429 290.187,241.684 289.175 L 245.784 287.335 244.669 286.428 C 241.060 283.492,233.962 280.906,234.479 282.715 " stroke="none" fill="#884400" fill-rule="evenodd"></path><path id="path2" d="M282.929 137.017 C 280.307 142.761,273.923 156.777,268.743 168.164 C 258.354 191.001,248.569 212.485,235.772 240.559 C 226.700 260.462,226.662 260.560,228.613 259.371 C 233.420 256.440,240.219 260.540,240.232 266.377 L 240.234 267.324 241.113 266.523 C 245.565 262.469,253.478 265.808,253.528 271.762 C 253.538 272.988,253.622 273.142,254.018 272.656 C 254.280 272.334,254.758 272.014,255.080 271.945 C 255.401 271.876,255.840 271.634,256.055 271.409 C 256.270 271.183,256.024 271.215,255.509 271.481 C 254.177 272.168,252.131 276.797,284.922 204.941 C 301.379 168.880,314.842 139.261,314.840 139.121 C 314.838 138.981,311.894 137.515,308.297 135.863 C 304.701 134.210,298.902 131.541,295.412 129.932 C 291.921 128.323,288.757 126.909,288.380 126.790 C 287.809 126.610,286.907 128.301,282.929 137.017 M295.187 215.838 C 294.270 217.763,294.399 218.090,295.358 216.272 C 295.794 215.446,296.081 214.701,295.997 214.616 C 295.912 214.532,295.548 215.082,295.187 215.838 M293.234 220.135 C 292.316 222.060,292.446 222.387,293.405 220.569 C 293.841 219.743,294.128 218.998,294.044 218.913 C 293.959 218.829,293.595 219.379,293.234 220.135 M277.017 255.681 C 276.362 257.117,276.487 257.424,277.195 256.118 C 277.525 255.508,277.722 254.936,277.633 254.847 C 277.544 254.757,277.266 255.133,277.017 255.681 M274.683 260.761 C 273.506 263.183,273.637 263.522,274.850 261.192 C 275.392 260.151,275.768 259.232,275.687 259.150 C 275.605 259.068,275.153 259.793,274.683 260.761 M267.766 275.803 C 267.553 276.477,267.418 276.548,267.151 276.126 C 266.877 275.694,266.808 275.718,266.803 276.246 C 266.793 277.349,267.435 277.382,267.926 276.304 C 268.181 275.746,268.310 275.211,268.214 275.115 C 268.119 275.020,267.917 275.329,267.766 275.803 " stroke="none" fill="#ef811c" fill-rule="evenodd"></path><path id="path3" d="M99.609 108.395 L 99.609 112.889 196.835 112.988 L 294.060 113.086 292.245 116.850 C 291.246 118.920,290.620 120.538,290.852 120.446 C 291.191 120.313,310.074 128.687,327.825 136.843 L 330.845 138.230 331.577 136.596 C 331.979 135.697,333.477 132.391,334.904 129.251 C 337.698 123.106,337.863 122.404,336.816 121.128 C 336.436 120.663,328.348 116.708,318.555 112.198 L 300.977 104.102 200.293 104.002 L 99.609 103.902 99.609 108.395 M99.609 145.313 L 99.609 150.000 188.291 150.000 L 276.973 150.000 278.369 146.973 C 279.137 145.308,280.094 143.198,280.494 142.285 L 281.222 140.625 190.416 140.625 L 99.609 140.625 99.609 145.313 M99.609 182.420 L 99.609 187.106 179.818 187.205 L 260.026 187.305 262.203 182.520 L 264.380 177.734 181.995 177.734 L 99.609 177.734 99.609 182.420 M298.474 209.217 C 297.527 211.345,295.623 215.547,294.244 218.555 C 292.865 221.563,288.660 230.791,284.901 239.063 C 281.142 247.334,276.929 256.563,275.539 259.570 C 274.150 262.578,271.753 267.800,270.212 271.174 C 268.672 274.548,267.335 277.231,267.241 277.137 C 267.147 277.042,266.876 277.214,266.640 277.519 C 266.404 277.824,262.256 279.823,257.422 281.961 C 252.588 284.100,246.230 287.012,243.292 288.433 C 237.392 291.287,236.903 291.411,236.583 290.137 L 236.362 289.258 167.986 289.358 L 99.609 289.457 99.609 294.143 L 99.609 298.828 172.561 298.828 L 245.512 298.828 259.375 312.695 L 273.238 326.562 283.742 326.563 C 295.405 326.563,296.665 326.373,298.440 324.352 C 300.448 322.065,300.400 323.674,300.294 262.686 L 300.195 205.348 298.474 209.217 M99.609 219.531 L 99.609 224.219 171.420 224.219 L 243.230 224.219 245.028 220.215 C 246.016 218.013,246.943 215.903,247.087 215.527 C 247.336 214.878,243.671 214.844,173.479 214.844 L 99.609 214.844 99.609 219.531 M165.137 251.855 L 99.609 251.955 99.609 256.838 L 99.609 261.721 163.574 261.622 L 227.539 261.523 227.421 260.291 C 227.342 259.463,227.880 257.825,229.055 255.310 C 230.018 253.249,230.774 251.606,230.735 251.659 C 230.696 251.712,201.177 251.800,165.137 251.855 M239.942 266.211 C 239.947 267.070,240.027 267.376,240.120 266.890 C 240.213 266.404,240.210 265.701,240.112 265.327 C 240.014 264.954,239.938 265.352,239.942 266.211 M263.672 271.997 C 263.672 272.064,264.243 272.636,264.941 273.267 L 266.211 274.414 265.064 273.145 C 263.994 271.961,263.672 271.695,263.672 271.997 " stroke="none" fill="#c1c0b2" fill-rule="evenodd"></path><path id="path4" d="M99.609 126.759 L 99.609 140.627 190.448 140.528 L 281.286 140.430 285.804 130.469 C 288.289 124.990,290.469 120.324,290.649 120.100 C 290.830 119.876,291.681 118.163,292.541 116.292 L 294.105 112.891 196.857 112.891 L 99.609 112.891 99.609 126.759 M99.609 163.867 L 99.609 177.734 181.958 177.734 L 264.307 177.734 269.231 166.895 C 271.940 160.933,274.781 154.692,275.545 153.027 L 276.933 150.000 188.271 150.000 L 99.609 150.000 99.609 163.867 M99.609 200.977 L 99.609 214.844 173.535 214.830 L 247.461 214.817 253.616 201.256 C 257.001 193.798,259.769 187.563,259.768 187.402 C 259.767 187.241,223.730 187.109,179.688 187.109 L 99.609 187.109 99.609 200.977 M99.609 238.087 L 99.609 251.955 165.095 251.857 L 230.580 251.758 236.752 238.281 C 240.146 230.869,242.934 224.673,242.946 224.512 C 242.959 224.351,210.713 224.219,171.289 224.219 L 99.609 224.219 99.609 238.087 M228.909 259.353 C 228.107 259.780,227.543 260.377,227.542 260.801 C 227.539 261.500,225.495 261.527,163.574 261.622 L 99.609 261.721 99.609 275.587 L 99.609 289.453 167.708 289.453 C 205.163 289.453,235.904 289.356,236.022 289.238 C 236.140 289.120,235.741 287.427,235.134 285.476 L 234.031 281.928 235.991 282.160 C 238.325 282.436,241.580 283.862,244.099 285.712 L 245.927 287.053 256.264 282.460 C 267.184 277.607,267.293 277.531,266.388 275.346 C 264.536 270.874,258.903 269.514,254.785 272.543 L 253.516 273.477 253.516 272.173 C 253.516 266.501,246.680 262.925,241.938 266.116 L 239.931 267.466 239.760 265.397 C 239.324 260.144,233.508 256.904,228.909 259.353 M99.609 308.965 C 99.609 320.567,99.891 322.625,101.730 324.465 C 103.919 326.653,99.932 326.558,189.646 326.560 L 273.238 326.563 259.375 312.695 L 245.512 298.828 172.561 298.828 L 99.609 298.828 99.609 308.965 " stroke="none" fill="#f2f1df" fill-rule="evenodd"></path></g></svg>