<svg id="svg" version="1.1" width="400" height="400" viewBox="0 0 400 400" xmlns="http://www.w3.org/2000/svg" xmlns:xlink="http://www.w3.org/1999/xlink" ><g id="svgg"><path id="path0" d="M43.521 75.662 C 18.595 82.390,19.127 118.946,44.232 124.472 C 48.432 125.396,352.501 125.266,356.197 124.338 C 380.500 118.235,381.523 84.545,357.667 75.947 L 355.500 75.167 200.667 75.102 C 50.288 75.040,45.767 75.056,43.521 75.662 M43.521 175.662 C 18.595 182.390,19.127 218.946,44.232 224.472 C 48.432 225.396,352.501 225.266,356.197 224.338 C 380.500 218.235,381.523 184.545,357.667 175.947 L 355.500 175.167 200.667 175.102 C 50.288 175.040,45.767 175.056,43.521 175.662 M43.521 275.662 C 18.595 282.390,19.127 318.946,44.232 324.472 C 48.432 325.396,352.501 325.266,356.197 324.338 C 380.500 318.235,381.523 284.545,357.667 275.947 L 355.500 275.167 200.667 275.102 C 50.288 275.040,45.767 275.056,43.521 275.662 " stroke="none" fill="#000000" fill-rule="evenodd"></path><path id="path1" d="M43.521 75.662 C 18.595 82.390,19.127 118.946,44.232 124.472 C 48.432 125.396,352.501 125.266,356.197 124.338 C 380.500 118.235,381.523 84.545,357.667 75.947 L 355.500 75.167 200.667 75.102 C 50.288 75.040,45.767 75.056,43.521 75.662 M43.521 175.662 C 18.595 182.390,19.127 218.946,44.232 224.472 C 48.432 225.396,352.501 225.266,356.197 224.338 C 380.500 218.235,381.523 184.545,357.667 175.947 L 355.500 175.167 200.667 175.102 C 50.288 175.040,45.767 175.056,43.521 175.662 M43.521 275.662 C 18.595 282.390,19.127 318.946,44.232 324.472 C 48.432 325.396,352.501 325.266,356.197 324.338 C 380.500 318.235,381.523 284.545,357.667 275.947 L 355.500 275.167 200.667 275.102 C 50.288 275.040,45.767 275.056,43.521 275.662 " stroke="none" fill="#000000" fill-rule="evenodd"></path><path id="path2" d="M43.521 75.662 C 18.595 82.390,19.127 118.946,44.232 124.472 C 48.432 125.396,352.501 125.266,356.197 124.338 C 380.500 118.235,381.523 84.545,357.667 75.947 L 355.500 75.167 200.667 75.102 C 50.288 75.040,45.767 75.056,43.521 75.662 M43.521 175.662 C 18.595 182.390,19.127 218.946,44.232 224.472 C 48.432 225.396,352.501 225.266,356.197 224.338 C 380.500 218.235,381.523 184.545,357.667 175.947 L 355.500 175.167 200.667 175.102 C 50.288 175.040,45.767 175.056,43.521 175.662 M43.521 275.662 C 18.595 282.390,19.127 318.946,44.232 324.472 C 48.432 325.396,352.501 325.266,356.197 324.338 C 380.500 318.235,381.523 284.545,357.667 275.947 L 355.500 275.167 200.667 275.102 C 50.288 275.040,45.767 275.056,43.521 275.662 " stroke="none" fill="#000000" fill-rule="evenodd"></path><path id="path3" d="M43.521 75.662 C 18.595 82.390,19.127 118.946,44.232 124.472 C 48.432 125.396,352.501 125.266,356.197 124.338 C 380.500 118.235,381.523 84.545,357.667 75.947 L 355.500 75.167 200.667 75.102 C 50.288 75.040,45.767 75.056,43.521 75.662 M43.521 175.662 C 18.595 182.390,19.127 218.946,44.232 224.472 C 48.432 225.396,352.501 225.266,356.197 224.338 C 380.500 218.235,381.523 184.545,357.667 175.947 L 355.500 175.167 200.667 175.102 C 50.288 175.040,45.767 175.056,43.521 175.662 M43.521 275.662 C 18.595 282.390,19.127 318.946,44.232 324.472 C 48.432 325.396,352.501 325.266,356.197 324.338 C 380.500 318.235,381.523 284.545,357.667 275.947 L 355.500 275.167 200.667 275.102 C 50.288 275.040,45.767 275.056,43.521 275.662 " stroke="none" fill="#000000" fill-rule="evenodd"></path><path id="path4" d="M43.521 75.662 C 18.595 82.390,19.127 118.946,44.232 124.472 C 48.432 125.396,352.501 125.266,356.197 124.338 C 380.500 118.235,381.523 84.545,357.667 75.947 L 355.500 75.167 200.667 75.102 C 50.288 75.040,45.767 75.056,43.521 75.662 M43.521 175.662 C 18.595 182.390,19.127 218.946,44.232 224.472 C 48.432 225.396,352.501 225.266,356.197 224.338 C 380.500 218.235,381.523 184.545,357.667 175.947 L 355.500 175.167 200.667 175.102 C 50.288 175.040,45.767 175.056,43.521 175.662 M43.521 275.662 C 18.595 282.390,19.127 318.946,44.232 324.472 C 48.432 325.396,352.501 325.266,356.197 324.338 C 380.500 318.235,381.523 284.545,357.667 275.947 L 355.500 275.167 200.667 275.102 C 50.288 275.040,45.767 275.056,43.521 275.662 " stroke="none" fill="#000000" fill-rule="evenodd"></path></g></svg>