<svg id="svg" version="1.1" width="400" height="409.009009009009" viewBox="0 0 400 409.009009009009" xmlns="http://www.w3.org/2000/svg" xmlns:xlink="http://www.w3.org/1999/xlink" ><g id="svgg"><path id="path0" d="M0.000 94.000 C 0.000 172.474,0.089 188.000,0.538 188.000 C 0.947 188.000,1.193 186.437,1.562 181.500 C 1.829 177.925,2.299 173.898,2.606 172.551 C 2.913 171.204,3.361 168.524,3.600 166.596 C 3.840 164.668,4.275 162.620,4.567 162.045 C 4.859 161.470,5.229 159.923,5.389 158.607 C 5.550 157.291,5.922 155.581,6.216 154.807 C 6.511 154.033,6.962 152.331,7.220 151.024 C 7.478 149.717,7.853 148.367,8.055 148.024 C 8.256 147.681,8.763 146.140,9.180 144.600 C 10.817 138.567,11.303 137.014,11.803 136.222 C 12.088 135.770,12.450 134.770,12.607 134.000 C 12.764 133.230,13.052 132.401,13.248 132.157 C 13.443 131.913,13.943 130.743,14.358 129.557 C 15.518 126.240,16.760 123.236,17.370 122.272 C 17.673 121.793,18.041 120.827,18.186 120.128 C 18.332 119.428,18.698 118.650,19.000 118.400 C 19.302 118.150,19.662 117.430,19.800 116.800 C 19.938 116.170,20.310 115.441,20.626 115.179 C 20.942 114.917,21.200 114.118,21.200 113.405 C 21.200 112.692,21.534 111.679,21.942 111.154 C 22.350 110.629,22.904 109.525,23.173 108.700 C 23.442 107.875,23.814 107.200,24.000 107.200 C 24.186 107.200,24.541 106.584,24.789 105.832 C 25.038 105.080,25.502 104.248,25.820 103.983 C 26.139 103.718,26.400 103.209,26.400 102.851 C 26.401 102.493,26.851 101.677,27.400 101.038 C 27.950 100.399,28.403 99.679,28.407 99.438 C 28.414 99.063,29.016 98.069,31.215 94.800 C 31.595 94.236,32.896 92.245,33.808 90.832 C 34.536 89.704,36.375 87.031,37.299 85.756 C 37.794 85.072,38.556 83.992,38.990 83.356 C 39.425 82.720,40.010 82.056,40.290 81.880 C 40.571 81.704,40.800 81.339,40.800 81.069 C 40.800 80.799,41.317 80.012,41.949 79.320 C 42.581 78.629,43.957 76.968,45.008 75.631 C 46.058 74.294,47.033 73.200,47.173 73.200 C 47.313 73.200,47.723 72.700,48.084 72.089 C 49.742 69.282,70.314 48.629,72.017 48.061 C 72.412 47.929,73.317 47.160,75.414 45.172 C 75.862 44.747,76.338 44.400,76.472 44.400 C 76.606 44.400,77.319 43.835,78.058 43.144 C 79.241 42.037,81.129 40.652,83.165 39.400 C 83.522 39.180,84.216 38.595,84.707 38.100 C 85.198 37.605,85.851 37.200,86.157 37.200 C 86.464 37.200,86.821 36.921,86.952 36.581 C 87.083 36.241,87.732 35.773,88.395 35.542 C 89.058 35.311,89.600 34.955,89.600 34.751 C 89.600 34.547,90.005 34.200,90.500 33.980 C 91.356 33.599,93.645 32.082,94.685 31.205 C 94.952 30.980,95.669 30.572,96.279 30.298 C 96.890 30.024,97.706 29.485,98.095 29.100 C 98.483 28.715,99.120 28.400,99.511 28.400 C 99.902 28.400,100.526 28.045,100.898 27.611 C 101.269 27.177,102.074 26.698,102.687 26.546 C 103.299 26.395,104.035 25.940,104.323 25.535 C 104.610 25.131,105.171 24.800,105.569 24.800 C 105.967 24.800,106.750 24.440,107.309 24.000 C 107.869 23.560,108.488 23.200,108.685 23.200 C 108.883 23.200,109.655 22.750,110.400 22.200 C 111.145 21.650,112.056 21.200,112.424 21.200 C 112.791 21.200,113.521 20.865,114.046 20.455 C 114.571 20.045,115.450 19.571,116.000 19.400 C 116.550 19.229,117.429 18.755,117.954 18.345 C 118.479 17.935,119.234 17.600,119.633 17.600 C 120.031 17.600,121.204 17.150,122.238 16.600 C 123.273 16.050,124.379 15.600,124.696 15.600 C 125.014 15.600,125.731 15.240,126.291 14.800 C 126.850 14.360,127.724 14.000,128.233 14.000 C 128.741 14.000,130.004 13.550,131.038 13.000 C 132.073 12.450,133.248 12.000,133.650 12.000 C 134.052 12.000,134.970 11.641,135.690 11.201 C 136.411 10.762,137.496 10.402,138.101 10.401 C 138.707 10.401,139.862 10.046,140.669 9.614 C 141.475 9.182,142.953 8.706,143.953 8.556 C 144.954 8.406,146.319 7.950,146.986 7.543 C 147.654 7.136,148.795 6.802,149.522 6.801 C 150.249 6.801,151.599 6.457,152.522 6.039 C 153.445 5.620,155.280 5.155,156.600 5.006 C 157.920 4.856,159.600 4.464,160.333 4.133 C 161.065 3.802,163.253 3.383,165.194 3.201 C 167.135 3.019,169.071 2.683,169.497 2.455 C 170.436 1.952,176.186 1.200,179.090 1.200 C 180.699 1.200,181.200 1.058,181.200 0.600 C 181.200 0.068,170.867 0.000,90.600 0.000 L 0.000 0.000 0.000 94.000 M226.400 0.600 C 226.400 1.069,226.948 1.202,228.900 1.207 C 232.478 1.217,238.710 1.924,239.649 2.426 C 240.089 2.662,241.961 3.010,243.809 3.201 C 245.657 3.392,247.761 3.816,248.484 4.145 C 249.208 4.473,250.790 4.867,252.000 5.020 C 253.210 5.172,255.062 5.635,256.115 6.048 C 257.168 6.462,258.525 6.800,259.130 6.800 C 259.736 6.800,260.896 7.139,261.709 7.554 C 262.522 7.968,264.045 8.434,265.094 8.589 C 266.142 8.744,267.561 9.214,268.247 9.635 C 268.933 10.056,270.013 10.401,270.647 10.401 C 271.281 10.402,272.389 10.762,273.110 11.201 C 273.830 11.641,274.748 12.000,275.150 12.000 C 275.552 12.000,276.727 12.450,277.762 13.000 C 278.796 13.550,280.083 14.000,280.621 14.000 C 281.160 14.000,281.935 14.335,282.345 14.745 C 282.755 15.155,283.780 15.620,284.624 15.778 C 285.467 15.936,286.596 16.411,287.133 16.833 C 287.669 17.255,288.532 17.600,289.051 17.600 C 289.569 17.600,290.218 17.960,290.493 18.400 C 290.768 18.840,291.301 19.200,291.677 19.200 C 292.569 19.200,294.400 20.038,294.400 20.446 C 294.400 20.621,295.018 20.880,295.774 21.021 C 296.529 21.163,297.448 21.611,297.815 22.017 C 298.183 22.423,298.986 22.865,299.600 23.000 C 300.214 23.135,301.034 23.595,301.421 24.023 C 301.807 24.450,302.434 24.800,302.813 24.800 C 303.192 24.800,303.739 25.085,304.028 25.434 C 304.318 25.783,305.240 26.343,306.077 26.678 C 306.915 27.013,307.600 27.430,307.600 27.604 C 307.600 27.779,308.142 28.111,308.805 28.342 C 309.468 28.573,310.117 29.041,310.248 29.381 C 310.379 29.721,310.813 30.000,311.212 30.000 C 311.612 30.000,312.473 30.450,313.127 31.000 C 313.781 31.550,314.513 32.000,314.754 32.000 C 314.996 32.000,315.418 32.360,315.693 32.800 C 315.968 33.240,316.405 33.600,316.666 33.600 C 316.926 33.600,317.673 34.050,318.327 34.600 C 318.981 35.150,319.704 35.600,319.935 35.600 C 320.166 35.600,320.593 35.915,320.883 36.300 C 321.174 36.685,321.769 37.228,322.206 37.506 C 322.643 37.784,323.540 38.355,324.200 38.774 C 325.862 39.831,327.155 40.841,328.202 41.900 C 328.691 42.395,329.230 42.800,329.400 42.800 C 329.570 42.800,330.117 43.205,330.617 43.700 C 331.116 44.195,332.103 45.050,332.810 45.600 C 336.954 48.825,340.800 52.538,340.800 53.315 C 340.800 53.655,339.720 55.058,338.400 56.433 C 337.080 57.807,336.000 59.013,336.000 59.112 C 336.000 59.415,333.066 62.000,332.722 62.000 C 332.545 62.000,332.400 62.201,332.400 62.446 C 332.400 62.939,329.634 65.600,329.122 65.600 C 328.945 65.600,328.800 65.849,328.800 66.154 C 328.800 66.459,328.395 66.975,327.900 67.302 C 326.697 68.096,315.600 79.256,315.600 79.673 C 315.600 79.853,315.429 80.000,315.219 80.000 C 314.754 80.000,312.000 82.790,312.000 83.261 C 312.000 83.448,311.829 83.600,311.619 83.600 C 311.154 83.600,308.400 86.390,308.400 86.861 C 308.400 87.048,308.175 87.207,307.900 87.215 C 307.625 87.223,306.771 88.033,306.002 89.015 C 305.233 89.997,304.378 90.800,304.102 90.800 C 303.826 90.800,303.600 90.945,303.600 91.122 C 303.600 91.634,300.939 94.400,300.446 94.400 C 300.201 94.400,300.000 94.552,300.000 94.739 C 300.000 95.195,297.254 98.000,296.808 98.000 C 296.613 98.000,296.343 98.351,296.206 98.780 C 296.070 99.208,295.617 99.667,295.200 99.800 C 294.783 99.933,294.330 100.392,294.194 100.820 C 294.057 101.249,293.700 101.600,293.400 101.600 C 293.100 101.600,292.743 101.951,292.606 102.380 C 292.470 102.808,292.017 103.267,291.600 103.400 C 291.183 103.533,290.730 103.992,290.594 104.420 C 290.457 104.849,290.100 105.200,289.800 105.200 C 289.500 105.200,289.143 105.551,289.006 105.980 C 288.870 106.408,288.417 106.867,288.000 107.000 C 287.583 107.133,287.130 107.592,286.994 108.020 C 286.857 108.449,286.488 108.800,286.173 108.800 C 285.858 108.800,285.600 108.967,285.600 109.171 C 285.600 111.477,282.349 111.263,279.962 108.800 C 278.897 107.700,277.841 106.800,277.616 106.800 C 277.391 106.800,276.982 106.440,276.707 106.000 C 276.432 105.560,276.021 105.200,275.793 105.200 C 275.565 105.200,274.753 104.658,273.989 103.995 C 273.225 103.332,272.330 102.556,272.000 102.271 C 270.606 101.069,265.445 97.734,262.327 96.021 C 261.517 95.576,260.750 95.043,260.623 94.836 C 260.495 94.630,259.872 94.347,259.237 94.208 C 258.602 94.069,257.783 93.623,257.415 93.217 C 257.048 92.811,256.147 92.367,255.412 92.229 C 254.678 92.091,253.976 91.713,253.851 91.389 C 253.727 91.065,253.298 90.800,252.897 90.800 C 252.497 90.800,251.456 90.426,250.585 89.969 C 249.713 89.512,248.145 88.875,247.100 88.553 C 246.055 88.232,245.200 87.820,245.200 87.639 C 245.200 87.457,244.367 87.195,243.348 87.055 C 242.330 86.915,240.935 86.463,240.248 86.050 C 239.562 85.637,238.010 85.176,236.800 85.026 C 235.590 84.875,234.240 84.519,233.800 84.233 C 233.360 83.947,231.740 83.580,230.200 83.417 C 228.660 83.254,226.680 82.856,225.800 82.533 C 219.624 80.264,188.849 80.273,183.552 82.546 C 182.756 82.887,180.866 83.285,179.352 83.430 C 177.839 83.575,176.215 83.933,175.744 84.227 C 175.273 84.520,173.923 84.886,172.744 85.040 C 171.565 85.193,169.985 85.646,169.233 86.045 C 168.481 86.444,167.083 86.888,166.126 87.032 C 165.170 87.175,163.722 87.632,162.909 88.046 C 162.096 88.461,161.041 88.800,160.564 88.800 C 160.088 88.800,159.475 89.069,159.202 89.398 C 158.928 89.727,157.961 90.208,157.053 90.467 C 156.144 90.726,155.130 91.151,154.800 91.412 C 154.470 91.673,153.607 92.086,152.881 92.329 C 152.156 92.572,151.097 93.138,150.527 93.586 C 149.958 94.034,149.151 94.400,148.734 94.400 C 148.316 94.400,147.878 94.654,147.759 94.964 C 147.639 95.274,147.072 95.646,146.498 95.790 C 145.924 95.934,144.933 96.490,144.296 97.026 C 143.660 97.562,142.792 98.000,142.369 98.000 C 141.946 98.000,141.600 98.189,141.600 98.420 C 141.600 98.652,140.970 99.104,140.200 99.426 C 139.430 99.748,138.800 100.166,138.800 100.357 C 138.800 100.547,138.223 100.942,137.517 101.234 C 136.812 101.527,135.924 102.043,135.545 102.383 C 134.796 103.054,133.487 104.087,131.000 105.970 C 130.120 106.637,129.034 107.546,128.586 107.991 C 128.138 108.436,127.656 108.800,127.514 108.800 C 127.373 108.800,126.412 109.610,125.378 110.600 C 124.345 111.590,123.342 112.400,123.150 112.400 C 122.957 112.400,122.800 112.670,122.800 113.000 C 122.800 113.330,122.643 113.600,122.452 113.600 C 122.009 113.600,117.200 118.377,117.200 118.817 C 117.200 118.998,116.840 119.260,116.400 119.400 C 115.960 119.540,115.600 119.815,115.600 120.011 C 115.600 120.207,114.880 121.102,114.000 122.000 C 113.120 122.898,112.400 123.795,112.400 123.993 C 112.400 124.192,112.067 124.590,111.660 124.877 C 111.252 125.165,110.640 125.940,110.299 126.600 C 109.959 127.260,109.032 128.466,108.240 129.280 C 107.448 130.094,106.800 130.927,106.800 131.131 C 106.800 131.335,106.520 131.735,106.177 132.019 C 105.834 132.304,105.303 133.136,104.997 133.868 C 104.691 134.601,104.242 135.200,104.000 135.200 C 103.757 135.200,103.370 135.740,103.140 136.400 C 102.910 137.060,102.579 137.600,102.404 137.600 C 102.230 137.600,101.813 138.285,101.478 139.123 C 101.143 139.960,100.583 140.882,100.234 141.172 C 99.885 141.461,99.600 141.965,99.600 142.291 C 99.600 142.618,99.150 143.419,98.600 144.073 C 98.050 144.727,97.600 145.580,97.600 145.969 C 97.600 146.358,97.240 147.002,96.800 147.400 C 96.360 147.798,96.000 148.512,96.000 148.987 C 96.000 149.461,95.652 150.223,95.227 150.679 C 94.801 151.136,94.333 152.148,94.187 152.929 C 94.041 153.709,93.579 154.657,93.160 155.036 C 92.742 155.414,92.400 156.236,92.400 156.862 C 92.400 157.488,92.060 158.340,91.644 158.756 C 91.224 159.176,90.766 160.390,90.616 161.482 C 90.421 162.902,90.074 163.655,89.373 164.182 C 88.838 164.583,88.399 165.292,88.398 165.756 C 88.396 166.220,88.122 167.124,87.788 167.765 C 87.454 168.405,86.903 170.272,86.564 171.912 C 86.225 173.552,85.778 175.188,85.571 175.547 C 85.363 175.906,84.938 177.820,84.627 179.800 C 84.316 181.780,83.876 184.241,83.649 185.268 C 82.288 191.428,82.159 211.989,83.428 220.678 C 84.173 225.779,85.391 232.034,86.176 234.787 C 86.519 235.990,86.800 237.304,86.800 237.707 C 86.800 238.110,87.075 238.971,87.410 239.620 C 87.746 240.269,88.193 241.711,88.404 242.823 C 88.615 243.935,89.048 245.105,89.366 245.423 C 89.683 245.741,90.149 246.990,90.400 248.200 C 90.651 249.410,91.001 250.400,91.176 250.400 C 91.352 250.400,91.730 251.255,92.016 252.300 C 92.302 253.345,92.865 254.629,93.268 255.154 C 93.671 255.679,94.000 256.344,94.000 256.633 C 94.000 256.921,94.450 258.004,95.000 259.038 C 95.550 260.073,96.000 261.134,96.000 261.398 C 96.000 261.661,96.360 262.202,96.800 262.600 C 97.240 262.998,97.600 263.583,97.600 263.899 C 97.600 264.215,97.960 264.931,98.400 265.491 C 98.840 266.050,99.200 266.726,99.200 266.992 C 99.200 267.258,99.650 267.999,100.200 268.638 C 100.749 269.277,101.199 269.961,101.200 270.159 C 101.200 270.356,101.875 271.503,102.700 272.708 C 103.525 273.912,104.470 275.299,104.800 275.789 C 106.667 278.562,107.038 279.093,107.783 280.050 C 108.232 280.627,108.960 281.600,109.400 282.212 C 114.070 288.710,131.188 304.589,136.837 307.663 C 137.507 308.028,138.372 308.613,138.759 308.963 C 139.146 309.313,139.603 309.600,139.774 309.600 C 139.945 309.600,140.619 310.050,141.273 310.600 C 141.927 311.150,142.696 311.600,142.982 311.600 C 143.268 311.600,143.719 311.862,143.985 312.182 C 144.251 312.502,145.758 313.421,147.334 314.223 C 148.910 315.024,150.740 315.958,151.400 316.297 C 155.503 318.404,156.387 318.800,156.996 318.800 C 157.369 318.800,158.131 319.160,158.691 319.600 C 159.250 320.040,160.034 320.400,160.433 320.400 C 160.831 320.400,162.004 320.850,163.038 321.400 C 164.073 321.950,165.260 322.400,165.676 322.400 C 166.092 322.400,167.138 322.760,168.000 323.200 C 168.862 323.640,170.023 324.000,170.580 324.000 C 171.136 324.000,172.521 324.353,173.656 324.785 C 174.792 325.216,176.549 325.683,177.561 325.823 C 178.572 325.963,180.544 326.420,181.942 326.838 C 183.340 327.257,185.320 327.601,186.342 327.602 C 187.364 327.602,189.910 327.888,192.000 328.236 C 196.895 329.052,210.199 329.182,216.400 328.476 C 218.930 328.188,222.712 327.805,224.805 327.626 C 226.898 327.447,229.598 327.019,230.805 326.674 C 232.012 326.329,233.990 325.880,235.200 325.675 C 237.587 325.271,242.338 324.143,244.100 323.563 C 244.705 323.363,245.785 322.997,246.500 322.749 C 247.215 322.501,249.060 321.860,250.600 321.326 C 252.140 320.791,254.318 319.914,255.440 319.377 C 256.562 318.840,257.704 318.400,257.977 318.400 C 258.250 318.400,258.931 318.040,259.491 317.600 C 260.050 317.160,260.898 316.800,261.374 316.800 C 261.850 316.800,262.411 316.635,262.620 316.433 C 262.829 316.232,263.810 315.628,264.800 315.092 C 269.313 312.650,270.000 312.231,270.000 311.926 C 270.000 311.747,270.256 311.600,270.569 311.600 C 270.882 311.600,271.673 311.150,272.327 310.600 C 272.981 310.050,273.682 309.600,273.886 309.600 C 274.089 309.600,274.637 309.195,275.103 308.700 C 275.569 308.205,276.435 307.440,277.026 307.000 C 277.617 306.560,278.611 305.738,279.234 305.173 C 279.857 304.607,280.950 303.707,281.662 303.173 C 285.081 300.604,290.058 295.727,293.443 291.626 C 294.636 290.182,295.905 288.691,296.263 288.312 C 296.621 287.934,297.113 287.276,297.357 286.850 C 297.601 286.424,298.862 284.484,300.160 282.538 C 301.458 280.592,302.902 278.370,303.370 277.600 C 303.837 276.830,304.442 275.840,304.713 275.400 C 304.984 274.960,305.364 274.240,305.557 273.800 C 306.598 271.431,306.825 270.949,307.157 270.400 C 308.120 268.806,309.600 265.453,309.601 264.863 C 309.602 264.498,309.941 263.646,310.353 262.969 C 310.766 262.292,311.311 260.775,311.563 259.597 C 311.816 258.418,312.202 257.238,312.422 256.974 C 312.641 256.709,313.084 254.998,313.405 253.172 C 313.726 251.346,314.171 249.669,314.394 249.446 C 315.437 248.403,314.852 246.913,313.300 246.657 C 312.475 246.520,287.631 246.407,258.090 246.404 L 204.380 246.400 203.990 245.374 C 203.378 243.765,203.466 166.694,204.080 166.080 C 205.037 165.123,395.872 165.414,396.386 166.374 C 396.614 166.799,396.802 167.834,396.805 168.674 C 396.807 169.513,397.099 171.190,397.453 172.400 C 397.807 173.610,398.243 176.670,398.422 179.200 C 398.891 185.841,399.229 188.400,399.639 188.400 C 399.853 188.400,400.000 149.896,400.000 94.200 L 400.000 0.000 313.200 0.000 C 236.311 0.000,226.400 0.069,226.400 0.600 M0.000 315.000 L 0.000 408.800 91.633 408.800 C 164.762 408.800,183.233 408.699,183.100 408.300 C 182.988 407.962,181.132 407.656,177.367 407.357 C 174.305 407.113,170.660 406.618,169.268 406.257 C 167.875 405.895,166.062 405.600,165.238 405.600 C 164.415 405.600,162.314 405.175,160.570 404.656 C 158.827 404.137,156.502 403.579,155.405 403.417 C 154.308 403.255,152.958 402.895,152.405 402.617 C 151.852 402.340,150.542 402.000,149.493 401.863 C 148.444 401.726,147.058 401.340,146.413 401.007 C 145.768 400.673,144.286 400.197,143.120 399.948 C 141.954 399.700,140.645 399.250,140.211 398.948 C 139.777 398.647,138.967 398.398,138.411 398.396 C 137.855 398.394,136.500 397.950,135.400 397.409 C 134.300 396.868,133.040 396.419,132.600 396.411 C 132.160 396.403,131.211 396.038,130.490 395.599 C 129.770 395.159,128.870 394.799,128.490 394.799 C 128.111 394.798,127.230 394.449,126.533 394.024 C 125.836 393.600,124.529 393.031,123.628 392.761 C 122.727 392.491,121.791 392.030,121.546 391.735 C 121.302 391.441,120.834 391.200,120.505 391.200 C 120.177 391.200,119.254 390.848,118.454 390.417 C 117.655 389.986,116.370 389.359,115.600 389.025 C 114.830 388.690,113.930 388.252,113.600 388.051 C 113.270 387.850,112.550 387.488,112.000 387.246 C 110.470 386.574,104.226 383.149,104.000 382.858 C 103.890 382.716,103.170 382.281,102.400 381.892 C 101.630 381.502,100.280 380.749,99.400 380.219 C 98.520 379.689,97.269 378.949,96.620 378.576 C 95.970 378.202,95.192 377.650,94.891 377.348 C 94.590 377.047,94.131 376.800,93.871 376.800 C 93.612 376.799,92.883 376.354,92.251 375.811 C 91.619 375.267,90.764 374.716,90.351 374.584 C 89.938 374.453,89.600 374.200,89.600 374.022 C 89.600 373.843,89.056 373.472,88.391 373.196 C 87.725 372.921,87.050 372.489,86.891 372.238 C 86.731 371.987,86.150 371.476,85.600 371.103 C 83.510 369.687,79.721 366.980,79.172 366.511 C 78.857 366.243,78.125 365.613,77.543 365.111 C 76.962 364.610,75.824 363.660,75.014 363.000 C 74.205 362.340,73.215 361.530,72.816 361.200 C 72.417 360.870,71.408 360.060,70.574 359.400 C 69.741 358.740,68.217 357.390,67.189 356.400 C 61.055 350.493,57.090 346.522,54.800 343.993 C 53.370 342.413,51.687 340.643,51.060 340.060 C 49.594 338.698,41.588 328.531,37.895 323.343 C 36.664 321.614,32.804 315.826,31.264 313.400 C 30.566 312.300,29.809 311.130,29.583 310.800 C 28.903 309.810,28.068 308.303,27.153 306.415 C 26.677 305.434,26.043 304.386,25.744 304.087 C 25.445 303.788,25.200 303.310,25.200 303.025 C 25.200 302.741,24.859 302.074,24.441 301.544 C 24.024 301.013,23.093 299.144,22.371 297.390 C 21.650 295.635,20.846 293.930,20.586 293.600 C 20.326 293.270,19.915 292.410,19.673 291.688 C 19.431 290.967,18.956 290.099,18.617 289.760 C 18.277 289.420,18.000 288.730,18.000 288.225 C 18.000 287.721,17.640 286.850,17.200 286.291 C 16.760 285.731,16.400 285.025,16.400 284.721 C 16.400 284.418,16.044 283.471,15.609 282.617 C 15.174 281.764,14.620 280.421,14.379 279.633 C 14.137 278.845,13.704 277.660,13.416 277.000 C 12.016 273.795,11.082 271.236,10.713 269.600 C 10.490 268.610,10.135 267.585,9.923 267.322 C 9.712 267.060,9.288 265.644,8.981 264.177 C 8.674 262.710,8.250 261.302,8.039 261.047 C 7.828 260.793,7.441 259.328,7.179 257.793 C 6.916 256.257,6.538 254.795,6.339 254.544 C 6.139 254.294,5.728 252.559,5.425 250.688 C 5.123 248.818,4.689 246.940,4.462 246.516 C 4.235 246.091,3.847 244.137,3.600 242.172 C 3.353 240.207,2.966 238.060,2.740 237.400 C 2.360 236.287,1.251 225.450,1.215 222.500 C 1.205 221.618,1.007 221.200,0.600 221.200 C 0.068 221.200,0.000 231.889,0.000 315.000 M399.032 233.500 C 398.898 234.545,398.616 237.650,398.406 240.400 C 398.196 243.150,397.756 246.120,397.429 247.000 C 397.102 247.880,396.825 249.500,396.813 250.600 C 396.801 251.700,396.503 253.590,396.151 254.800 C 395.799 256.010,395.289 258.350,395.018 260.000 C 394.746 261.650,394.226 263.861,393.862 264.914 C 393.498 265.967,393.200 267.347,393.200 267.981 C 393.200 268.615,392.862 269.922,392.449 270.886 C 392.036 271.850,391.566 273.440,391.404 274.419 C 391.243 275.399,390.771 276.955,390.356 277.878 C 389.940 278.801,389.600 279.978,389.600 280.493 C 389.600 281.009,389.242 282.134,388.804 282.993 C 388.366 283.852,387.894 285.195,387.755 285.978 C 387.616 286.760,387.186 287.940,386.800 288.600 C 386.414 289.260,385.981 290.457,385.838 291.260 C 385.695 292.063,385.314 292.940,384.989 293.209 C 384.665 293.478,384.398 293.991,384.396 294.349 C 384.394 294.707,383.950 295.900,383.409 297.000 C 382.868 298.100,382.419 299.291,382.413 299.646 C 382.406 300.001,382.069 300.721,381.664 301.246 C 381.259 301.771,380.727 302.790,380.481 303.512 C 380.235 304.233,379.756 305.101,379.417 305.440 C 379.077 305.780,378.800 306.459,378.800 306.951 C 378.800 307.442,378.350 308.455,377.800 309.200 C 377.250 309.945,376.800 310.778,376.800 311.049 C 376.800 311.321,376.543 311.799,376.230 312.113 C 375.916 312.427,375.369 313.295,375.014 314.042 C 373.730 316.743,372.699 318.604,372.370 318.813 C 372.186 318.930,371.802 319.561,371.517 320.215 C 371.000 321.403,368.799 324.906,366.000 328.996 C 365.670 329.478,364.930 330.576,364.355 331.436 C 363.291 333.029,360.888 336.088,359.801 337.234 C 359.471 337.582,359.200 338.037,359.200 338.244 C 359.200 338.452,358.705 339.181,358.100 339.864 C 357.495 340.547,356.280 341.972,355.400 343.031 C 354.520 344.091,353.395 345.380,352.900 345.897 C 352.405 346.414,352.000 346.926,352.000 347.036 C 352.000 347.276,335.882 363.370,334.190 364.819 C 330.597 367.897,328.171 369.768,323.600 372.987 C 322.830 373.529,321.480 374.515,320.600 375.178 C 319.720 375.841,318.595 376.562,318.100 376.782 C 317.605 377.001,317.200 377.343,317.200 377.542 C 317.200 377.740,316.615 378.134,315.900 378.417 C 315.185 378.700,314.284 379.201,313.897 379.530 C 313.033 380.267,311.834 380.975,310.000 381.834 C 309.230 382.195,308.507 382.638,308.392 382.819 C 308.116 383.258,303.025 386.029,298.800 388.041 C 296.930 388.932,294.745 390.007,293.946 390.430 C 293.146 390.854,292.223 391.200,291.895 391.200 C 291.566 391.200,291.075 391.469,290.802 391.797 C 290.530 392.126,289.563 392.592,288.653 392.834 C 287.744 393.076,286.718 393.526,286.374 393.832 C 286.029 394.139,285.129 394.511,284.374 394.658 C 283.618 394.804,282.373 395.257,281.606 395.662 C 280.839 396.068,279.849 396.406,279.406 396.413 C 278.963 396.419,277.700 396.868,276.600 397.409 C 275.500 397.950,274.276 398.394,273.880 398.396 C 273.484 398.398,272.638 398.670,272.000 399.000 C 271.362 399.330,269.886 399.801,268.720 400.047 C 267.554 400.292,266.396 400.657,266.147 400.857 C 265.897 401.057,264.304 401.486,262.607 401.811 C 260.910 402.136,259.314 402.530,259.060 402.688 C 258.807 402.845,256.980 403.281,255.000 403.657 C 253.020 404.033,250.320 404.621,249.000 404.964 C 247.680 405.307,245.864 405.590,244.964 405.594 C 244.064 405.597,242.444 405.866,241.364 406.191 C 240.284 406.516,237.151 406.972,234.401 407.204 C 228.601 407.694,227.600 407.871,227.600 408.408 C 227.600 408.663,257.716 408.800,313.800 408.800 L 400.000 408.800 400.000 320.200 C 400.000 238.648,399.869 226.957,399.032 233.500 " stroke="none" fill="#ffffff" fill-rule="evenodd"></path><path id="path1" d="M204.814 167.174 C 204.121 168.468,204.250 244.178,204.946 244.755 C 205.346 245.087,220.122 245.234,260.041 245.304 L 314.589 245.400 315.144 246.558 C 315.628 247.567,315.611 248.004,315.013 249.958 C 314.635 251.191,314.113 253.280,313.852 254.600 C 313.591 255.920,313.068 257.576,312.689 258.280 C 312.310 258.984,312.000 259.981,312.000 260.496 C 312.000 261.010,311.640 262.137,311.200 263.000 C 310.760 263.863,310.400 264.754,310.400 264.979 C 310.400 265.204,309.972 266.291,309.449 267.394 C 308.925 268.497,308.297 269.850,308.052 270.400 C 307.806 270.950,307.429 271.670,307.213 272.000 C 306.996 272.330,306.544 273.230,306.207 274.000 C 305.870 274.770,305.158 276.120,304.625 277.000 C 304.091 277.880,303.348 279.140,302.972 279.800 C 302.596 280.460,302.159 281.090,302.000 281.200 C 301.841 281.310,301.413 281.940,301.048 282.600 C 300.682 283.260,299.575 284.880,298.586 286.200 C 297.598 287.520,296.349 289.260,295.810 290.067 C 295.272 290.874,292.312 294.024,289.231 297.067 C 282.951 303.272,283.389 302.878,278.898 306.350 C 275.138 309.257,275.047 309.493,277.100 311.023 C 277.925 311.638,278.870 312.382,279.200 312.678 C 279.530 312.973,280.915 314.066,282.278 315.107 C 283.641 316.148,286.947 318.710,289.625 320.800 C 297.214 326.723,301.317 329.913,302.339 330.688 C 302.855 331.080,303.709 331.760,304.236 332.200 C 304.762 332.640,306.384 333.900,307.838 335.000 C 309.292 336.100,311.963 338.170,313.774 339.600 C 315.585 341.030,317.575 342.560,318.198 343.000 C 318.820 343.440,319.842 344.271,320.468 344.846 C 321.094 345.422,322.010 346.191,322.503 346.556 C 322.996 346.921,324.739 348.209,326.375 349.419 C 328.012 350.629,329.632 351.889,329.975 352.219 C 330.932 353.137,333.679 355.199,333.955 355.206 C 334.090 355.209,335.002 355.935,335.982 356.819 C 339.349 359.854,338.990 360.115,353.880 343.811 C 354.472 343.163,356.173 341.005,357.673 339.000 C 357.838 338.780,358.518 337.946,359.186 337.147 C 359.854 336.348,360.400 335.493,360.400 335.247 C 360.400 335.001,360.562 334.800,360.760 334.800 C 360.959 334.800,361.495 334.215,361.951 333.500 C 362.408 332.785,363.281 331.497,363.891 330.637 C 365.600 328.229,366.127 327.460,367.090 325.974 C 367.580 325.218,368.164 324.330,368.388 324.000 C 368.611 323.670,369.293 322.590,369.901 321.600 C 370.510 320.610,371.233 319.440,371.507 319.000 C 371.781 318.560,372.219 317.750,372.479 317.200 C 372.740 316.650,373.256 315.840,373.627 315.400 C 373.998 314.960,374.518 313.925,374.782 313.100 C 375.046 312.275,375.404 311.600,375.577 311.600 C 375.750 311.600,376.201 310.790,376.579 309.800 C 376.957 308.810,377.411 308.000,377.589 308.000 C 377.766 308.000,378.025 307.393,378.164 306.651 C 378.303 305.910,378.773 304.892,379.208 304.390 C 379.644 303.888,380.000 303.169,380.000 302.793 C 380.000 302.416,380.360 301.650,380.800 301.091 C 381.240 300.531,381.600 299.814,381.600 299.496 C 381.600 299.179,382.050 298.073,382.600 297.038 C 383.150 296.004,383.600 294.889,383.600 294.561 C 383.600 294.232,384.050 293.118,384.600 292.085 C 385.150 291.052,385.600 289.979,385.600 289.702 C 385.600 289.424,385.960 288.525,386.400 287.704 C 386.840 286.884,387.200 285.757,387.200 285.200 C 387.200 284.643,387.539 283.556,387.953 282.783 C 388.367 282.010,388.928 280.303,389.200 278.989 C 389.471 277.675,389.856 276.497,390.054 276.372 C 390.252 276.246,390.611 274.986,390.851 273.572 C 391.090 272.157,391.518 270.631,391.800 270.180 C 392.082 269.729,392.520 268.029,392.772 266.402 C 393.025 264.775,393.410 263.229,393.629 262.965 C 393.847 262.702,394.204 260.923,394.421 259.011 C 394.638 257.100,395.088 254.885,395.420 254.090 C 395.753 253.294,396.209 250.848,396.434 248.655 C 396.659 246.461,396.997 244.379,397.185 244.028 C 397.502 243.436,398.081 237.491,398.642 229.073 C 398.807 226.581,399.041 225.482,399.438 225.330 C 400.307 224.996,400.271 195.289,399.401 194.644 C 398.935 194.299,398.713 192.593,398.404 187.000 C 397.927 178.330,397.640 175.542,397.165 174.963 C 396.968 174.723,396.636 172.878,396.428 170.864 C 396.219 168.850,395.937 167.022,395.801 166.801 C 395.253 165.915,205.290 166.285,204.814 167.174 " stroke="none" fill="#5b79bd" fill-rule="evenodd"></path><path id="path2" d="M252.900 166.300 C 278.805 166.357,321.195 166.357,347.100 166.300 C 373.005 166.243,351.810 166.197,300.000 166.197 C 248.190 166.197,226.995 166.243,252.900 166.300 M204.192 206.200 C 204.192 227.100,204.241 235.709,204.300 225.330 C 204.359 214.952,204.359 197.852,204.300 187.330 C 204.241 176.809,204.192 185.300,204.192 206.200 M398.101 182.200 C 398.105 183.080,398.187 183.393,398.283 182.895 C 398.379 182.398,398.375 181.678,398.275 181.295 C 398.175 180.913,398.096 181.320,398.101 182.200 M398.493 190.000 C 398.493 190.770,398.575 191.085,398.676 190.700 C 398.776 190.315,398.776 189.685,398.676 189.300 C 398.575 188.915,398.493 189.230,398.493 190.000 M398.868 193.408 C 398.940 194.030,399.225 194.612,399.500 194.702 C 400.213 194.937,400.119 193.662,399.368 192.910 C 398.791 192.334,398.747 192.378,398.868 193.408 M399.067 225.467 C 398.920 225.613,398.800 226.076,398.800 226.495 C 398.800 227.172,398.867 227.190,399.400 226.657 C 399.730 226.327,400.000 225.864,400.000 225.629 C 400.000 225.149,399.475 225.058,399.067 225.467 M398.493 230.000 C 398.493 230.770,398.575 231.085,398.676 230.700 C 398.776 230.315,398.776 229.685,398.676 229.300 C 398.575 228.915,398.493 229.230,398.493 230.000 M86.555 246.174 C 86.091 246.628,85.231 247.360,84.645 247.800 C 84.059 248.240,83.311 248.841,82.983 249.136 C 82.654 249.431,81.505 250.277,80.430 251.017 C 79.354 251.757,78.033 252.776,77.494 253.281 C 76.955 253.787,76.034 254.560,75.447 255.000 C 74.860 255.440,74.159 255.980,73.890 256.200 C 73.620 256.420,72.535 257.230,71.477 258.000 C 70.419 258.770,68.889 260.008,68.077 260.751 C 67.265 261.494,65.898 262.574,65.040 263.151 C 64.182 263.728,63.213 264.380,62.887 264.600 C 62.560 264.820,61.893 265.360,61.404 265.800 C 60.915 266.240,60.032 266.960,59.442 267.400 C 58.852 267.840,57.899 268.605,57.326 269.100 C 56.752 269.595,56.156 270.000,56.001 270.000 C 55.846 270.000,55.175 270.495,54.510 271.100 C 53.845 271.705,52.821 272.560,52.235 273.000 C 51.648 273.440,50.861 274.078,50.484 274.417 C 50.108 274.757,48.765 275.732,47.500 276.584 C 46.235 277.436,45.200 278.259,45.200 278.412 C 45.200 278.566,44.435 279.210,43.500 279.844 C 41.432 281.245,37.310 284.468,36.158 285.584 C 35.695 286.033,35.153 286.400,34.954 286.400 C 34.755 286.400,34.368 286.760,34.093 287.200 C 33.818 287.640,33.394 288.000,33.149 288.000 C 32.905 288.000,32.116 288.495,31.396 289.100 C 30.676 289.705,29.606 290.560,29.019 291.000 C 28.431 291.440,27.569 292.205,27.103 292.700 C 26.637 293.195,26.110 293.600,25.931 293.600 C 25.752 293.600,25.200 293.953,24.703 294.384 C 24.206 294.815,23.484 295.400,23.098 295.684 C 22.395 296.201,23.399 300.172,24.391 300.799 C 24.566 300.909,25.008 301.630,25.373 302.400 C 25.737 303.170,26.554 304.700,27.187 305.800 C 27.820 306.900,28.628 308.340,28.983 309.000 C 29.859 310.630,31.076 312.592,33.099 315.640 C 35.559 319.346,35.691 319.540,36.900 321.244 C 37.505 322.096,38.000 322.895,38.000 323.020 C 38.000 323.422,47.544 335.391,51.404 339.830 C 59.919 349.623,76.974 364.984,86.232 371.200 C 91.255 374.572,94.121 376.470,95.800 377.536 C 98.156 379.032,98.535 379.277,100.459 380.553 C 101.261 381.085,102.315 381.646,102.800 381.800 C 103.285 381.954,104.323 382.515,105.106 383.046 C 105.889 383.577,108.345 384.916,110.565 386.020 C 112.784 387.125,114.870 388.190,115.200 388.387 C 115.530 388.584,117.060 389.315,118.600 390.010 C 120.140 390.706,121.940 391.518,122.600 391.816 C 126.373 393.519,128.311 394.338,129.200 394.606 C 129.750 394.772,130.555 395.154,130.989 395.454 C 131.423 395.754,132.126 396.000,132.550 396.000 C 132.975 396.000,134.240 396.434,135.361 396.964 C 136.483 397.494,138.120 398.061,139.000 398.224 C 139.880 398.387,140.960 398.746,141.400 399.022 C 141.840 399.298,142.986 399.650,143.946 399.805 C 144.907 399.959,146.437 400.412,147.346 400.810 C 148.256 401.208,149.900 401.661,151.000 401.817 C 152.100 401.973,153.198 402.258,153.439 402.449 C 153.681 402.640,155.402 403.063,157.264 403.387 C 159.126 403.712,161.268 404.235,162.025 404.548 C 162.781 404.862,165.020 405.248,167.000 405.407 C 168.980 405.565,170.812 405.865,171.072 406.073 C 171.523 406.435,175.335 406.868,182.908 407.418 C 185.090 407.577,186.629 407.886,186.979 408.237 C 187.795 409.052,221.380 409.077,222.194 408.263 C 222.561 407.896,225.014 407.568,229.943 407.226 C 233.909 406.951,237.840 406.549,238.677 406.332 C 239.515 406.116,242.036 405.693,244.280 405.394 C 246.523 405.095,248.683 404.678,249.080 404.468 C 249.476 404.257,251.240 403.861,253.000 403.588 C 254.760 403.314,256.758 402.866,257.439 402.591 C 258.120 402.317,259.650 401.961,260.839 401.802 C 262.028 401.642,263.630 401.250,264.400 400.931 C 265.170 400.612,266.790 400.100,268.000 399.795 C 270.839 399.078,273.739 398.130,276.000 397.181 C 276.990 396.765,278.557 396.234,279.483 396.002 C 280.409 395.769,281.262 395.424,281.379 395.234 C 281.496 395.045,282.232 394.770,283.016 394.623 C 283.799 394.477,285.268 393.916,286.280 393.378 C 287.291 392.840,288.430 392.400,288.811 392.400 C 289.191 392.400,289.726 392.130,290.000 391.800 C 290.274 391.470,290.687 391.200,290.917 391.200 C 291.723 391.200,303.671 385.318,306.400 383.578 C 307.390 382.946,308.740 382.153,309.400 381.814 C 310.060 381.475,311.410 380.661,312.400 380.005 C 313.390 379.349,314.650 378.591,315.200 378.320 C 316.264 377.796,318.651 376.130,319.529 375.300 C 319.819 375.025,320.200 374.800,320.374 374.800 C 320.640 374.800,321.545 374.161,324.200 372.099 C 324.420 371.928,325.590 371.071,326.800 370.195 C 329.238 368.430,330.069 367.782,331.414 366.600 C 331.914 366.160,333.195 365.080,334.260 364.200 C 335.326 363.320,336.952 361.796,337.874 360.814 L 339.551 359.027 338.456 358.567 C 337.853 358.313,336.649 357.453,335.780 356.655 C 334.911 355.857,334.090 355.203,333.955 355.202 C 333.681 355.200,330.941 353.146,329.975 352.219 C 329.632 351.889,328.012 350.629,326.375 349.419 C 324.739 348.209,322.996 346.921,322.503 346.556 C 322.010 346.191,321.094 345.422,320.468 344.846 C 319.842 344.271,318.820 343.440,318.198 343.000 C 317.575 342.560,315.585 341.030,313.774 339.600 C 311.963 338.170,309.292 336.100,307.838 335.000 C 306.384 333.900,304.762 332.640,304.236 332.200 C 303.709 331.760,302.855 331.080,302.339 330.688 C 301.317 329.913,297.214 326.723,289.625 320.800 C 286.947 318.710,283.641 316.139,282.278 315.087 C 278.109 311.869,277.072 311.033,276.153 310.152 L 275.268 309.304 273.734 310.237 C 272.890 310.750,271.812 311.346,271.339 311.560 C 270.865 311.775,270.358 312.144,270.212 312.381 C 270.065 312.618,269.373 313.084,268.673 313.417 C 267.973 313.750,266.500 314.562,265.400 315.222 C 264.300 315.882,263.060 316.534,262.645 316.672 C 262.229 316.810,261.095 317.345,260.123 317.861 C 259.152 318.378,258.031 318.800,257.633 318.800 C 257.234 318.800,256.450 319.160,255.891 319.600 C 255.331 320.040,254.632 320.402,254.337 320.404 C 254.042 320.406,252.900 320.850,251.800 321.391 C 250.700 321.932,249.386 322.381,248.880 322.387 C 248.374 322.394,247.397 322.691,246.709 323.047 C 245.282 323.785,240.547 325.069,237.000 325.680 C 235.680 325.907,233.790 326.356,232.800 326.677 C 222.233 330.105,190.253 330.161,179.800 326.771 C 178.480 326.342,176.950 325.993,176.400 325.994 C 175.850 325.995,174.140 325.551,172.600 325.007 C 171.060 324.462,169.440 324.014,169.000 324.010 C 168.560 324.006,167.480 323.662,166.600 323.246 C 165.720 322.829,164.370 322.267,163.600 321.995 C 159.612 320.587,158.515 320.129,157.611 319.494 C 157.067 319.112,156.320 318.800,155.952 318.800 C 155.583 318.800,154.498 318.352,153.541 317.805 C 152.583 317.257,151.513 316.807,151.162 316.805 C 150.811 316.802,150.198 316.440,149.800 316.000 C 149.402 315.560,148.755 315.200,148.362 315.200 C 147.969 315.200,147.547 315.037,147.424 314.838 C 147.193 314.466,143.151 312.035,141.895 311.514 C 141.507 311.354,140.967 311.026,140.695 310.787 C 140.423 310.548,139.582 309.958,138.826 309.476 C 138.070 308.994,137.062 308.330,136.586 308.000 C 136.109 307.670,135.197 307.048,134.560 306.617 C 133.922 306.187,132.938 305.467,132.374 305.017 C 131.810 304.568,130.834 303.840,130.205 303.400 C 129.576 302.960,128.666 302.195,128.185 301.700 C 127.703 301.205,127.223 300.800,127.118 300.800 C 126.494 300.800,117.944 292.508,114.322 288.390 C 113.070 286.965,111.292 284.951,110.373 283.913 C 109.453 282.875,107.608 280.445,106.272 278.513 C 104.937 276.581,103.697 274.820,103.516 274.600 C 102.900 273.847,101.200 271.165,101.200 270.944 C 101.200 270.823,100.795 270.156,100.301 269.462 C 99.294 268.049,98.942 267.422,96.445 262.581 C 95.479 260.710,94.555 259.096,94.390 258.994 C 94.225 258.892,93.976 258.195,93.835 257.445 C 93.694 256.694,93.331 255.875,93.029 255.624 C 92.726 255.373,92.360 254.680,92.216 254.084 C 92.071 253.488,91.616 252.280,91.205 251.400 C 90.794 250.520,90.258 249.036,90.014 248.103 C 89.419 245.824,87.824 244.934,86.555 246.174 M260.400 245.498 C 310.417 245.591,314.235 245.646,314.700 246.276 C 314.975 246.648,315.200 246.775,315.200 246.556 C 315.200 245.202,315.032 245.199,260.420 245.299 L 206.600 245.397 260.400 245.498 M347.600 350.600 C 346.628 351.590,345.923 352.400,346.033 352.400 C 346.143 352.400,347.028 351.590,348.000 350.600 C 348.972 349.610,349.677 348.800,349.567 348.800 C 349.457 348.800,348.572 349.610,347.600 350.600 " stroke="none" fill="#2faa58" fill-rule="evenodd"></path><path id="path3" d="M190.800 0.552 C 190.800 1.167,189.437 1.345,179.913 1.971 C 176.675 2.184,173.678 2.544,173.254 2.771 C 172.829 2.998,170.709 3.385,168.541 3.631 C 166.373 3.877,163.880 4.352,163.000 4.686 C 162.120 5.020,160.140 5.439,158.600 5.617 C 157.060 5.795,155.281 6.211,154.648 6.540 C 154.014 6.870,152.574 7.264,151.448 7.417 C 150.321 7.570,148.732 8.034,147.916 8.448 C 147.100 8.861,145.927 9.200,145.310 9.200 C 144.693 9.200,143.561 9.534,142.794 9.941 C 142.027 10.349,140.688 10.814,139.819 10.975 C 138.949 11.135,137.561 11.612,136.735 12.033 C 135.908 12.455,134.910 12.806,134.516 12.813 C 134.122 12.819,132.900 13.268,131.800 13.809 C 130.700 14.350,129.468 14.794,129.063 14.796 C 128.658 14.798,127.869 15.160,127.309 15.600 C 126.750 16.040,125.966 16.400,125.567 16.400 C 125.169 16.400,123.996 16.850,122.962 17.400 C 121.927 17.950,120.793 18.404,120.440 18.409 C 120.088 18.414,119.350 18.770,118.800 19.200 C 118.250 19.630,117.509 19.986,117.154 19.991 C 116.799 19.996,116.048 20.362,115.486 20.804 C 114.925 21.245,113.919 21.716,113.253 21.849 C 112.586 21.983,111.734 22.431,111.358 22.846 C 110.983 23.261,110.357 23.600,109.967 23.600 C 109.576 23.600,108.981 23.877,108.643 24.215 C 108.305 24.553,107.404 25.090,106.641 25.408 C 105.879 25.727,105.151 26.156,105.024 26.361 C 104.897 26.566,103.452 27.397,101.813 28.207 C 100.173 29.017,98.623 29.932,98.367 30.240 C 98.111 30.548,97.718 30.800,97.492 30.800 C 97.267 30.800,96.097 31.475,94.892 32.300 C 93.688 33.125,92.303 34.070,91.815 34.400 C 91.327 34.730,90.224 35.493,89.364 36.096 C 88.504 36.699,86.725 37.917,85.412 38.803 C 84.099 39.688,82.875 40.680,82.692 41.007 C 82.510 41.333,82.170 41.600,81.938 41.600 C 81.706 41.600,80.950 42.048,80.258 42.596 C 79.566 43.145,78.567 43.910,78.039 44.296 C 77.510 44.683,76.160 45.821,75.039 46.825 C 73.917 47.829,71.830 49.636,70.400 50.842 C 63.594 56.580,53.543 66.696,49.575 71.800 C 48.891 72.680,48.032 73.713,47.666 74.096 C 45.915 75.926,45.236 76.720,44.164 78.200 C 43.526 79.080,42.914 79.890,42.802 80.000 C 42.185 80.611,39.100 84.878,38.200 86.368 C 37.980 86.732,37.564 87.293,37.276 87.615 C 36.988 87.937,36.358 88.818,35.876 89.574 C 35.394 90.330,34.730 91.342,34.400 91.825 C 34.070 92.307,33.125 93.688,32.300 94.892 C 31.475 96.097,30.800 97.230,30.800 97.410 C 30.800 97.590,30.513 98.054,30.163 98.441 C 29.469 99.208,28.418 101.006,27.382 103.200 C 27.018 103.970,26.490 104.870,26.207 105.200 C 25.925 105.530,25.559 106.250,25.393 106.800 C 25.228 107.350,24.954 107.890,24.785 108.000 C 24.616 108.110,24.029 109.215,23.481 110.455 L 22.484 112.710 25.213 114.955 C 26.714 116.190,28.037 117.200,28.153 117.200 C 28.269 117.200,28.786 117.605,29.302 118.100 C 30.871 119.606,32.545 120.800,33.087 120.800 C 33.369 120.800,33.600 120.947,33.600 121.126 C 33.600 121.305,34.957 122.520,36.617 123.826 C 43.542 129.276,45.914 131.109,47.978 132.604 C 49.175 133.472,50.615 134.611,51.178 135.134 C 51.740 135.658,53.640 137.153,55.400 138.456 C 57.160 139.759,59.355 141.473,60.277 142.264 C 61.200 143.056,62.392 143.995,62.927 144.352 C 65.115 145.810,66.211 146.595,66.400 146.841 C 66.676 147.199,71.422 150.981,74.633 153.400 C 76.092 154.500,77.492 155.592,77.743 155.826 C 77.994 156.061,79.190 156.933,80.400 157.764 C 81.610 158.595,82.690 159.397,82.800 159.547 C 85.856 163.684,89.181 164.043,89.979 160.322 C 90.226 159.173,90.660 157.955,90.945 157.616 C 91.229 157.277,91.680 156.235,91.947 155.300 C 92.214 154.365,92.581 153.600,92.764 153.600 C 92.947 153.600,93.322 152.793,93.598 151.808 C 93.874 150.822,94.347 149.810,94.650 149.559 C 94.952 149.308,95.200 148.788,95.200 148.405 C 95.200 148.022,95.540 147.276,95.956 146.747 C 96.371 146.219,96.998 145.160,97.348 144.393 C 97.698 143.627,98.208 142.640,98.482 142.200 C 98.756 141.760,99.363 140.770,99.830 140.000 C 101.222 137.708,104.760 132.261,105.417 131.400 C 106.406 130.105,108.139 127.765,109.000 126.564 C 109.440 125.950,110.250 124.958,110.800 124.360 C 111.350 123.761,112.520 122.435,113.400 121.412 C 118.393 115.613,127.936 106.735,132.978 103.200 C 135.279 101.587,135.718 101.266,137.355 100.001 C 138.210 99.341,139.133 98.800,139.406 98.800 C 139.679 98.800,140.135 98.520,140.419 98.177 C 140.704 97.834,141.491 97.293,142.168 96.974 C 142.846 96.655,144.120 95.953,145.000 95.414 C 145.880 94.875,147.320 94.069,148.200 93.622 C 149.080 93.175,150.070 92.644,150.400 92.440 C 150.730 92.237,152.035 91.605,153.300 91.035 C 154.565 90.466,156.545 89.565,157.700 89.033 C 158.855 88.501,160.250 87.936,160.800 87.779 C 161.350 87.621,162.155 87.246,162.589 86.946 C 163.023 86.646,163.800 86.400,164.315 86.400 C 164.830 86.400,166.095 86.054,167.126 85.631 C 168.157 85.208,169.990 84.639,171.200 84.368 C 172.410 84.096,173.979 83.632,174.687 83.337 C 175.395 83.042,176.745 82.796,177.687 82.791 C 178.629 82.786,180.130 82.451,181.022 82.045 C 181.915 81.640,184.075 81.178,185.822 81.019 C 187.570 80.860,190.350 80.467,192.000 80.146 C 196.191 79.330,206.186 79.014,211.000 79.546 C 221.297 80.684,227.535 81.586,229.000 82.150 C 229.880 82.488,231.268 82.773,232.085 82.782 C 232.902 82.792,234.432 83.138,235.485 83.551 C 236.538 83.964,238.154 84.428,239.077 84.582 C 239.999 84.736,241.432 85.208,242.261 85.631 C 243.091 86.054,244.136 86.401,244.585 86.403 C 245.033 86.404,245.940 86.763,246.600 87.200 C 247.260 87.637,248.088 87.996,248.440 87.997 C 248.793 87.999,249.873 88.420,250.840 88.933 C 251.808 89.447,253.095 89.990,253.700 90.141 C 254.305 90.292,254.800 90.592,254.800 90.808 C 254.800 91.023,254.989 91.200,255.219 91.200 C 256.040 91.200,263.759 95.305,265.000 96.401 C 265.440 96.790,266.205 97.231,266.700 97.381 C 267.195 97.531,267.600 97.793,267.600 97.963 C 267.600 98.133,268.014 98.460,268.520 98.691 C 270.025 99.376,277.228 104.970,279.633 107.321 C 280.862 108.522,282.265 109.630,282.752 109.785 C 283.506 110.024,334.347 60.016,339.326 54.137 C 340.041 53.293,340.023 53.254,338.102 51.457 C 335.283 48.820,324.482 40.000,324.072 40.000 C 323.880 40.000,323.381 39.619,322.962 39.154 C 322.543 38.689,321.840 38.148,321.400 37.953 C 320.960 37.757,319.790 36.968,318.800 36.200 C 317.810 35.432,316.590 34.625,316.090 34.408 C 315.589 34.190,315.075 33.739,314.947 33.406 C 314.819 33.073,314.518 32.800,314.279 32.800 C 314.039 32.800,313.203 32.377,312.422 31.859 C 309.536 29.949,305.371 27.357,304.400 26.866 C 303.850 26.589,302.680 25.923,301.800 25.386 C 300.920 24.850,299.480 24.051,298.600 23.611 C 297.720 23.170,296.730 22.647,296.400 22.448 C 296.070 22.248,295.350 21.888,294.800 21.646 C 294.250 21.404,293.530 21.029,293.200 20.813 C 292.870 20.596,291.970 20.149,291.200 19.818 C 290.430 19.487,289.530 19.057,289.200 18.862 C 287.530 17.877,284.029 16.400,283.360 16.397 C 282.942 16.396,282.060 16.037,281.400 15.600 C 280.740 15.163,279.930 14.802,279.600 14.799 C 279.270 14.796,278.100 14.350,277.000 13.809 C 275.900 13.268,274.640 12.819,274.200 12.811 C 273.760 12.803,272.833 12.451,272.141 12.029 C 271.448 11.607,270.044 11.136,269.021 10.982 C 267.998 10.829,266.919 10.462,266.625 10.168 C 266.330 9.873,264.967 9.451,263.596 9.230 C 262.225 9.010,260.716 8.575,260.243 8.265 C 259.770 7.955,258.576 7.575,257.591 7.422 C 256.606 7.268,254.764 6.795,253.498 6.371 C 252.233 5.947,250.574 5.600,249.813 5.600 C 249.053 5.600,247.478 5.254,246.315 4.831 C 245.152 4.408,242.850 3.936,241.200 3.782 C 239.550 3.627,237.210 3.239,236.000 2.918 C 234.790 2.598,231.190 2.172,228.000 1.972 C 218.065 1.351,216.400 1.146,216.400 0.546 C 216.400 0.096,214.151 0.000,203.600 0.000 C 192.984 0.000,190.800 0.094,190.800 0.552 " stroke="none" fill="#e94735" fill-rule="evenodd"></path><path id="path4" d="M181.200 0.600 C 181.200 1.058,180.699 1.200,179.090 1.200 C 176.186 1.200,170.436 1.952,169.497 2.455 C 169.071 2.683,167.135 3.019,165.194 3.201 C 163.253 3.383,161.065 3.802,160.333 4.133 C 159.600 4.464,157.920 4.856,156.600 5.006 C 155.280 5.155,153.445 5.620,152.522 6.039 C 151.599 6.457,150.249 6.801,149.522 6.801 C 148.795 6.802,147.654 7.136,146.986 7.543 C 146.319 7.950,144.954 8.406,143.953 8.556 C 142.953 8.706,141.475 9.182,140.669 9.614 C 139.862 10.046,138.707 10.401,138.101 10.401 C 137.496 10.402,136.411 10.762,135.690 11.201 C 134.970 11.641,134.052 12.000,133.650 12.000 C 133.248 12.000,132.073 12.450,131.038 13.000 C 130.004 13.550,128.741 14.000,128.233 14.000 C 127.724 14.000,126.850 14.360,126.291 14.800 C 125.731 15.240,125.014 15.600,124.696 15.600 C 124.379 15.600,123.273 16.050,122.238 16.600 C 121.204 17.150,120.031 17.600,119.633 17.600 C 119.234 17.600,118.479 17.935,117.954 18.345 C 117.429 18.755,116.550 19.229,116.000 19.400 C 115.450 19.571,114.571 20.045,114.046 20.455 C 113.521 20.865,112.791 21.200,112.424 21.200 C 112.056 21.200,111.145 21.650,110.400 22.200 C 109.655 22.750,108.883 23.200,108.685 23.200 C 108.488 23.200,107.869 23.560,107.309 24.000 C 106.750 24.440,105.967 24.800,105.569 24.800 C 105.171 24.800,104.610 25.131,104.323 25.535 C 104.035 25.940,103.299 26.395,102.687 26.546 C 102.074 26.698,101.269 27.177,100.898 27.611 C 100.526 28.045,99.902 28.400,99.511 28.400 C 99.120 28.400,98.483 28.715,98.095 29.100 C 97.706 29.485,96.890 30.024,96.279 30.298 C 95.669 30.572,94.952 30.980,94.685 31.205 C 93.645 32.082,91.356 33.599,90.500 33.980 C 90.005 34.200,89.600 34.547,89.600 34.751 C 89.600 34.955,89.058 35.311,88.395 35.542 C 87.732 35.773,87.083 36.241,86.952 36.581 C 86.821 36.921,86.464 37.200,86.157 37.200 C 85.851 37.200,85.198 37.605,84.707 38.100 C 84.216 38.595,83.522 39.180,83.165 39.400 C 81.129 40.652,79.241 42.037,78.058 43.144 C 77.319 43.835,76.606 44.400,76.472 44.400 C 76.338 44.400,75.862 44.747,75.414 45.172 C 73.317 47.160,72.412 47.929,72.017 48.061 C 70.314 48.629,49.742 69.282,48.084 72.089 C 47.723 72.700,47.313 73.200,47.173 73.200 C 47.033 73.200,46.058 74.294,45.008 75.631 C 43.957 76.968,42.581 78.629,41.949 79.320 C 41.317 80.012,40.800 80.799,40.800 81.069 C 40.800 81.339,40.571 81.704,40.290 81.880 C 40.010 82.056,39.425 82.720,38.990 83.356 C 38.556 83.992,37.794 85.072,37.299 85.756 C 36.375 87.031,34.536 89.704,33.808 90.832 C 32.896 92.245,31.595 94.236,31.215 94.800 C 29.016 98.069,28.414 99.063,28.407 99.438 C 28.403 99.679,27.950 100.399,27.400 101.038 C 26.851 101.677,26.401 102.493,26.400 102.851 C 26.400 103.209,26.139 103.718,25.820 103.983 C 25.502 104.248,25.038 105.080,24.789 105.832 C 24.541 106.584,24.186 107.200,24.000 107.200 C 23.814 107.200,23.442 107.875,23.173 108.700 C 22.904 109.525,22.350 110.629,21.942 111.154 C 21.534 111.679,21.200 112.692,21.200 113.405 C 21.200 114.118,20.942 114.917,20.626 115.179 C 20.310 115.441,19.938 116.170,19.800 116.800 C 19.662 117.430,19.302 118.150,19.000 118.400 C 18.698 118.650,18.332 119.428,18.186 120.128 C 18.041 120.827,17.673 121.793,17.370 122.272 C 16.760 123.236,15.518 126.240,14.358 129.557 C 13.943 130.743,13.443 131.913,13.248 132.157 C 13.052 132.401,12.764 133.230,12.607 134.000 C 12.450 134.770,12.088 135.770,11.803 136.222 C 11.303 137.014,10.817 138.567,9.180 144.600 C 8.763 146.140,8.256 147.681,8.055 148.024 C 7.853 148.367,7.478 149.717,7.220 151.024 C 6.962 152.331,6.511 154.033,6.216 154.807 C 5.922 155.581,5.550 157.291,5.389 158.607 C 5.229 159.923,4.859 161.470,4.567 162.045 C 4.275 162.620,3.840 164.668,3.600 166.596 C 3.361 168.524,2.913 171.204,2.606 172.551 C 2.299 173.898,1.829 177.925,1.562 181.500 C 1.193 186.437,0.947 188.000,0.538 188.000 C 0.096 188.000,0.000 190.961,0.000 204.600 C 0.000 219.089,0.076 221.200,0.600 221.200 C 1.007 221.200,1.205 221.618,1.215 222.500 C 1.251 225.450,2.360 236.287,2.740 237.400 C 2.966 238.060,3.353 240.207,3.600 242.172 C 3.847 244.137,4.235 246.091,4.462 246.516 C 4.689 246.940,5.123 248.818,5.425 250.688 C 5.728 252.559,6.139 254.294,6.339 254.544 C 6.538 254.795,6.916 256.257,7.179 257.793 C 7.441 259.328,7.828 260.793,8.039 261.047 C 8.250 261.302,8.674 262.710,8.981 264.177 C 9.288 265.644,9.712 267.060,9.923 267.322 C 10.135 267.585,10.490 268.610,10.713 269.600 C 11.082 271.236,12.016 273.795,13.416 277.000 C 13.704 277.660,14.137 278.845,14.379 279.633 C 14.620 280.421,15.174 281.764,15.609 282.617 C 16.044 283.471,16.400 284.418,16.400 284.721 C 16.400 285.025,16.760 285.731,17.200 286.291 C 17.640 286.850,18.000 287.721,18.000 288.225 C 18.000 288.730,18.277 289.420,18.617 289.760 C 18.956 290.099,19.431 290.967,19.673 291.688 C 19.915 292.410,20.326 293.270,20.586 293.600 C 20.846 293.930,21.650 295.635,22.371 297.390 C 23.601 300.381,25.200 303.033,25.200 302.083 C 25.200 301.849,24.937 301.394,24.615 301.072 C 23.311 299.768,22.322 296.255,23.098 295.684 C 23.484 295.400,24.206 294.815,24.703 294.384 C 25.200 293.953,25.752 293.600,25.931 293.600 C 26.110 293.600,26.637 293.195,27.103 292.700 C 27.569 292.205,28.431 291.440,29.019 291.000 C 29.606 290.560,30.676 289.705,31.396 289.100 C 32.116 288.495,32.905 288.000,33.149 288.000 C 33.394 288.000,33.818 287.640,34.093 287.200 C 34.368 286.760,34.755 286.400,34.954 286.400 C 35.153 286.400,35.695 286.033,36.158 285.584 C 37.310 284.468,41.432 281.245,43.500 279.844 C 44.435 279.210,45.200 278.566,45.200 278.412 C 45.200 278.259,46.235 277.436,47.500 276.584 C 48.765 275.732,50.108 274.757,50.484 274.417 C 50.861 274.078,51.648 273.440,52.235 273.000 C 52.821 272.560,53.845 271.705,54.510 271.100 C 55.175 270.495,55.846 270.000,56.001 270.000 C 56.156 270.000,56.752 269.595,57.326 269.100 C 57.899 268.605,58.852 267.840,59.442 267.400 C 60.032 266.960,60.915 266.240,61.404 265.800 C 61.893 265.360,62.560 264.820,62.887 264.600 C 63.213 264.380,64.182 263.728,65.040 263.151 C 65.898 262.574,67.265 261.494,68.077 260.751 C 68.889 260.008,70.419 258.770,71.477 258.000 C 72.535 257.230,73.620 256.420,73.890 256.200 C 74.159 255.980,74.860 255.440,75.447 255.000 C 76.034 254.560,76.955 253.787,77.494 253.281 C 78.033 252.776,79.354 251.757,80.430 251.017 C 81.505 250.277,82.654 249.431,82.983 249.136 C 83.311 248.841,84.060 248.240,84.647 247.800 C 85.234 247.360,86.118 246.624,86.611 246.165 C 87.794 245.062,89.405 245.806,89.955 247.708 C 90.160 248.419,90.344 248.697,90.364 248.326 C 90.410 247.465,89.663 245.486,89.180 245.187 C 88.976 245.062,88.632 244.023,88.415 242.880 C 88.198 241.736,87.746 240.269,87.410 239.620 C 87.075 238.971,86.800 238.110,86.800 237.707 C 86.800 237.304,86.519 235.990,86.176 234.787 C 85.391 232.034,84.173 225.779,83.428 220.678 C 82.159 211.989,82.288 191.428,83.649 185.268 C 83.876 184.241,84.316 181.780,84.627 179.800 C 84.938 177.820,85.363 175.906,85.571 175.547 C 85.778 175.188,86.225 173.552,86.564 171.912 C 86.903 170.272,87.454 168.405,87.788 167.765 C 88.122 167.124,88.396 166.220,88.398 165.756 C 88.399 165.292,88.838 164.583,89.373 164.182 C 90.074 163.655,90.421 162.902,90.616 161.482 C 90.766 160.390,91.224 159.176,91.644 158.756 C 92.060 158.340,92.400 157.488,92.400 156.862 C 92.400 156.236,92.742 155.414,93.160 155.036 C 93.579 154.657,94.041 153.709,94.187 152.929 C 94.333 152.148,94.801 151.136,95.227 150.679 C 95.652 150.223,96.000 149.461,96.000 148.987 C 96.000 148.512,96.360 147.798,96.800 147.400 C 97.240 147.002,97.600 146.358,97.600 145.969 C 97.600 145.580,98.050 144.727,98.600 144.073 C 99.150 143.419,99.600 142.618,99.600 142.291 C 99.600 141.965,99.885 141.461,100.234 141.172 C 100.583 140.882,101.143 139.960,101.478 139.123 C 101.813 138.285,102.230 137.600,102.404 137.600 C 102.579 137.600,102.910 137.060,103.140 136.400 C 103.370 135.740,103.757 135.200,104.000 135.200 C 104.242 135.200,104.691 134.601,104.997 133.868 C 105.303 133.136,105.834 132.304,106.177 132.019 C 106.520 131.735,106.800 131.335,106.800 131.131 C 106.800 130.927,107.448 130.094,108.240 129.280 C 109.032 128.466,109.959 127.260,110.299 126.600 C 110.640 125.940,111.252 125.165,111.660 124.877 C 112.067 124.590,112.400 124.192,112.400 123.993 C 112.400 123.795,113.120 122.898,114.000 122.000 C 114.880 121.102,115.600 120.207,115.600 120.011 C 115.600 119.815,115.960 119.540,116.400 119.400 C 116.840 119.260,117.200 118.998,117.200 118.817 C 117.200 118.377,122.009 113.600,122.452 113.600 C 122.643 113.600,122.800 113.330,122.800 113.000 C 122.800 112.670,122.957 112.400,123.150 112.400 C 123.342 112.400,124.345 111.590,125.378 110.600 C 126.412 109.610,127.373 108.800,127.514 108.800 C 127.656 108.800,128.138 108.436,128.586 107.991 C 129.034 107.546,130.120 106.637,131.000 105.970 C 133.487 104.087,134.796 103.054,135.545 102.383 C 135.924 102.043,136.812 101.527,137.517 101.234 C 138.223 100.942,138.800 100.547,138.800 100.357 C 138.800 100.166,139.430 99.748,140.200 99.426 C 140.970 99.104,141.600 98.652,141.600 98.420 C 141.600 98.189,141.946 98.000,142.369 98.000 C 142.792 98.000,143.660 97.562,144.296 97.026 C 144.933 96.490,145.924 95.934,146.498 95.790 C 147.072 95.646,147.639 95.274,147.759 94.964 C 147.878 94.654,148.316 94.400,148.734 94.400 C 149.151 94.400,149.958 94.034,150.527 93.586 C 151.097 93.138,152.156 92.572,152.881 92.329 C 153.607 92.086,154.470 91.673,154.800 91.412 C 155.130 91.151,156.144 90.726,157.053 90.467 C 157.961 90.208,158.928 89.727,159.202 89.398 C 159.475 89.069,160.088 88.800,160.564 88.800 C 161.041 88.800,162.096 88.461,162.909 88.046 C 163.722 87.632,165.170 87.175,166.126 87.032 C 167.083 86.888,168.481 86.444,169.233 86.045 C 169.985 85.646,171.565 85.193,172.744 85.040 C 173.923 84.886,175.273 84.520,175.744 84.227 C 176.215 83.933,177.839 83.575,179.352 83.430 C 180.866 83.285,182.756 82.887,183.552 82.546 C 188.849 80.273,219.624 80.264,225.800 82.533 C 226.680 82.856,228.660 83.254,230.200 83.417 C 231.740 83.580,233.360 83.947,233.800 84.233 C 234.240 84.519,235.590 84.875,236.800 85.026 C 238.010 85.176,239.562 85.637,240.248 86.050 C 240.935 86.463,242.330 86.915,243.348 87.055 C 244.367 87.195,245.200 87.457,245.200 87.639 C 245.200 87.820,246.055 88.232,247.100 88.553 C 248.145 88.875,249.713 89.512,250.585 89.969 C 251.456 90.426,252.497 90.800,252.897 90.800 C 253.298 90.800,253.727 91.065,253.851 91.389 C 253.976 91.713,254.678 92.091,255.412 92.229 C 256.147 92.367,257.048 92.811,257.415 93.217 C 257.783 93.623,258.602 94.069,259.237 94.208 C 259.872 94.347,260.495 94.630,260.623 94.836 C 260.750 95.043,261.517 95.576,262.327 96.021 C 265.445 97.734,270.606 101.069,272.000 102.271 C 272.330 102.556,273.225 103.332,273.989 103.995 C 274.753 104.658,275.565 105.200,275.793 105.200 C 276.021 105.200,276.432 105.560,276.707 106.000 C 276.982 106.440,277.391 106.800,277.616 106.800 C 277.841 106.800,278.897 107.700,279.962 108.800 C 282.349 111.263,285.600 111.477,285.600 109.171 C 285.600 108.967,285.858 108.800,286.173 108.800 C 286.488 108.800,286.857 108.449,286.994 108.020 C 287.130 107.592,287.583 107.133,288.000 107.000 C 288.417 106.867,288.870 106.408,289.006 105.980 C 289.143 105.551,289.500 105.200,289.800 105.200 C 290.100 105.200,290.457 104.849,290.594 104.420 C 290.730 103.992,291.183 103.533,291.600 103.400 C 292.017 103.267,292.470 102.808,292.606 102.380 C 292.743 101.951,293.100 101.600,293.400 101.600 C 293.700 101.600,294.057 101.249,294.194 100.820 C 294.330 100.392,294.783 99.933,295.200 99.800 C 295.617 99.667,296.070 99.208,296.206 98.780 C 296.343 98.351,296.613 98.000,296.808 98.000 C 297.254 98.000,300.000 95.195,300.000 94.739 C 300.000 94.552,300.201 94.400,300.446 94.400 C 300.939 94.400,303.600 91.634,303.600 91.122 C 303.600 90.945,303.826 90.800,304.102 90.800 C 304.378 90.800,305.233 89.997,306.002 89.015 C 306.771 88.033,307.625 87.223,307.900 87.215 C 308.175 87.207,308.400 87.048,308.400 86.861 C 308.400 86.390,311.154 83.600,311.619 83.600 C 311.829 83.600,312.000 83.448,312.000 83.261 C 312.000 82.790,314.754 80.000,315.219 80.000 C 315.429 80.000,315.600 79.853,315.600 79.673 C 315.600 79.256,326.697 68.096,327.900 67.302 C 328.395 66.975,328.800 66.459,328.800 66.154 C 328.800 65.849,328.945 65.600,329.122 65.600 C 329.634 65.600,332.400 62.939,332.400 62.446 C 332.400 62.201,332.545 62.000,332.722 62.000 C 333.066 62.000,336.000 59.415,336.000 59.112 C 336.000 59.013,337.080 57.807,338.400 56.433 C 339.720 55.058,340.800 53.655,340.800 53.315 C 340.800 52.538,336.954 48.825,332.810 45.600 C 332.103 45.050,331.116 44.195,330.617 43.700 C 330.117 43.205,329.570 42.800,329.400 42.800 C 329.230 42.800,328.691 42.395,328.202 41.900 C 327.155 40.841,325.862 39.831,324.200 38.774 C 323.540 38.355,322.643 37.784,322.206 37.506 C 321.769 37.228,321.174 36.685,320.883 36.300 C 320.593 35.915,320.166 35.600,319.935 35.600 C 319.704 35.600,318.981 35.150,318.327 34.600 C 317.673 34.050,316.926 33.600,316.666 33.600 C 316.405 33.600,315.968 33.240,315.693 32.800 C 315.418 32.360,314.996 32.000,314.754 32.000 C 314.513 32.000,313.781 31.550,313.127 31.000 C 312.473 30.450,311.612 30.000,311.212 30.000 C 310.813 30.000,310.379 29.721,310.248 29.381 C 310.117 29.041,309.468 28.573,308.805 28.342 C 308.142 28.111,307.600 27.779,307.600 27.604 C 307.600 27.430,306.915 27.013,306.077 26.678 C 305.240 26.343,304.318 25.783,304.028 25.434 C 303.739 25.085,303.192 24.800,302.813 24.800 C 302.434 24.800,301.807 24.450,301.421 24.023 C 301.034 23.595,300.214 23.135,299.600 23.000 C 298.986 22.865,298.183 22.423,297.815 22.017 C 297.448 21.611,296.529 21.163,295.774 21.021 C 295.018 20.880,294.400 20.621,294.400 20.446 C 294.400 20.038,292.569 19.200,291.677 19.200 C 291.301 19.200,290.768 18.840,290.493 18.400 C 290.218 17.960,289.569 17.600,289.051 17.600 C 288.532 17.600,287.669 17.255,287.133 16.833 C 286.596 16.411,285.467 15.936,284.624 15.778 C 283.780 15.620,282.755 15.155,282.345 14.745 C 281.935 14.335,281.160 14.000,280.621 14.000 C 280.083 14.000,278.796 13.550,277.762 13.000 C 276.727 12.450,275.552 12.000,275.150 12.000 C 274.748 12.000,273.830 11.641,273.110 11.201 C 272.389 10.762,271.281 10.402,270.647 10.401 C 270.013 10.401,268.933 10.056,268.247 9.635 C 267.561 9.214,266.142 8.744,265.094 8.589 C 264.045 8.434,262.522 7.968,261.709 7.554 C 260.896 7.139,259.736 6.800,259.130 6.800 C 258.525 6.800,257.168 6.462,256.115 6.048 C 255.062 5.635,253.210 5.172,252.000 5.020 C 250.790 4.867,249.208 4.473,248.484 4.145 C 247.761 3.816,245.657 3.392,243.809 3.201 C 241.961 3.010,240.089 2.662,239.649 2.426 C 238.710 1.924,232.478 1.217,228.900 1.207 C 226.948 1.202,226.400 1.069,226.400 0.600 C 226.400 0.099,225.578 0.000,221.400 0.000 C 217.441 0.000,216.400 0.114,216.400 0.546 C 216.400 1.146,218.065 1.351,228.000 1.972 C 231.190 2.172,234.790 2.598,236.000 2.918 C 237.210 3.239,239.550 3.627,241.200 3.782 C 242.850 3.936,245.152 4.408,246.315 4.831 C 247.478 5.254,249.053 5.600,249.813 5.600 C 250.574 5.600,252.233 5.947,253.498 6.371 C 254.764 6.795,256.606 7.268,257.591 7.422 C 258.576 7.575,259.770 7.955,260.243 8.265 C 260.716 8.575,262.225 9.010,263.596 9.230 C 264.967 9.451,266.330 9.873,266.625 10.168 C 266.919 10.462,267.998 10.829,269.021 10.982 C 270.044 11.136,271.448 11.607,272.141 12.029 C 272.833 12.451,273.760 12.803,274.200 12.811 C 274.640 12.819,275.900 13.268,277.000 13.809 C 278.100 14.350,279.270 14.796,279.600 14.799 C 279.930 14.802,280.740 15.163,281.400 15.600 C 282.060 16.037,282.942 16.396,283.360 16.397 C 284.029 16.400,287.530 17.877,289.200 18.862 C 289.530 19.057,290.430 19.487,291.200 19.818 C 291.970 20.149,292.870 20.596,293.200 20.813 C 293.530 21.029,294.250 21.404,294.800 21.646 C 295.350 21.888,296.070 22.248,296.400 22.448 C 296.730 22.647,297.720 23.170,298.600 23.611 C 299.480 24.051,300.920 24.850,301.800 25.386 C 302.680 25.923,303.850 26.589,304.400 26.866 C 305.371 27.357,309.536 29.949,312.422 31.859 C 313.203 32.377,314.039 32.800,314.279 32.800 C 314.518 32.800,314.819 33.073,314.947 33.406 C 315.075 33.739,315.589 34.190,316.090 34.408 C 316.590 34.625,317.810 35.432,318.800 36.200 C 319.790 36.968,320.960 37.757,321.400 37.953 C 321.840 38.148,322.543 38.689,322.962 39.154 C 323.381 39.619,323.880 40.000,324.072 40.000 C 324.482 40.000,335.283 48.820,338.102 51.457 C 340.023 53.254,340.041 53.293,339.326 54.137 C 334.347 60.016,283.506 110.024,282.752 109.785 C 282.265 109.630,280.862 108.522,279.633 107.321 C 277.228 104.970,270.025 99.376,268.520 98.691 C 268.014 98.460,267.600 98.133,267.600 97.963 C 267.600 97.793,267.195 97.531,266.700 97.381 C 266.205 97.231,265.440 96.790,265.000 96.401 C 263.759 95.305,256.040 91.200,255.219 91.200 C 254.989 91.200,254.800 91.023,254.800 90.808 C 254.800 90.592,254.305 90.292,253.700 90.141 C 253.095 89.990,251.808 89.447,250.840 88.933 C 249.873 88.420,248.793 87.999,248.440 87.997 C 248.088 87.996,247.260 87.637,246.600 87.200 C 245.940 86.763,245.033 86.404,244.585 86.403 C 244.136 86.401,243.091 86.054,242.261 85.631 C 241.432 85.208,239.999 84.736,239.077 84.582 C 238.154 84.428,236.538 83.964,235.485 83.551 C 234.432 83.138,232.902 82.792,232.085 82.782 C 231.268 82.773,229.880 82.488,229.000 82.150 C 227.535 81.586,221.297 80.684,211.000 79.546 C 206.186 79.014,196.191 79.330,192.000 80.146 C 190.350 80.467,187.570 80.860,185.822 81.019 C 184.075 81.178,181.915 81.640,181.022 82.045 C 180.130 82.451,178.629 82.786,177.687 82.791 C 176.745 82.796,175.395 83.042,174.687 83.337 C 173.979 83.632,172.410 84.096,171.200 84.368 C 169.990 84.639,168.157 85.208,167.126 85.631 C 166.095 86.054,164.830 86.400,164.315 86.400 C 163.800 86.400,163.023 86.646,162.589 86.946 C 162.155 87.246,161.350 87.621,160.800 87.779 C 160.250 87.936,158.855 88.501,157.700 89.033 C 156.545 89.565,154.565 90.466,153.300 91.035 C 152.035 91.605,150.730 92.237,150.400 92.440 C 150.070 92.644,149.080 93.175,148.200 93.622 C 147.320 94.069,145.880 94.875,145.000 95.414 C 144.120 95.953,142.846 96.655,142.168 96.974 C 141.491 97.293,140.704 97.834,140.419 98.177 C 140.135 98.520,139.679 98.800,139.406 98.800 C 139.133 98.800,138.210 99.341,137.355 100.001 C 135.718 101.266,135.279 101.587,132.978 103.200 C 127.936 106.735,118.393 115.613,113.400 121.412 C 112.520 122.435,111.350 123.761,110.800 124.360 C 110.250 124.958,109.440 125.950,109.000 126.564 C 108.139 127.765,106.406 130.105,105.417 131.400 C 104.760 132.261,101.222 137.708,99.830 140.000 C 99.363 140.770,98.756 141.760,98.482 142.200 C 98.208 142.640,97.698 143.627,97.348 144.393 C 96.998 145.160,96.371 146.219,95.956 146.747 C 95.540 147.276,95.200 148.022,95.200 148.405 C 95.200 148.788,94.952 149.308,94.650 149.559 C 94.347 149.810,93.874 150.822,93.598 151.808 C 93.322 152.793,92.947 153.600,92.764 153.600 C 92.581 153.600,92.214 154.365,91.947 155.300 C 91.680 156.235,91.229 157.277,90.945 157.616 C 90.660 157.955,90.226 159.173,89.979 160.322 C 89.181 164.043,85.856 163.684,82.800 159.547 C 82.690 159.397,81.610 158.595,80.400 157.764 C 79.190 156.933,77.994 156.061,77.743 155.826 C 77.492 155.592,76.092 154.500,74.633 153.400 C 71.422 150.981,66.676 147.199,66.400 146.841 C 66.211 146.595,65.115 145.810,62.927 144.352 C 62.392 143.995,61.200 143.056,60.277 142.264 C 59.355 141.473,57.160 139.759,55.400 138.456 C 53.640 137.153,51.740 135.658,51.178 135.134 C 50.615 134.611,49.175 133.472,47.978 132.604 C 45.914 131.109,43.542 129.276,36.617 123.826 C 34.957 122.520,33.600 121.305,33.600 121.126 C 33.600 120.947,33.369 120.800,33.087 120.800 C 32.545 120.800,30.871 119.606,29.302 118.100 C 28.786 117.605,28.269 117.200,28.153 117.200 C 28.037 117.200,26.714 116.190,25.213 114.955 L 22.484 112.710 23.481 110.455 C 24.029 109.215,24.616 108.110,24.785 108.000 C 24.954 107.890,25.228 107.350,25.393 106.800 C 25.559 106.250,25.925 105.530,26.207 105.200 C 26.490 104.870,27.018 103.970,27.382 103.200 C 28.418 101.006,29.469 99.208,30.163 98.441 C 30.513 98.054,30.800 97.590,30.800 97.410 C 30.800 97.230,31.475 96.097,32.300 94.892 C 33.125 93.688,34.070 92.307,34.400 91.825 C 34.730 91.342,35.394 90.330,35.876 89.574 C 36.358 88.818,36.988 87.937,37.276 87.615 C 37.564 87.293,37.980 86.732,38.200 86.368 C 39.100 84.878,42.185 80.611,42.802 80.000 C 42.914 79.890,43.526 79.080,44.164 78.200 C 45.236 76.720,45.915 75.926,47.666 74.096 C 48.032 73.713,48.891 72.680,49.575 71.800 C 53.543 66.696,63.594 56.580,70.400 50.842 C 71.830 49.636,73.917 47.829,75.039 46.825 C 76.160 45.821,77.510 44.683,78.039 44.296 C 78.567 43.910,79.566 43.145,80.258 42.596 C 80.950 42.048,81.706 41.600,81.938 41.600 C 82.170 41.600,82.510 41.333,82.692 41.007 C 82.875 40.680,84.099 39.688,85.412 38.803 C 86.725 37.917,88.504 36.699,89.364 36.096 C 90.224 35.493,91.327 34.730,91.815 34.400 C 92.303 34.070,93.688 33.125,94.892 32.300 C 96.097 31.475,97.267 30.800,97.492 30.800 C 97.718 30.800,98.111 30.548,98.367 30.240 C 98.623 29.932,100.173 29.017,101.813 28.207 C 103.452 27.397,104.897 26.566,105.024 26.361 C 105.151 26.156,105.879 25.727,106.641 25.408 C 107.404 25.090,108.305 24.553,108.643 24.215 C 108.981 23.877,109.576 23.600,109.967 23.600 C 110.357 23.600,110.983 23.261,111.358 22.846 C 111.734 22.431,112.586 21.983,113.253 21.849 C 113.919 21.716,114.925 21.245,115.486 20.804 C 116.048 20.362,116.799 19.996,117.154 19.991 C 117.509 19.986,118.250 19.630,118.800 19.200 C 119.350 18.770,120.088 18.414,120.440 18.409 C 120.793 18.404,121.927 17.950,122.962 17.400 C 123.996 16.850,125.169 16.400,125.567 16.400 C 125.966 16.400,126.750 16.040,127.309 15.600 C 127.869 15.160,128.658 14.798,129.063 14.796 C 129.468 14.794,130.700 14.350,131.800 13.809 C 132.900 13.268,134.122 12.819,134.516 12.813 C 134.910 12.806,135.908 12.455,136.735 12.033 C 137.561 11.612,138.949 11.135,139.819 10.975 C 140.688 10.814,142.027 10.349,142.794 9.941 C 143.561 9.534,144.693 9.200,145.310 9.200 C 145.927 9.200,147.100 8.861,147.916 8.448 C 148.732 8.034,150.321 7.570,151.448 7.417 C 152.574 7.264,154.014 6.870,154.648 6.540 C 155.281 6.211,157.060 5.795,158.600 5.617 C 160.140 5.439,162.120 5.020,163.000 4.686 C 163.880 4.352,166.373 3.877,168.541 3.631 C 170.709 3.385,172.829 2.998,173.254 2.771 C 173.678 2.544,176.675 2.184,179.913 1.971 C 189.437 1.345,190.800 1.167,190.800 0.552 C 190.800 0.113,189.814 0.000,186.000 0.000 C 182.000 0.000,181.200 0.100,181.200 0.600 M204.080 166.080 C 203.466 166.694,203.378 243.765,203.990 245.374 L 204.380 246.400 258.090 246.404 C 287.631 246.407,312.475 246.520,313.300 246.657 C 314.852 246.913,315.437 248.403,314.394 249.446 C 314.171 249.669,313.726 251.346,313.405 253.172 C 313.084 254.998,312.641 256.709,312.422 256.974 C 312.202 257.238,311.816 258.418,311.563 259.597 C 311.311 260.775,310.766 262.292,310.353 262.969 C 309.941 263.646,309.602 264.498,309.601 264.863 C 309.600 265.453,308.120 268.806,307.157 270.400 C 306.957 270.730,306.636 271.360,306.443 271.800 C 305.381 274.216,305.164 274.669,304.713 275.400 C 304.442 275.840,303.837 276.830,303.370 277.600 C 302.902 278.370,301.458 280.592,300.160 282.538 C 298.862 284.484,297.601 286.424,297.357 286.850 C 297.113 287.276,296.621 287.934,296.263 288.312 C 295.905 288.691,294.636 290.182,293.443 291.626 C 290.058 295.727,285.081 300.604,281.662 303.173 C 280.950 303.707,279.857 304.607,279.234 305.173 C 278.611 305.738,277.617 306.560,277.026 307.000 C 276.435 307.440,275.569 308.205,275.103 308.700 C 274.637 309.195,274.089 309.600,273.886 309.600 C 273.682 309.600,272.981 310.050,272.327 310.600 C 271.673 311.150,271.234 311.600,271.352 311.600 C 271.742 311.600,274.588 309.673,275.442 308.830 C 275.905 308.374,276.425 308.000,276.596 308.000 C 276.768 308.000,277.318 307.595,277.819 307.100 C 278.320 306.605,279.151 305.891,279.665 305.514 C 284.958 301.629,292.659 293.954,296.635 288.600 C 299.404 284.872,301.524 281.789,302.822 279.600 C 303.279 278.830,304.083 277.480,304.607 276.600 C 305.132 275.720,306.212 273.650,307.008 272.000 C 307.803 270.350,308.688 268.550,308.975 268.000 C 309.262 267.450,309.723 266.280,310.001 265.400 C 310.278 264.520,310.654 263.610,310.837 263.377 C 311.020 263.144,311.434 261.942,311.756 260.706 C 312.078 259.469,312.564 258.041,312.836 257.532 C 313.108 257.024,313.557 255.436,313.833 254.004 C 314.109 252.572,314.565 250.639,314.847 249.709 C 315.206 248.527,315.243 247.683,314.971 246.909 L 314.581 245.800 259.858 245.600 C 205.957 245.403,205.127 245.388,204.558 244.610 C 203.905 243.717,203.881 167.186,204.533 166.533 C 204.929 166.137,395.410 166.076,395.805 166.472 C 395.955 166.621,396.248 168.241,396.457 170.072 C 396.666 171.902,397.042 173.921,397.291 174.558 C 397.541 175.195,397.867 176.905,398.016 178.358 L 398.286 181.000 398.337 178.200 C 398.368 176.539,398.130 174.668,397.754 173.600 C 397.405 172.610,397.024 170.720,396.906 169.400 C 396.789 168.080,396.531 166.685,396.332 166.300 C 395.872 165.405,204.973 165.187,204.080 166.080 M398.603 186.624 C 398.767 191.863,398.978 193.200,399.643 193.200 C 400.132 193.200,400.098 188.500,399.607 188.333 C 399.391 188.260,399.040 186.670,398.827 184.800 C 398.455 181.532,398.446 181.602,398.603 186.624 M399.043 227.033 C 398.909 227.381,398.719 230.036,398.620 232.933 C 398.459 237.642,398.479 237.861,398.809 235.003 C 399.013 233.245,399.364 231.745,399.590 231.670 C 400.092 231.503,400.143 226.400,399.643 226.400 C 399.446 226.400,399.176 226.685,399.043 227.033 M398.000 240.116 C 398.000 241.060,397.746 242.815,397.437 244.016 C 397.127 245.217,396.675 247.820,396.433 249.800 C 396.191 251.780,395.720 254.180,395.387 255.134 C 395.053 256.087,394.673 257.977,394.540 259.334 C 394.408 260.690,394.067 262.340,393.783 263.000 C 393.498 263.660,393.063 265.430,392.815 266.934 C 392.567 268.437,392.194 269.967,391.986 270.334 C 391.777 270.700,391.348 272.080,391.032 273.400 C 390.455 275.809,389.717 278.252,388.554 281.600 C 388.210 282.590,387.748 284.120,387.527 285.000 C 387.306 285.880,386.782 287.266,386.362 288.079 C 385.943 288.893,385.600 289.828,385.600 290.158 C 385.600 290.488,385.150 291.604,384.600 292.638 C 384.050 293.673,383.600 294.812,383.600 295.171 C 383.600 295.529,383.350 296.179,383.045 296.614 C 382.740 297.050,382.261 298.170,381.982 299.103 C 381.702 300.037,381.336 300.800,381.168 300.800 C 381.000 300.800,380.645 301.475,380.380 302.300 C 380.116 303.125,379.673 304.070,379.397 304.400 C 379.121 304.730,378.765 305.424,378.607 305.942 C 378.449 306.461,377.711 307.991,376.968 309.342 C 376.224 310.694,375.368 312.347,375.064 313.016 C 374.760 313.684,373.780 315.436,372.885 316.908 C 371.990 318.381,371.151 319.925,371.019 320.340 C 370.887 320.755,370.424 321.416,369.990 321.809 C 369.555 322.202,369.200 322.683,369.200 322.878 C 369.200 323.073,368.864 323.720,368.454 324.316 C 368.044 324.912,367.052 326.390,366.251 327.600 C 363.831 331.254,363.492 331.727,361.916 333.656 C 361.082 334.676,360.400 335.641,360.400 335.799 C 360.400 335.958,360.045 336.473,359.610 336.944 C 359.176 337.415,357.909 338.970,356.795 340.400 C 354.719 343.066,352.305 345.917,350.238 348.142 C 346.666 351.990,335.856 362.830,334.227 364.200 C 333.180 365.080,331.914 366.160,331.414 366.600 C 330.069 367.782,329.238 368.430,326.800 370.195 C 325.590 371.071,324.420 371.928,324.200 372.099 C 321.579 374.135,320.645 374.800,320.407 374.800 C 320.252 374.800,319.601 375.250,318.962 375.800 C 317.567 377.000,318.029 377.144,319.537 375.979 C 320.680 375.095,322.272 373.929,325.790 371.400 C 327.888 369.891,332.187 366.518,334.398 364.645 C 335.897 363.377,352.000 347.266,352.000 347.036 C 352.000 346.926,352.405 346.414,352.900 345.897 C 353.395 345.380,354.520 344.091,355.400 343.031 C 356.280 341.972,357.495 340.547,358.100 339.864 C 358.705 339.181,359.200 338.452,359.200 338.244 C 359.200 338.037,359.471 337.582,359.801 337.234 C 360.888 336.088,363.291 333.029,364.355 331.436 C 364.930 330.576,365.670 329.478,366.000 328.996 C 368.799 324.906,371.000 321.403,371.517 320.215 C 371.802 319.561,372.186 318.930,372.370 318.813 C 372.699 318.604,373.730 316.743,375.014 314.042 C 375.369 313.295,375.916 312.427,376.230 312.113 C 376.543 311.799,376.800 311.321,376.800 311.049 C 376.800 310.778,377.250 309.945,377.800 309.200 C 378.350 308.455,378.800 307.442,378.800 306.951 C 378.800 306.459,379.077 305.780,379.417 305.440 C 379.756 305.101,380.235 304.233,380.481 303.512 C 380.727 302.790,381.259 301.771,381.664 301.246 C 382.069 300.721,382.406 300.001,382.413 299.646 C 382.419 299.291,382.868 298.100,383.409 297.000 C 383.950 295.900,384.394 294.707,384.396 294.349 C 384.398 293.991,384.665 293.478,384.989 293.209 C 385.314 292.940,385.695 292.063,385.838 291.260 C 385.981 290.457,386.414 289.260,386.800 288.600 C 387.186 287.940,387.616 286.760,387.755 285.978 C 387.894 285.195,388.366 283.852,388.804 282.993 C 389.242 282.134,389.600 281.009,389.600 280.493 C 389.600 279.978,389.940 278.801,390.356 277.878 C 390.771 276.955,391.243 275.399,391.404 274.419 C 391.566 273.440,392.036 271.850,392.449 270.886 C 392.862 269.922,393.200 268.615,393.200 267.981 C 393.200 267.347,393.498 265.967,393.862 264.914 C 394.226 263.861,394.746 261.650,395.018 260.000 C 395.289 258.350,395.799 256.010,396.151 254.800 C 396.503 253.590,396.801 251.700,396.813 250.600 C 396.825 249.500,397.108 247.880,397.441 247.000 C 398.059 245.368,398.719 238.400,398.255 238.400 C 398.115 238.400,398.000 239.172,398.000 240.116 M90.446 249.415 C 90.421 249.644,90.760 250.537,91.200 251.400 C 91.640 252.263,92.000 253.231,92.000 253.551 C 92.000 253.871,92.102 254.031,92.228 253.906 C 92.530 253.603,91.560 250.400,91.166 250.400 C 90.997 250.400,90.776 250.085,90.676 249.700 C 90.575 249.315,90.472 249.187,90.446 249.415 M92.413 254.676 C 92.406 254.938,92.593 255.272,92.828 255.417 C 93.063 255.563,93.412 256.068,93.603 256.541 C 93.851 257.157,93.956 257.215,93.975 256.744 C 93.989 256.384,93.646 255.664,93.213 255.144 C 92.781 254.625,92.421 254.414,92.413 254.676 M94.007 258.076 C 94.003 258.448,94.185 258.867,94.411 259.007 C 94.638 259.147,95.086 259.832,95.407 260.531 C 95.845 261.482,95.932 261.550,95.752 260.800 C 95.416 259.393,94.015 257.208,94.007 258.076 M96.672 263.091 C 97.073 263.801,97.466 264.187,97.547 263.949 C 97.628 263.711,97.301 263.130,96.819 262.658 L 95.945 261.800 96.672 263.091 M97.613 264.937 C 97.606 265.122,97.960 265.731,98.400 266.291 C 98.840 266.850,99.200 267.124,99.200 266.898 C 99.200 266.400,97.632 264.461,97.613 264.937 M99.214 267.838 C 99.235 268.350,101.196 270.686,101.198 270.200 C 101.198 269.980,100.749 269.277,100.200 268.638 C 99.650 267.999,99.206 267.639,99.214 267.838 M101.200 270.905 C 101.200 271.158,102.546 273.279,103.867 275.106 C 104.227 275.604,104.605 275.928,104.707 275.826 C 104.810 275.723,104.499 275.136,104.017 274.520 C 103.535 273.904,102.704 272.780,102.170 272.022 C 101.637 271.265,101.200 270.762,101.200 270.905 M106.631 279.000 C 107.662 280.540,108.966 282.250,109.529 282.800 C 110.455 283.705,110.165 283.116,109.000 281.725 C 108.780 281.463,108.150 280.593,107.600 279.792 C 107.050 278.992,106.185 277.856,105.678 277.268 C 105.170 276.681,105.599 277.460,106.631 279.000 M111.524 285.010 C 112.477 286.903,126.131 300.800,127.040 300.800 C 127.101 300.800,124.134 297.785,120.446 294.100 C 116.758 290.415,113.150 286.680,112.429 285.800 C 111.707 284.920,111.300 284.564,111.524 285.010 M127.998 301.596 C 128.235 302.038,128.589 302.400,128.786 302.400 C 128.982 302.400,129.381 302.625,129.671 302.900 C 129.962 303.175,131.066 304.030,132.125 304.800 C 133.184 305.570,134.560 306.605,135.183 307.100 C 136.687 308.295,137.179 308.263,135.731 307.064 C 132.167 304.115,127.629 300.907,127.998 301.596 M25.200 303.061 C 25.200 303.290,25.560 303.893,26.000 304.400 C 26.440 304.907,26.801 305.520,26.801 305.761 C 26.804 306.422,28.410 308.923,28.667 308.666 C 28.790 308.543,28.511 307.958,28.046 307.367 C 27.581 306.776,27.200 306.081,27.200 305.824 C 27.200 305.566,26.750 304.745,26.200 304.000 C 25.650 303.255,25.200 302.832,25.200 303.061 M137.622 308.626 C 137.908 308.971,138.686 309.534,139.351 309.878 C 140.017 310.222,140.808 310.750,141.109 311.052 C 141.410 311.353,141.838 311.600,142.059 311.600 C 142.280 311.600,141.927 311.150,141.273 310.600 C 140.619 310.050,139.913 309.600,139.704 309.600 C 139.495 309.600,138.998 309.240,138.600 308.800 C 137.752 307.863,136.856 307.704,137.622 308.626 M28.800 309.494 C 28.800 309.741,29.037 310.181,29.326 310.471 C 29.615 310.762,30.060 311.360,30.314 311.800 C 30.568 312.240,30.781 312.410,30.788 312.178 C 30.795 311.945,30.350 311.145,29.800 310.400 C 29.250 309.655,28.800 309.247,28.800 309.494 M142.800 311.754 C 142.800 311.839,143.295 312.227,143.900 312.616 L 145.000 313.324 144.238 312.462 C 143.564 311.699,142.800 311.323,142.800 311.754 M269.430 312.424 C 269.007 312.851,268.844 313.200,269.068 313.200 C 269.292 313.200,269.802 312.840,270.200 312.400 C 271.128 311.374,270.450 311.395,269.430 312.424 M31.487 313.843 C 31.924 314.479,33.157 316.350,34.226 318.000 C 36.211 321.064,38.000 323.447,38.000 323.027 C 38.000 322.898,37.505 322.096,36.900 321.244 C 35.519 319.299,35.170 318.777,33.206 315.728 C 32.330 314.368,31.406 313.128,31.153 312.971 C 30.899 312.814,31.050 313.206,31.487 313.843 M146.562 314.200 C 147.372 314.750,148.253 315.199,148.518 315.198 C 149.052 315.196,146.012 313.232,145.444 313.212 C 145.248 313.206,145.751 313.650,146.562 314.200 M266.411 314.220 C 265.647 314.759,265.208 315.200,265.434 315.200 C 265.660 315.200,266.455 314.750,267.200 314.200 C 268.948 312.910,268.241 312.928,266.411 314.220 M149.800 316.000 C 150.198 316.440,150.790 316.800,151.116 316.800 C 151.497 316.800,151.345 316.515,150.691 316.000 C 150.131 315.560,149.539 315.200,149.375 315.200 C 149.211 315.200,149.402 315.560,149.800 316.000 M263.200 316.000 C 262.650 316.430,262.380 316.782,262.600 316.782 C 262.820 316.782,263.450 316.430,264.000 316.000 C 264.550 315.570,264.820 315.218,264.600 315.218 C 264.380 315.218,263.750 315.570,263.200 316.000 M153.541 317.805 C 155.797 319.094,156.692 319.099,154.600 317.810 C 153.720 317.268,152.730 316.822,152.400 316.817 C 152.070 316.813,152.583 317.257,153.541 317.805 M259.552 317.552 C 259.027 317.965,258.237 318.394,257.798 318.505 C 257.184 318.661,257.156 318.718,257.679 318.754 C 258.052 318.779,259.204 318.350,260.238 317.800 C 261.454 317.154,261.834 316.800,261.314 316.800 C 260.870 316.800,260.078 317.138,259.552 317.552 M157.709 319.600 C 158.269 320.040,158.947 320.400,159.217 320.400 C 159.487 320.400,159.250 320.040,158.691 319.600 C 158.131 319.160,157.453 318.800,157.183 318.800 C 156.913 318.800,157.150 319.160,157.709 319.600 M255.000 319.627 C 254.340 320.050,254.042 320.397,254.337 320.398 C 254.632 320.399,255.331 320.040,255.891 319.600 C 257.174 318.591,256.590 318.608,255.000 319.627 M161.940 321.404 C 164.713 322.695,165.469 322.692,163.038 321.400 C 162.004 320.850,160.852 320.402,160.479 320.404 C 160.105 320.406,160.763 320.856,161.940 321.404 M250.400 321.416 C 249.190 321.937,248.560 322.365,249.000 322.369 C 249.440 322.372,250.700 321.932,251.800 321.391 C 254.337 320.143,253.316 320.161,250.400 321.416 M166.710 323.201 C 167.430 323.641,168.330 323.992,168.710 323.983 C 169.133 323.973,168.858 323.670,168.000 323.200 C 166.139 322.181,165.038 322.183,166.710 323.201 M245.200 323.200 C 244.430 323.622,244.070 323.966,244.400 323.966 C 244.730 323.966,245.630 323.622,246.400 323.200 C 247.170 322.778,247.530 322.434,247.200 322.434 C 246.870 322.434,245.970 322.778,245.200 323.200 M172.600 325.007 C 174.140 325.551,175.850 325.976,176.400 325.952 C 177.212 325.916,177.250 325.873,176.600 325.724 C 176.160 325.623,174.848 325.194,173.685 324.770 C 172.522 324.347,171.172 324.004,170.685 324.008 C 170.198 324.013,171.060 324.462,172.600 325.007 M239.000 324.816 C 237.680 325.241,236.240 325.612,235.800 325.641 C 235.222 325.678,235.176 325.740,235.635 325.863 C 236.280 326.036,237.816 325.716,241.400 324.661 C 242.682 324.283,243.041 324.066,242.400 324.057 C 241.850 324.049,240.320 324.391,239.000 324.816 M40.879 327.286 C 43.341 330.801,49.913 338.994,51.160 340.103 C 51.842 340.710,52.400 341.341,52.400 341.507 C 52.400 341.672,52.796 342.055,53.281 342.358 C 54.284 342.984,53.664 342.164,50.733 338.989 C 49.926 338.115,47.461 335.150,45.257 332.400 C 40.029 325.879,39.282 325.006,40.879 327.286 M179.800 326.818 C 180.900 327.248,182.340 327.590,183.000 327.578 C 183.948 327.561,183.695 327.394,181.800 326.784 C 178.685 325.782,177.209 325.807,179.800 326.818 M231.945 326.188 C 231.842 326.292,230.777 326.640,229.579 326.962 C 227.649 327.480,227.560 327.547,228.800 327.543 C 230.539 327.537,234.751 326.079,233.167 326.031 C 232.598 326.014,232.049 326.085,231.945 326.188 M188.400 328.254 C 198.426 329.874,211.910 329.856,222.800 328.207 L 226.600 327.632 223.600 327.808 C 221.950 327.904,218.710 328.211,216.400 328.490 C 210.598 329.191,196.830 329.050,192.000 328.240 C 189.910 327.890,187.480 327.626,186.600 327.654 C 185.440 327.691,185.935 327.856,188.400 328.254 M55.584 344.766 C 55.771 345.115,58.019 347.470,60.579 350.000 C 65.448 354.813,66.068 355.388,65.319 354.400 C 64.434 353.232,55.247 344.141,55.584 344.766 M66.593 355.581 C 67.065 356.325,68.900 358.066,70.756 359.530 C 71.501 360.119,72.312 360.780,72.557 361.000 C 73.585 361.922,74.400 362.483,74.400 362.269 C 74.400 362.143,72.825 360.729,70.900 359.126 C 68.975 357.524,67.130 355.931,66.800 355.587 C 66.272 355.037,66.247 355.036,66.593 355.581 M75.052 362.992 C 75.181 363.326,75.406 363.600,75.554 363.600 C 75.701 363.600,76.447 364.144,77.211 364.809 C 79.325 366.650,79.658 366.919,81.185 368.022 C 83.262 369.522,84.005 369.812,82.460 368.521 C 78.255 365.004,74.849 362.461,75.052 362.992 M85.000 370.590 C 85.660 371.152,86.470 371.863,86.800 372.170 C 87.130 372.476,87.895 372.952,88.500 373.228 C 89.105 373.503,89.600 373.858,89.600 374.016 C 89.600 374.174,90.140 374.527,90.800 374.800 C 91.460 375.073,92.000 375.435,92.000 375.603 C 92.000 375.771,92.664 376.224,93.475 376.609 C 94.286 376.994,95.141 377.468,95.375 377.662 C 96.423 378.533,99.438 380.385,99.800 380.381 C 100.020 380.378,99.842 380.168,99.405 379.915 C 98.967 379.661,98.427 379.302,98.205 379.116 C 97.982 378.931,96.900 378.214,95.800 377.523 C 93.817 376.277,89.062 373.138,85.600 370.789 C 84.224 369.856,84.083 369.809,85.000 370.590 M316.800 377.400 C 316.526 377.730,316.109 378.000,315.873 378.000 C 315.636 378.000,314.803 378.420,314.022 378.932 C 313.240 379.445,311.936 380.296,311.124 380.823 C 310.313 381.351,309.730 381.863,309.829 381.963 C 309.929 382.062,310.540 381.751,311.189 381.272 C 311.837 380.792,312.533 380.400,312.735 380.400 C 312.937 380.400,313.339 380.115,313.628 379.766 C 313.918 379.417,314.826 378.863,315.646 378.535 C 316.467 378.206,317.237 377.682,317.357 377.369 C 317.639 376.634,317.426 376.646,316.800 377.400 M102.800 382.087 C 103.350 382.357,103.890 382.699,104.000 382.847 C 104.221 383.143,110.417 386.551,112.000 387.246 C 112.550 387.488,113.270 387.850,113.600 388.051 C 113.930 388.252,114.830 388.690,115.600 389.025 C 116.370 389.359,117.655 389.986,118.454 390.417 C 119.254 390.848,120.154 391.198,120.454 391.196 C 120.755 391.194,119.830 390.641,118.400 389.967 C 116.970 389.293,115.530 388.581,115.200 388.385 C 114.870 388.189,112.784 387.125,110.565 386.020 C 108.345 384.916,105.889 383.577,105.106 383.046 C 104.323 382.515,103.259 381.971,102.741 381.838 C 101.837 381.605,101.839 381.615,102.800 382.087 M307.200 383.018 C 304.598 384.782,304.190 385.239,306.147 384.199 C 308.017 383.204,309.613 381.963,308.929 382.034 C 308.748 382.053,307.970 382.496,307.200 383.018 M300.000 386.986 C 298.130 387.936,295.430 389.271,294.000 389.953 C 292.570 390.635,291.645 391.194,291.946 391.196 C 292.246 391.198,293.146 390.854,293.946 390.431 C 294.745 390.008,296.827 388.995,298.572 388.181 C 301.940 386.609,304.463 385.185,303.800 385.230 C 303.580 385.245,301.870 386.035,300.000 386.986 M121.495 391.670 C 121.768 392.000,122.727 392.491,123.628 392.761 C 124.529 393.031,125.836 393.600,126.533 394.024 C 127.230 394.449,128.160 394.783,128.600 394.767 C 129.166 394.746,129.225 394.674,128.800 394.523 C 128.470 394.405,127.480 393.976,126.600 393.569 C 125.720 393.161,124.280 392.516,123.400 392.135 C 122.520 391.754,121.620 391.358,121.400 391.256 C 121.180 391.154,121.223 391.340,121.495 391.670 M290.000 391.800 C 289.726 392.130,289.191 392.400,288.811 392.400 C 288.430 392.400,287.306 392.832,286.313 393.360 C 285.319 393.889,284.258 394.405,283.953 394.509 C 283.649 394.612,283.928 394.628,284.574 394.544 C 285.219 394.459,286.029 394.139,286.374 393.832 C 286.718 393.526,287.744 393.076,288.653 392.834 C 290.160 392.433,291.854 391.200,290.898 391.200 C 290.678 391.200,290.274 391.470,290.000 391.800 M129.600 394.990 C 129.600 395.322,131.932 396.400,132.680 396.413 C 133.076 396.419,134.300 396.868,135.400 397.409 C 136.500 397.950,137.760 398.379,138.200 398.362 C 138.791 398.339,138.712 398.245,137.895 397.999 C 137.287 397.816,136.015 397.292,135.069 396.833 C 134.122 396.375,132.989 396.000,132.550 396.000 C 132.112 396.000,131.404 395.736,130.976 395.413 C 130.195 394.821,129.600 394.639,129.600 394.990 M281.404 395.194 C 281.270 395.410,280.584 395.770,279.880 395.992 L 278.600 396.397 279.925 396.204 C 281.436 395.983,283.448 394.800,282.313 394.800 C 281.947 394.800,281.538 394.977,281.404 395.194 M276.600 396.891 C 276.160 397.148,275.170 397.584,274.400 397.861 C 273.521 398.177,273.298 398.370,273.800 398.379 C 274.240 398.386,275.500 397.950,276.600 397.409 C 277.700 396.868,278.330 396.425,278.000 396.425 C 277.670 396.424,277.040 396.634,276.600 396.891 M140.224 398.987 C 140.651 399.310,141.259 399.580,141.576 399.587 C 141.983 399.596,141.924 399.427,141.376 399.013 C 140.949 398.690,140.341 398.420,140.024 398.413 C 139.617 398.404,139.676 398.573,140.224 398.987 M271.052 398.859 C 270.641 399.098,269.291 399.531,268.052 399.821 C 265.280 400.471,262.643 401.563,263.800 401.582 C 264.240 401.589,265.088 401.340,265.685 401.029 C 266.282 400.718,267.722 400.260,268.885 400.013 C 271.024 399.558,273.522 398.430,272.400 398.426 C 272.070 398.425,271.463 398.620,271.052 398.859 M145.952 400.812 C 146.915 401.249,148.445 401.692,149.352 401.797 L 151.000 401.986 149.487 401.597 C 148.655 401.382,147.449 400.936,146.807 400.604 C 146.165 400.272,145.316 400.004,144.920 400.009 C 144.524 400.014,144.988 400.375,145.952 400.812 M152.400 402.600 C 152.950 402.914,153.760 403.177,154.200 403.183 C 154.839 403.193,154.769 403.075,153.854 402.598 C 152.340 401.808,151.018 401.810,152.400 402.600 M257.897 402.433 C 257.511 402.658,256.431 403.008,255.497 403.210 C 253.821 403.572,253.826 403.574,255.881 403.377 C 258.281 403.147,261.349 402.034,259.600 402.028 C 259.050 402.026,258.284 402.208,257.897 402.433 M156.200 403.470 C 156.640 403.565,158.568 404.094,160.485 404.646 C 162.508 405.229,164.604 405.584,165.485 405.492 L 167.000 405.334 165.386 405.267 C 164.499 405.230,162.779 404.851,161.565 404.424 C 160.351 403.998,158.467 403.570,157.379 403.473 C 156.291 403.377,155.760 403.375,156.200 403.470 M251.000 403.869 C 250.560 403.966,249.712 404.234,249.117 404.464 C 248.521 404.695,247.081 405.022,245.917 405.192 C 244.245 405.435,244.094 405.509,245.200 405.544 C 246.438 405.582,248.720 405.112,252.600 404.020 C 253.956 403.638,252.622 403.512,251.000 403.869 M167.656 405.789 C 168.080 406.214,173.781 407.196,175.526 407.146 C 177.055 407.101,176.858 407.035,174.457 406.783 C 172.839 406.613,171.318 406.278,171.077 406.037 C 170.837 405.797,169.926 405.600,169.053 405.600 C 168.181 405.600,167.552 405.685,167.656 405.789 M240.287 405.846 C 240.151 405.982,239.446 406.233,238.720 406.405 C 237.615 406.667,237.563 406.724,238.400 406.753 C 238.950 406.772,240.210 406.533,241.200 406.221 C 242.855 405.699,242.901 405.651,241.767 405.627 C 241.088 405.612,240.422 405.711,240.287 405.846 M234.100 407.087 C 234.705 407.178,235.695 407.178,236.300 407.087 C 236.905 406.995,236.410 406.920,235.200 406.920 C 233.990 406.920,233.495 406.995,234.100 407.087 M180.320 407.472 C 182.037 407.585,182.910 407.823,183.063 408.219 C 183.310 408.864,187.200 409.075,187.200 408.443 C 187.200 407.814,185.994 407.589,181.849 407.447 C 179.622 407.370,178.934 407.381,180.320 407.472 M225.800 407.477 C 223.140 407.653,222.000 407.932,222.000 408.408 C 222.000 409.002,227.497 408.908,227.697 408.310 C 227.787 408.040,228.919 407.708,230.230 407.569 L 232.600 407.318 230.200 407.331 C 228.880 407.338,226.900 407.404,225.800 407.477 " stroke="none" fill="#f6c030" fill-rule="evenodd"></path></g></svg>