<?xml version="1.0" standalone="no"?>
<!DOCTYPE svg PUBLIC "-//W3C//DTD SVG 20010904//EN"
 "http://www.w3.org/TR/2001/REC-SVG-20010904/DTD/svg10.dtd">
<svg version="1.0" xmlns="http://www.w3.org/2000/svg"
 width="225.000000pt" height="225.000000pt" viewBox="0 0 225.000000 225.000000"
 preserveAspectRatio="xMidYMid meet">

<g transform="translate(0.000000,225.000000) scale(0.100000,-0.100000)"
fill="#000000" stroke="none">
<path d="M985 2219 c-479 -60 -875 -449 -945 -928 -18 -123 -8 -313 24 -436
30 -118 113 -291 185 -386 438 -578 1314 -578 1752 0 72 95 155 268 185 386
31 119 43 320 25 431 -77 496 -463 872 -956 933 -102 12 -169 12 -270 0z m390
-104 c297 -75 536 -274 671 -559 72 -153 89 -233 89 -426 -1 -196 -18 -275
-94 -435 -203 -425 -664 -655 -1122 -560 -313 66 -571 269 -710 560 -76 160
-93 239 -94 435 0 193 17 273 89 426 106 224 264 384 479 489 218 105 459 129
692 70z"/>
<path d="M821 1415 l190 -275 -118 -170 c-65 -94 -155 -224 -201 -290 l-83
-120 111 0 111 0 83 129 c47 70 110 172 142 225 32 53 60 96 64 96 3 0 14 -15
24 -32 11 -18 75 -120 144 -225 l124 -193 115 0 c70 0 112 4 108 10 -3 5 -89
131 -191 281 -102 149 -188 278 -191 285 -3 8 77 131 181 279 102 146 186 267
186 270 0 3 -47 5 -105 5 l-106 0 -94 -144 c-51 -79 -113 -176 -136 -215 -23
-39 -43 -71 -45 -71 -1 0 -17 24 -34 53 -17 28 -80 125 -138 214 l-107 163
-112 0 -112 0 190 -275z"/>
</g>
</svg>
